M48
; DRILL file {KiCad 9.0.6-9.0.6~ubuntu25.04.1} date 2025-12-27T15:19:46+0100
; FORMAT={-:-/ absolute / metric / decimal}
; #@! TF.CreationDate,2025-12-27T15:19:46+01:00
; #@! TF.GenerationSoftware,Kicad,Pcbnew,9.0.6-9.0.6~ubuntu25.04.1
; #@! TF.FileFunction,Plated,1,2,PTH
FMAT,2
METRIC
; #@! TA.AperFunction,Plated,PTH,ViaDrill
T1C0.300
; #@! TA.AperFunction,Plated,PTH,ViaDrill
T2C0.400
; #@! TA.AperFunction,Plated,PTH,ViaDrill
T3C0.600
; #@! TA.AperFunction,Plated,PTH,ComponentDrill
T4C0.600
; #@! TA.AperFunction,Plated,PTH,ComponentDrill
T5C0.900
; #@! TA.AperFunction,Plated,PTH,ComponentDrill
T6C1.000
; #@! TA.AperFunction,Plated,PTH,ComponentDrill
T7C1.020
; #@! TA.AperFunction,Plated,PTH,ViaDrill
T8C3.000
%
G90
G05
T1
X91.35Y-57.55
X91.35Y-80.95
X94.95Y-48.55
X94.95Y-50.35
X94.95Y-52.15
X94.95Y-61.15
X94.95Y-62.95
X94.95Y-64.75
X94.95Y-68.35
X94.95Y-73.75
X94.95Y-75.55
X94.95Y-77.35
X94.95Y-84.55
X94.95Y-86.35
X94.95Y-88.15
X94.95Y-89.95
X96.75Y-50.35
X96.75Y-52.15
X98.55Y-44.95
X98.55Y-50.35
X98.55Y-62.95
X98.55Y-95.35
X98.55Y-97.15
X100.35Y-43.15
X100.35Y-44.95
X100.35Y-95.35
X100.35Y-97.15
X102.15Y-43.15
X102.15Y-44.95
X102.15Y-95.35
X102.15Y-97.15
X103.95Y-43.15
X103.95Y-44.95
X103.95Y-52.15
X103.95Y-62.95
X103.95Y-75.55
X103.95Y-95.35
X103.95Y-97.15
X105.75Y-43.15
X105.75Y-44.95
X105.75Y-46.75
X105.75Y-48.55
X105.75Y-52.15
X105.75Y-86.35
X105.75Y-93.55
X105.75Y-95.35
X105.75Y-97.15
X107.55Y-93.55
X107.55Y-95.35
X107.55Y-97.15
X107.9Y-41.89
X107.9Y-43.81
X107.9Y-46.44
X107.9Y-48.36
X107.9Y-50.99
X107.9Y-52.91
X107.9Y-55.54
X107.9Y-57.46
X109.35Y-61.15
X109.35Y-64.75
X109.35Y-71.95
X109.35Y-73.75
X109.35Y-93.55
X109.35Y-95.35
X109.35Y-97.15
X109.75Y-76.25
X111.15Y-59.35
X111.15Y-61.15
X111.15Y-62.95
X111.15Y-64.75
X111.15Y-73.75
X111.15Y-95.35
X111.15Y-97.15
X112.95Y-41.35
X112.95Y-59.35
X112.95Y-61.15
X112.95Y-62.95
X112.95Y-64.75
X112.95Y-70.15
X112.95Y-77.35
X112.95Y-79.15
X112.95Y-80.95
X112.95Y-97.15
X114.75Y-41.35
X114.75Y-43.15
X114.75Y-44.95
X114.75Y-46.75
X114.75Y-48.55
X114.75Y-50.35
X114.75Y-52.15
X114.75Y-95.35
X114.75Y-97.15
X116.55Y-41.35
X116.55Y-43.15
X116.55Y-44.95
X116.55Y-91.75
X116.55Y-93.55
X116.55Y-95.35
X116.55Y-97.15
X116.75Y-57.1
X116.75Y-59.85
X116.756Y-58.357
X118.175Y-49.75
X118.175Y-51.0
X118.175Y-52.27
X118.35Y-91.75
X118.35Y-93.55
X118.35Y-95.35
X118.35Y-97.15
X118.8Y-76.25
X119.425Y-62.925
X120.15Y-55.75
X120.15Y-57.55
X120.15Y-59.35
X120.15Y-68.35
X120.15Y-70.15
X120.15Y-71.95
X120.15Y-73.75
X120.15Y-82.75
X120.15Y-91.75
X120.15Y-93.55
X120.15Y-95.35
X120.15Y-97.15
X121.95Y-57.55
X121.95Y-59.35
X121.95Y-82.75
X121.95Y-91.75
X121.95Y-93.55
X121.95Y-95.35
X121.95Y-97.15
X123.25Y-61.75
X123.75Y-91.75
X123.75Y-93.55
X123.75Y-95.35
X123.75Y-97.15
X125.55Y-48.55
X125.55Y-61.15
X125.55Y-70.15
X125.55Y-77.35
X125.55Y-79.15
X125.55Y-80.95
X125.55Y-82.75
X125.55Y-91.75
X125.55Y-93.55
X125.55Y-95.35
X125.55Y-97.15
X125.775Y-62.925
X127.201Y-56.799
X127.35Y-48.55
X127.35Y-70.15
X127.35Y-95.35
X127.35Y-97.15
X129.15Y-77.35
X129.15Y-79.15
X129.15Y-80.95
X129.15Y-82.75
X129.15Y-97.15
X129.5Y-66.0
X130.95Y-43.15
X130.95Y-82.75
X130.95Y-95.35
X130.95Y-97.15
X131.25Y-53.0
X131.25Y-58.25
X131.3Y-76.25
X132.0Y-52.0
X132.5Y-64.175
X132.75Y-43.15
X132.75Y-82.75
X132.75Y-91.75
X132.75Y-93.55
X132.75Y-95.35
X132.75Y-97.15
X133.395Y-45.425
X133.5Y-64.175
X133.5Y-72.0
X133.675Y-77.5
X134.55Y-43.15
X134.55Y-55.75
X134.55Y-75.55
X134.55Y-86.35
X134.55Y-88.15
X134.55Y-89.95
X134.55Y-91.75
X134.55Y-93.55
X134.55Y-95.35
X134.55Y-97.15
X136.35Y-43.15
X136.35Y-57.55
X136.35Y-86.35
X136.35Y-88.15
X136.35Y-89.95
X136.35Y-91.75
X136.35Y-93.55
X136.35Y-95.35
X136.35Y-97.15
X138.15Y-43.15
X138.15Y-46.75
X138.15Y-50.35
X138.15Y-52.15
X138.15Y-71.95
X138.15Y-73.75
X138.15Y-79.15
X138.15Y-80.95
X138.15Y-82.75
X138.15Y-86.35
X138.15Y-88.15
X138.15Y-89.95
X138.15Y-91.75
X138.15Y-93.55
X138.15Y-95.35
X138.15Y-97.15
X138.25Y-60.25
X138.25Y-61.05
X139.092Y-58.007
X139.5Y-66.25
X139.95Y-52.15
X139.95Y-53.95
X139.95Y-91.75
X139.95Y-93.55
X139.95Y-95.35
X139.95Y-97.15
X140.0Y-59.35
X140.75Y-60.2
X140.75Y-61.0
X140.75Y-63.75
X140.75Y-67.75
X141.55Y-64.4
X141.55Y-67.75
X141.75Y-53.95
X141.75Y-70.15
X141.75Y-71.95
X141.75Y-73.75
X141.75Y-79.15
X141.75Y-80.95
X141.75Y-82.75
X141.75Y-95.35
X141.75Y-97.15
X142.5Y-63.75
X142.5Y-67.75
X143.25Y-64.5
X143.324Y-67.726
X143.55Y-53.95
X143.55Y-71.95
X143.55Y-73.75
X143.55Y-97.15
X145.35Y-53.95
X145.35Y-95.35
X145.35Y-97.15
X147.15Y-97.15
X148.95Y-97.15
X150.75Y-46.75
X150.75Y-61.15
X150.75Y-66.55
X150.75Y-79.15
X150.75Y-80.95
X150.75Y-82.75
X150.75Y-91.75
X150.75Y-93.55
X150.75Y-95.35
X150.75Y-97.15
X152.55Y-89.95
X152.55Y-91.75
X154.35Y-50.35
X154.35Y-55.75
X154.35Y-57.55
X154.35Y-80.95
X154.35Y-82.75
X154.35Y-84.55
X154.35Y-89.95
X156.15Y-50.35
X156.15Y-55.75
X156.15Y-57.55
X156.15Y-77.35
X156.15Y-79.15
X156.15Y-89.95
X156.5Y-67.0
X157.95Y-89.95
T2
X134.665Y-45.425
X152.5Y-67.0
X155.224Y-68.223
X157.886Y-68.204
T3
X92.0Y-47.5
X92.0Y-54.75
X92.0Y-59.75
X92.0Y-66.75
X92.0Y-71.75
X92.0Y-78.75
X92.0Y-84.25
X92.0Y-91.0
X96.75Y-54.69
X96.75Y-66.89
X96.75Y-79.09
X96.75Y-91.29
X104.7Y-60.0
X105.0Y-71.25
X106.709Y-73.026
X107.75Y-63.0
X148.775Y-47.01
T4
X152.0Y-41.527
X152.0Y-43.527
X152.693Y-69.527
X152.693Y-71.527
X156.493Y-85.766
X158.493Y-85.766
T5
X135.5Y-79.46
X135.5Y-82.0
T6
X118.88Y-41.75
X121.42Y-41.75
X122.45Y-67.285
X122.45Y-69.825
X123.96Y-41.75
X126.175Y-72.51
X126.5Y-41.75
X128.715Y-72.51
X136.1Y-66.25
X136.1Y-68.79
X136.1Y-71.33
X136.1Y-73.87
X148.5Y-54.25
X148.5Y-56.79
X148.5Y-59.33
X148.5Y-61.87
X148.5Y-67.725
X148.5Y-70.265
X155.21Y-47.475
X155.21Y-53.5
X155.21Y-59.475
X155.21Y-65.5
X157.75Y-47.475
X157.75Y-53.5
X157.75Y-59.475
X157.75Y-65.5
T7
X110.65Y-85.672
X110.65Y-88.672
X113.65Y-85.672
X113.65Y-88.672
X116.65Y-85.672
X116.65Y-88.672
X119.65Y-85.672
X119.65Y-88.672
X122.65Y-85.672
X122.65Y-88.672
X125.65Y-85.672
X125.65Y-88.672
X128.65Y-85.672
X128.65Y-88.672
X131.65Y-85.672
X131.65Y-88.672
X141.0Y-85.68
X141.0Y-88.68
X144.0Y-85.68
X144.0Y-88.68
X147.0Y-85.68
X147.0Y-88.68
X150.0Y-85.68
X150.0Y-88.68
T8
X93.0Y-43.0
X93.0Y-96.0
X157.0Y-43.0
X157.0Y-96.0
M30
