%TF.GenerationSoftware,KiCad,Pcbnew,9.0.3*%
%TF.CreationDate,2025-07-23T10:37:13+02:00*%
%TF.ProjectId,DinoSpand_v2.0,44696e6f-5370-4616-9e64-5f76322e302e,rev?*%
%TF.SameCoordinates,Original*%
%TF.FileFunction,Legend,Top*%
%TF.FilePolarity,Positive*%
%FSLAX46Y46*%
G04 Gerber Fmt 4.6, Leading zero omitted, Abs format (unit mm)*
G04 Created by KiCad (PCBNEW 9.0.3) date 2025-07-23 10:37:13*
%MOMM*%
%LPD*%
G01*
G04 APERTURE LIST*
%ADD10C,0.100000*%
%ADD11C,0.200000*%
%ADD12C,0.300000*%
%ADD13C,0.211000*%
%ADD14C,0.254000*%
%ADD15C,0.150000*%
%ADD16C,0.120000*%
%ADD17C,0.127000*%
%ADD18C,0.400000*%
G04 APERTURE END LIST*
D10*
X130000000Y-43250000D02*
X130000000Y-40500000D01*
X157750000Y-45000000D02*
X157750000Y-46000000D01*
X133500000Y-43250000D02*
X133500000Y-40500000D01*
X131750000Y-43250000D02*
X131750000Y-40500000D01*
X157250000Y-63500000D02*
X158250000Y-63500000D01*
X157750000Y-51000000D02*
X157750000Y-52000000D01*
X157250000Y-51500000D02*
X158250000Y-51500000D01*
X157250000Y-57500000D02*
X158250000Y-57500000D01*
X157750000Y-63000000D02*
X157750000Y-64000000D01*
X157250000Y-45500000D02*
X158250000Y-45500000D01*
X157750000Y-57000000D02*
X157750000Y-58000000D01*
D11*
X138072054Y-66819600D02*
X138214911Y-66867219D01*
X138214911Y-66867219D02*
X138453006Y-66867219D01*
X138453006Y-66867219D02*
X138548244Y-66819600D01*
X138548244Y-66819600D02*
X138595863Y-66771980D01*
X138595863Y-66771980D02*
X138643482Y-66676742D01*
X138643482Y-66676742D02*
X138643482Y-66581504D01*
X138643482Y-66581504D02*
X138595863Y-66486266D01*
X138595863Y-66486266D02*
X138548244Y-66438647D01*
X138548244Y-66438647D02*
X138453006Y-66391028D01*
X138453006Y-66391028D02*
X138262530Y-66343409D01*
X138262530Y-66343409D02*
X138167292Y-66295790D01*
X138167292Y-66295790D02*
X138119673Y-66248171D01*
X138119673Y-66248171D02*
X138072054Y-66152933D01*
X138072054Y-66152933D02*
X138072054Y-66057695D01*
X138072054Y-66057695D02*
X138119673Y-65962457D01*
X138119673Y-65962457D02*
X138167292Y-65914838D01*
X138167292Y-65914838D02*
X138262530Y-65867219D01*
X138262530Y-65867219D02*
X138500625Y-65867219D01*
X138500625Y-65867219D02*
X138643482Y-65914838D01*
X139072054Y-66867219D02*
X139072054Y-65867219D01*
X139072054Y-65867219D02*
X139310149Y-65867219D01*
X139310149Y-65867219D02*
X139453006Y-65914838D01*
X139453006Y-65914838D02*
X139548244Y-66010076D01*
X139548244Y-66010076D02*
X139595863Y-66105314D01*
X139595863Y-66105314D02*
X139643482Y-66295790D01*
X139643482Y-66295790D02*
X139643482Y-66438647D01*
X139643482Y-66438647D02*
X139595863Y-66629123D01*
X139595863Y-66629123D02*
X139548244Y-66724361D01*
X139548244Y-66724361D02*
X139453006Y-66819600D01*
X139453006Y-66819600D02*
X139310149Y-66867219D01*
X139310149Y-66867219D02*
X139072054Y-66867219D01*
X140024435Y-66581504D02*
X140500625Y-66581504D01*
X139929197Y-66867219D02*
X140262530Y-65867219D01*
X140262530Y-65867219D02*
X140595863Y-66867219D01*
D12*
X112804510Y-82765114D02*
X113018796Y-82836542D01*
X113018796Y-82836542D02*
X113090225Y-82907971D01*
X113090225Y-82907971D02*
X113161653Y-83050828D01*
X113161653Y-83050828D02*
X113161653Y-83265114D01*
X113161653Y-83265114D02*
X113090225Y-83407971D01*
X113090225Y-83407971D02*
X113018796Y-83479400D01*
X113018796Y-83479400D02*
X112875939Y-83550828D01*
X112875939Y-83550828D02*
X112304510Y-83550828D01*
X112304510Y-83550828D02*
X112304510Y-82050828D01*
X112304510Y-82050828D02*
X112804510Y-82050828D01*
X112804510Y-82050828D02*
X112947368Y-82122257D01*
X112947368Y-82122257D02*
X113018796Y-82193685D01*
X113018796Y-82193685D02*
X113090225Y-82336542D01*
X113090225Y-82336542D02*
X113090225Y-82479400D01*
X113090225Y-82479400D02*
X113018796Y-82622257D01*
X113018796Y-82622257D02*
X112947368Y-82693685D01*
X112947368Y-82693685D02*
X112804510Y-82765114D01*
X112804510Y-82765114D02*
X112304510Y-82765114D01*
X114018796Y-83550828D02*
X113875939Y-83479400D01*
X113875939Y-83479400D02*
X113804510Y-83407971D01*
X113804510Y-83407971D02*
X113733082Y-83265114D01*
X113733082Y-83265114D02*
X113733082Y-82836542D01*
X113733082Y-82836542D02*
X113804510Y-82693685D01*
X113804510Y-82693685D02*
X113875939Y-82622257D01*
X113875939Y-82622257D02*
X114018796Y-82550828D01*
X114018796Y-82550828D02*
X114233082Y-82550828D01*
X114233082Y-82550828D02*
X114375939Y-82622257D01*
X114375939Y-82622257D02*
X114447368Y-82693685D01*
X114447368Y-82693685D02*
X114518796Y-82836542D01*
X114518796Y-82836542D02*
X114518796Y-83265114D01*
X114518796Y-83265114D02*
X114447368Y-83407971D01*
X114447368Y-83407971D02*
X114375939Y-83479400D01*
X114375939Y-83479400D02*
X114233082Y-83550828D01*
X114233082Y-83550828D02*
X114018796Y-83550828D01*
X115375939Y-83550828D02*
X115233082Y-83479400D01*
X115233082Y-83479400D02*
X115161653Y-83407971D01*
X115161653Y-83407971D02*
X115090225Y-83265114D01*
X115090225Y-83265114D02*
X115090225Y-82836542D01*
X115090225Y-82836542D02*
X115161653Y-82693685D01*
X115161653Y-82693685D02*
X115233082Y-82622257D01*
X115233082Y-82622257D02*
X115375939Y-82550828D01*
X115375939Y-82550828D02*
X115590225Y-82550828D01*
X115590225Y-82550828D02*
X115733082Y-82622257D01*
X115733082Y-82622257D02*
X115804511Y-82693685D01*
X115804511Y-82693685D02*
X115875939Y-82836542D01*
X115875939Y-82836542D02*
X115875939Y-83265114D01*
X115875939Y-83265114D02*
X115804511Y-83407971D01*
X115804511Y-83407971D02*
X115733082Y-83479400D01*
X115733082Y-83479400D02*
X115590225Y-83550828D01*
X115590225Y-83550828D02*
X115375939Y-83550828D01*
X116304511Y-82550828D02*
X116875939Y-82550828D01*
X116518796Y-82050828D02*
X116518796Y-83336542D01*
X116518796Y-83336542D02*
X116590225Y-83479400D01*
X116590225Y-83479400D02*
X116733082Y-83550828D01*
X116733082Y-83550828D02*
X116875939Y-83550828D01*
D11*
X133117219Y-43130326D02*
X132117219Y-43130326D01*
X132117219Y-43130326D02*
X132117219Y-42892231D01*
X132117219Y-42892231D02*
X132164838Y-42749374D01*
X132164838Y-42749374D02*
X132260076Y-42654136D01*
X132260076Y-42654136D02*
X132355314Y-42606517D01*
X132355314Y-42606517D02*
X132545790Y-42558898D01*
X132545790Y-42558898D02*
X132688647Y-42558898D01*
X132688647Y-42558898D02*
X132879123Y-42606517D01*
X132879123Y-42606517D02*
X132974361Y-42654136D01*
X132974361Y-42654136D02*
X133069600Y-42749374D01*
X133069600Y-42749374D02*
X133117219Y-42892231D01*
X133117219Y-42892231D02*
X133117219Y-43130326D01*
X132736266Y-42130326D02*
X132736266Y-41368422D01*
X131367219Y-43130326D02*
X130367219Y-43130326D01*
X130367219Y-43130326D02*
X130367219Y-42892231D01*
X130367219Y-42892231D02*
X130414838Y-42749374D01*
X130414838Y-42749374D02*
X130510076Y-42654136D01*
X130510076Y-42654136D02*
X130605314Y-42606517D01*
X130605314Y-42606517D02*
X130795790Y-42558898D01*
X130795790Y-42558898D02*
X130938647Y-42558898D01*
X130938647Y-42558898D02*
X131129123Y-42606517D01*
X131129123Y-42606517D02*
X131224361Y-42654136D01*
X131224361Y-42654136D02*
X131319600Y-42749374D01*
X131319600Y-42749374D02*
X131367219Y-42892231D01*
X131367219Y-42892231D02*
X131367219Y-43130326D01*
X130986266Y-42130326D02*
X130986266Y-41368422D01*
X131367219Y-41749374D02*
X130605314Y-41749374D01*
X133867219Y-43225564D02*
X133867219Y-42606517D01*
X133867219Y-42606517D02*
X134248171Y-42939850D01*
X134248171Y-42939850D02*
X134248171Y-42796993D01*
X134248171Y-42796993D02*
X134295790Y-42701755D01*
X134295790Y-42701755D02*
X134343409Y-42654136D01*
X134343409Y-42654136D02*
X134438647Y-42606517D01*
X134438647Y-42606517D02*
X134676742Y-42606517D01*
X134676742Y-42606517D02*
X134771980Y-42654136D01*
X134771980Y-42654136D02*
X134819600Y-42701755D01*
X134819600Y-42701755D02*
X134867219Y-42796993D01*
X134867219Y-42796993D02*
X134867219Y-43082707D01*
X134867219Y-43082707D02*
X134819600Y-43177945D01*
X134819600Y-43177945D02*
X134771980Y-43225564D01*
X133867219Y-42320802D02*
X134867219Y-41987469D01*
X134867219Y-41987469D02*
X133867219Y-41654136D01*
X133867219Y-41416040D02*
X133867219Y-40796993D01*
X133867219Y-40796993D02*
X134248171Y-41130326D01*
X134248171Y-41130326D02*
X134248171Y-40987469D01*
X134248171Y-40987469D02*
X134295790Y-40892231D01*
X134295790Y-40892231D02*
X134343409Y-40844612D01*
X134343409Y-40844612D02*
X134438647Y-40796993D01*
X134438647Y-40796993D02*
X134676742Y-40796993D01*
X134676742Y-40796993D02*
X134771980Y-40844612D01*
X134771980Y-40844612D02*
X134819600Y-40892231D01*
X134819600Y-40892231D02*
X134867219Y-40987469D01*
X134867219Y-40987469D02*
X134867219Y-41273183D01*
X134867219Y-41273183D02*
X134819600Y-41368421D01*
X134819600Y-41368421D02*
X134771980Y-41416040D01*
X145943482Y-68292219D02*
X145372054Y-68292219D01*
X145657768Y-68292219D02*
X145657768Y-67292219D01*
X145657768Y-67292219D02*
X145562530Y-67435076D01*
X145562530Y-67435076D02*
X145467292Y-67530314D01*
X145467292Y-67530314D02*
X145372054Y-67577933D01*
X146276816Y-67292219D02*
X146943482Y-67292219D01*
X146943482Y-67292219D02*
X146514911Y-68292219D01*
X144324435Y-53842219D02*
X144943482Y-53842219D01*
X144943482Y-53842219D02*
X144610149Y-54223171D01*
X144610149Y-54223171D02*
X144753006Y-54223171D01*
X144753006Y-54223171D02*
X144848244Y-54270790D01*
X144848244Y-54270790D02*
X144895863Y-54318409D01*
X144895863Y-54318409D02*
X144943482Y-54413647D01*
X144943482Y-54413647D02*
X144943482Y-54651742D01*
X144943482Y-54651742D02*
X144895863Y-54746980D01*
X144895863Y-54746980D02*
X144848244Y-54794600D01*
X144848244Y-54794600D02*
X144753006Y-54842219D01*
X144753006Y-54842219D02*
X144467292Y-54842219D01*
X144467292Y-54842219D02*
X144372054Y-54794600D01*
X144372054Y-54794600D02*
X144324435Y-54746980D01*
X145229197Y-53842219D02*
X145562530Y-54842219D01*
X145562530Y-54842219D02*
X145895863Y-53842219D01*
X146133959Y-53842219D02*
X146753006Y-53842219D01*
X146753006Y-53842219D02*
X146419673Y-54223171D01*
X146419673Y-54223171D02*
X146562530Y-54223171D01*
X146562530Y-54223171D02*
X146657768Y-54270790D01*
X146657768Y-54270790D02*
X146705387Y-54318409D01*
X146705387Y-54318409D02*
X146753006Y-54413647D01*
X146753006Y-54413647D02*
X146753006Y-54651742D01*
X146753006Y-54651742D02*
X146705387Y-54746980D01*
X146705387Y-54746980D02*
X146657768Y-54794600D01*
X146657768Y-54794600D02*
X146562530Y-54842219D01*
X146562530Y-54842219D02*
X146276816Y-54842219D01*
X146276816Y-54842219D02*
X146181578Y-54794600D01*
X146181578Y-54794600D02*
X146133959Y-54746980D01*
X144372054Y-59794600D02*
X144514911Y-59842219D01*
X144514911Y-59842219D02*
X144753006Y-59842219D01*
X144753006Y-59842219D02*
X144848244Y-59794600D01*
X144848244Y-59794600D02*
X144895863Y-59746980D01*
X144895863Y-59746980D02*
X144943482Y-59651742D01*
X144943482Y-59651742D02*
X144943482Y-59556504D01*
X144943482Y-59556504D02*
X144895863Y-59461266D01*
X144895863Y-59461266D02*
X144848244Y-59413647D01*
X144848244Y-59413647D02*
X144753006Y-59366028D01*
X144753006Y-59366028D02*
X144562530Y-59318409D01*
X144562530Y-59318409D02*
X144467292Y-59270790D01*
X144467292Y-59270790D02*
X144419673Y-59223171D01*
X144419673Y-59223171D02*
X144372054Y-59127933D01*
X144372054Y-59127933D02*
X144372054Y-59032695D01*
X144372054Y-59032695D02*
X144419673Y-58937457D01*
X144419673Y-58937457D02*
X144467292Y-58889838D01*
X144467292Y-58889838D02*
X144562530Y-58842219D01*
X144562530Y-58842219D02*
X144800625Y-58842219D01*
X144800625Y-58842219D02*
X144943482Y-58889838D01*
X145372054Y-59842219D02*
X145372054Y-58842219D01*
X145372054Y-58842219D02*
X145610149Y-58842219D01*
X145610149Y-58842219D02*
X145753006Y-58889838D01*
X145753006Y-58889838D02*
X145848244Y-58985076D01*
X145848244Y-58985076D02*
X145895863Y-59080314D01*
X145895863Y-59080314D02*
X145943482Y-59270790D01*
X145943482Y-59270790D02*
X145943482Y-59413647D01*
X145943482Y-59413647D02*
X145895863Y-59604123D01*
X145895863Y-59604123D02*
X145848244Y-59699361D01*
X145848244Y-59699361D02*
X145753006Y-59794600D01*
X145753006Y-59794600D02*
X145610149Y-59842219D01*
X145610149Y-59842219D02*
X145372054Y-59842219D01*
X146324435Y-59556504D02*
X146800625Y-59556504D01*
X146229197Y-59842219D02*
X146562530Y-58842219D01*
X146562530Y-58842219D02*
X146895863Y-59842219D01*
X145943482Y-71042219D02*
X145372054Y-71042219D01*
X145657768Y-71042219D02*
X145657768Y-70042219D01*
X145657768Y-70042219D02*
X145562530Y-70185076D01*
X145562530Y-70185076D02*
X145467292Y-70280314D01*
X145467292Y-70280314D02*
X145372054Y-70327933D01*
X146514911Y-70470790D02*
X146419673Y-70423171D01*
X146419673Y-70423171D02*
X146372054Y-70375552D01*
X146372054Y-70375552D02*
X146324435Y-70280314D01*
X146324435Y-70280314D02*
X146324435Y-70232695D01*
X146324435Y-70232695D02*
X146372054Y-70137457D01*
X146372054Y-70137457D02*
X146419673Y-70089838D01*
X146419673Y-70089838D02*
X146514911Y-70042219D01*
X146514911Y-70042219D02*
X146705387Y-70042219D01*
X146705387Y-70042219D02*
X146800625Y-70089838D01*
X146800625Y-70089838D02*
X146848244Y-70137457D01*
X146848244Y-70137457D02*
X146895863Y-70232695D01*
X146895863Y-70232695D02*
X146895863Y-70280314D01*
X146895863Y-70280314D02*
X146848244Y-70375552D01*
X146848244Y-70375552D02*
X146800625Y-70423171D01*
X146800625Y-70423171D02*
X146705387Y-70470790D01*
X146705387Y-70470790D02*
X146514911Y-70470790D01*
X146514911Y-70470790D02*
X146419673Y-70518409D01*
X146419673Y-70518409D02*
X146372054Y-70566028D01*
X146372054Y-70566028D02*
X146324435Y-70661266D01*
X146324435Y-70661266D02*
X146324435Y-70851742D01*
X146324435Y-70851742D02*
X146372054Y-70946980D01*
X146372054Y-70946980D02*
X146419673Y-70994600D01*
X146419673Y-70994600D02*
X146514911Y-71042219D01*
X146514911Y-71042219D02*
X146705387Y-71042219D01*
X146705387Y-71042219D02*
X146800625Y-70994600D01*
X146800625Y-70994600D02*
X146848244Y-70946980D01*
X146848244Y-70946980D02*
X146895863Y-70851742D01*
X146895863Y-70851742D02*
X146895863Y-70661266D01*
X146895863Y-70661266D02*
X146848244Y-70566028D01*
X146848244Y-70566028D02*
X146800625Y-70518409D01*
X146800625Y-70518409D02*
X146705387Y-70470790D01*
X138072054Y-69319600D02*
X138214911Y-69367219D01*
X138214911Y-69367219D02*
X138453006Y-69367219D01*
X138453006Y-69367219D02*
X138548244Y-69319600D01*
X138548244Y-69319600D02*
X138595863Y-69271980D01*
X138595863Y-69271980D02*
X138643482Y-69176742D01*
X138643482Y-69176742D02*
X138643482Y-69081504D01*
X138643482Y-69081504D02*
X138595863Y-68986266D01*
X138595863Y-68986266D02*
X138548244Y-68938647D01*
X138548244Y-68938647D02*
X138453006Y-68891028D01*
X138453006Y-68891028D02*
X138262530Y-68843409D01*
X138262530Y-68843409D02*
X138167292Y-68795790D01*
X138167292Y-68795790D02*
X138119673Y-68748171D01*
X138119673Y-68748171D02*
X138072054Y-68652933D01*
X138072054Y-68652933D02*
X138072054Y-68557695D01*
X138072054Y-68557695D02*
X138119673Y-68462457D01*
X138119673Y-68462457D02*
X138167292Y-68414838D01*
X138167292Y-68414838D02*
X138262530Y-68367219D01*
X138262530Y-68367219D02*
X138500625Y-68367219D01*
X138500625Y-68367219D02*
X138643482Y-68414838D01*
X139643482Y-69271980D02*
X139595863Y-69319600D01*
X139595863Y-69319600D02*
X139453006Y-69367219D01*
X139453006Y-69367219D02*
X139357768Y-69367219D01*
X139357768Y-69367219D02*
X139214911Y-69319600D01*
X139214911Y-69319600D02*
X139119673Y-69224361D01*
X139119673Y-69224361D02*
X139072054Y-69129123D01*
X139072054Y-69129123D02*
X139024435Y-68938647D01*
X139024435Y-68938647D02*
X139024435Y-68795790D01*
X139024435Y-68795790D02*
X139072054Y-68605314D01*
X139072054Y-68605314D02*
X139119673Y-68510076D01*
X139119673Y-68510076D02*
X139214911Y-68414838D01*
X139214911Y-68414838D02*
X139357768Y-68367219D01*
X139357768Y-68367219D02*
X139453006Y-68367219D01*
X139453006Y-68367219D02*
X139595863Y-68414838D01*
X139595863Y-68414838D02*
X139643482Y-68462457D01*
X140548244Y-69367219D02*
X140072054Y-69367219D01*
X140072054Y-69367219D02*
X140072054Y-68367219D01*
X128664838Y-42606517D02*
X128617219Y-42701755D01*
X128617219Y-42701755D02*
X128617219Y-42844612D01*
X128617219Y-42844612D02*
X128664838Y-42987469D01*
X128664838Y-42987469D02*
X128760076Y-43082707D01*
X128760076Y-43082707D02*
X128855314Y-43130326D01*
X128855314Y-43130326D02*
X129045790Y-43177945D01*
X129045790Y-43177945D02*
X129188647Y-43177945D01*
X129188647Y-43177945D02*
X129379123Y-43130326D01*
X129379123Y-43130326D02*
X129474361Y-43082707D01*
X129474361Y-43082707D02*
X129569600Y-42987469D01*
X129569600Y-42987469D02*
X129617219Y-42844612D01*
X129617219Y-42844612D02*
X129617219Y-42749374D01*
X129617219Y-42749374D02*
X129569600Y-42606517D01*
X129569600Y-42606517D02*
X129521980Y-42558898D01*
X129521980Y-42558898D02*
X129188647Y-42558898D01*
X129188647Y-42558898D02*
X129188647Y-42749374D01*
X129617219Y-42130326D02*
X128617219Y-42130326D01*
X128617219Y-42130326D02*
X129617219Y-41558898D01*
X129617219Y-41558898D02*
X128617219Y-41558898D01*
X129617219Y-41082707D02*
X128617219Y-41082707D01*
X128617219Y-41082707D02*
X128617219Y-40844612D01*
X128617219Y-40844612D02*
X128664838Y-40701755D01*
X128664838Y-40701755D02*
X128760076Y-40606517D01*
X128760076Y-40606517D02*
X128855314Y-40558898D01*
X128855314Y-40558898D02*
X129045790Y-40511279D01*
X129045790Y-40511279D02*
X129188647Y-40511279D01*
X129188647Y-40511279D02*
X129379123Y-40558898D01*
X129379123Y-40558898D02*
X129474361Y-40606517D01*
X129474361Y-40606517D02*
X129569600Y-40701755D01*
X129569600Y-40701755D02*
X129617219Y-40844612D01*
X129617219Y-40844612D02*
X129617219Y-41082707D01*
X144943482Y-61389838D02*
X144848244Y-61342219D01*
X144848244Y-61342219D02*
X144705387Y-61342219D01*
X144705387Y-61342219D02*
X144562530Y-61389838D01*
X144562530Y-61389838D02*
X144467292Y-61485076D01*
X144467292Y-61485076D02*
X144419673Y-61580314D01*
X144419673Y-61580314D02*
X144372054Y-61770790D01*
X144372054Y-61770790D02*
X144372054Y-61913647D01*
X144372054Y-61913647D02*
X144419673Y-62104123D01*
X144419673Y-62104123D02*
X144467292Y-62199361D01*
X144467292Y-62199361D02*
X144562530Y-62294600D01*
X144562530Y-62294600D02*
X144705387Y-62342219D01*
X144705387Y-62342219D02*
X144800625Y-62342219D01*
X144800625Y-62342219D02*
X144943482Y-62294600D01*
X144943482Y-62294600D02*
X144991101Y-62246980D01*
X144991101Y-62246980D02*
X144991101Y-61913647D01*
X144991101Y-61913647D02*
X144800625Y-61913647D01*
X145419673Y-62342219D02*
X145419673Y-61342219D01*
X145419673Y-61342219D02*
X145991101Y-62342219D01*
X145991101Y-62342219D02*
X145991101Y-61342219D01*
X146467292Y-62342219D02*
X146467292Y-61342219D01*
X146467292Y-61342219D02*
X146705387Y-61342219D01*
X146705387Y-61342219D02*
X146848244Y-61389838D01*
X146848244Y-61389838D02*
X146943482Y-61485076D01*
X146943482Y-61485076D02*
X146991101Y-61580314D01*
X146991101Y-61580314D02*
X147038720Y-61770790D01*
X147038720Y-61770790D02*
X147038720Y-61913647D01*
X147038720Y-61913647D02*
X146991101Y-62104123D01*
X146991101Y-62104123D02*
X146943482Y-62199361D01*
X146943482Y-62199361D02*
X146848244Y-62294600D01*
X146848244Y-62294600D02*
X146705387Y-62342219D01*
X146705387Y-62342219D02*
X146467292Y-62342219D01*
X138643482Y-73414838D02*
X138548244Y-73367219D01*
X138548244Y-73367219D02*
X138405387Y-73367219D01*
X138405387Y-73367219D02*
X138262530Y-73414838D01*
X138262530Y-73414838D02*
X138167292Y-73510076D01*
X138167292Y-73510076D02*
X138119673Y-73605314D01*
X138119673Y-73605314D02*
X138072054Y-73795790D01*
X138072054Y-73795790D02*
X138072054Y-73938647D01*
X138072054Y-73938647D02*
X138119673Y-74129123D01*
X138119673Y-74129123D02*
X138167292Y-74224361D01*
X138167292Y-74224361D02*
X138262530Y-74319600D01*
X138262530Y-74319600D02*
X138405387Y-74367219D01*
X138405387Y-74367219D02*
X138500625Y-74367219D01*
X138500625Y-74367219D02*
X138643482Y-74319600D01*
X138643482Y-74319600D02*
X138691101Y-74271980D01*
X138691101Y-74271980D02*
X138691101Y-73938647D01*
X138691101Y-73938647D02*
X138500625Y-73938647D01*
X139119673Y-74367219D02*
X139119673Y-73367219D01*
X139119673Y-73367219D02*
X139691101Y-74367219D01*
X139691101Y-74367219D02*
X139691101Y-73367219D01*
X140167292Y-74367219D02*
X140167292Y-73367219D01*
X140167292Y-73367219D02*
X140405387Y-73367219D01*
X140405387Y-73367219D02*
X140548244Y-73414838D01*
X140548244Y-73414838D02*
X140643482Y-73510076D01*
X140643482Y-73510076D02*
X140691101Y-73605314D01*
X140691101Y-73605314D02*
X140738720Y-73795790D01*
X140738720Y-73795790D02*
X140738720Y-73938647D01*
X140738720Y-73938647D02*
X140691101Y-74129123D01*
X140691101Y-74129123D02*
X140643482Y-74224361D01*
X140643482Y-74224361D02*
X140548244Y-74319600D01*
X140548244Y-74319600D02*
X140405387Y-74367219D01*
X140405387Y-74367219D02*
X140167292Y-74367219D01*
X144372054Y-57294600D02*
X144514911Y-57342219D01*
X144514911Y-57342219D02*
X144753006Y-57342219D01*
X144753006Y-57342219D02*
X144848244Y-57294600D01*
X144848244Y-57294600D02*
X144895863Y-57246980D01*
X144895863Y-57246980D02*
X144943482Y-57151742D01*
X144943482Y-57151742D02*
X144943482Y-57056504D01*
X144943482Y-57056504D02*
X144895863Y-56961266D01*
X144895863Y-56961266D02*
X144848244Y-56913647D01*
X144848244Y-56913647D02*
X144753006Y-56866028D01*
X144753006Y-56866028D02*
X144562530Y-56818409D01*
X144562530Y-56818409D02*
X144467292Y-56770790D01*
X144467292Y-56770790D02*
X144419673Y-56723171D01*
X144419673Y-56723171D02*
X144372054Y-56627933D01*
X144372054Y-56627933D02*
X144372054Y-56532695D01*
X144372054Y-56532695D02*
X144419673Y-56437457D01*
X144419673Y-56437457D02*
X144467292Y-56389838D01*
X144467292Y-56389838D02*
X144562530Y-56342219D01*
X144562530Y-56342219D02*
X144800625Y-56342219D01*
X144800625Y-56342219D02*
X144943482Y-56389838D01*
X145943482Y-57246980D02*
X145895863Y-57294600D01*
X145895863Y-57294600D02*
X145753006Y-57342219D01*
X145753006Y-57342219D02*
X145657768Y-57342219D01*
X145657768Y-57342219D02*
X145514911Y-57294600D01*
X145514911Y-57294600D02*
X145419673Y-57199361D01*
X145419673Y-57199361D02*
X145372054Y-57104123D01*
X145372054Y-57104123D02*
X145324435Y-56913647D01*
X145324435Y-56913647D02*
X145324435Y-56770790D01*
X145324435Y-56770790D02*
X145372054Y-56580314D01*
X145372054Y-56580314D02*
X145419673Y-56485076D01*
X145419673Y-56485076D02*
X145514911Y-56389838D01*
X145514911Y-56389838D02*
X145657768Y-56342219D01*
X145657768Y-56342219D02*
X145753006Y-56342219D01*
X145753006Y-56342219D02*
X145895863Y-56389838D01*
X145895863Y-56389838D02*
X145943482Y-56437457D01*
X146848244Y-57342219D02*
X146372054Y-57342219D01*
X146372054Y-57342219D02*
X146372054Y-56342219D01*
X138024435Y-70867219D02*
X138643482Y-70867219D01*
X138643482Y-70867219D02*
X138310149Y-71248171D01*
X138310149Y-71248171D02*
X138453006Y-71248171D01*
X138453006Y-71248171D02*
X138548244Y-71295790D01*
X138548244Y-71295790D02*
X138595863Y-71343409D01*
X138595863Y-71343409D02*
X138643482Y-71438647D01*
X138643482Y-71438647D02*
X138643482Y-71676742D01*
X138643482Y-71676742D02*
X138595863Y-71771980D01*
X138595863Y-71771980D02*
X138548244Y-71819600D01*
X138548244Y-71819600D02*
X138453006Y-71867219D01*
X138453006Y-71867219D02*
X138167292Y-71867219D01*
X138167292Y-71867219D02*
X138072054Y-71819600D01*
X138072054Y-71819600D02*
X138024435Y-71771980D01*
X138929197Y-70867219D02*
X139262530Y-71867219D01*
X139262530Y-71867219D02*
X139595863Y-70867219D01*
X139833959Y-70867219D02*
X140453006Y-70867219D01*
X140453006Y-70867219D02*
X140119673Y-71248171D01*
X140119673Y-71248171D02*
X140262530Y-71248171D01*
X140262530Y-71248171D02*
X140357768Y-71295790D01*
X140357768Y-71295790D02*
X140405387Y-71343409D01*
X140405387Y-71343409D02*
X140453006Y-71438647D01*
X140453006Y-71438647D02*
X140453006Y-71676742D01*
X140453006Y-71676742D02*
X140405387Y-71771980D01*
X140405387Y-71771980D02*
X140357768Y-71819600D01*
X140357768Y-71819600D02*
X140262530Y-71867219D01*
X140262530Y-71867219D02*
X139976816Y-71867219D01*
X139976816Y-71867219D02*
X139881578Y-71819600D01*
X139881578Y-71819600D02*
X139833959Y-71771980D01*
D12*
X124911653Y-83550828D02*
X124411653Y-82836542D01*
X124054510Y-83550828D02*
X124054510Y-82050828D01*
X124054510Y-82050828D02*
X124625939Y-82050828D01*
X124625939Y-82050828D02*
X124768796Y-82122257D01*
X124768796Y-82122257D02*
X124840225Y-82193685D01*
X124840225Y-82193685D02*
X124911653Y-82336542D01*
X124911653Y-82336542D02*
X124911653Y-82550828D01*
X124911653Y-82550828D02*
X124840225Y-82693685D01*
X124840225Y-82693685D02*
X124768796Y-82765114D01*
X124768796Y-82765114D02*
X124625939Y-82836542D01*
X124625939Y-82836542D02*
X124054510Y-82836542D01*
X126125939Y-83479400D02*
X125983082Y-83550828D01*
X125983082Y-83550828D02*
X125697368Y-83550828D01*
X125697368Y-83550828D02*
X125554510Y-83479400D01*
X125554510Y-83479400D02*
X125483082Y-83336542D01*
X125483082Y-83336542D02*
X125483082Y-82765114D01*
X125483082Y-82765114D02*
X125554510Y-82622257D01*
X125554510Y-82622257D02*
X125697368Y-82550828D01*
X125697368Y-82550828D02*
X125983082Y-82550828D01*
X125983082Y-82550828D02*
X126125939Y-82622257D01*
X126125939Y-82622257D02*
X126197368Y-82765114D01*
X126197368Y-82765114D02*
X126197368Y-82907971D01*
X126197368Y-82907971D02*
X125483082Y-83050828D01*
X126768796Y-83479400D02*
X126911653Y-83550828D01*
X126911653Y-83550828D02*
X127197367Y-83550828D01*
X127197367Y-83550828D02*
X127340224Y-83479400D01*
X127340224Y-83479400D02*
X127411653Y-83336542D01*
X127411653Y-83336542D02*
X127411653Y-83265114D01*
X127411653Y-83265114D02*
X127340224Y-83122257D01*
X127340224Y-83122257D02*
X127197367Y-83050828D01*
X127197367Y-83050828D02*
X126983082Y-83050828D01*
X126983082Y-83050828D02*
X126840224Y-82979400D01*
X126840224Y-82979400D02*
X126768796Y-82836542D01*
X126768796Y-82836542D02*
X126768796Y-82765114D01*
X126768796Y-82765114D02*
X126840224Y-82622257D01*
X126840224Y-82622257D02*
X126983082Y-82550828D01*
X126983082Y-82550828D02*
X127197367Y-82550828D01*
X127197367Y-82550828D02*
X127340224Y-82622257D01*
X128625939Y-83479400D02*
X128483082Y-83550828D01*
X128483082Y-83550828D02*
X128197368Y-83550828D01*
X128197368Y-83550828D02*
X128054510Y-83479400D01*
X128054510Y-83479400D02*
X127983082Y-83336542D01*
X127983082Y-83336542D02*
X127983082Y-82765114D01*
X127983082Y-82765114D02*
X128054510Y-82622257D01*
X128054510Y-82622257D02*
X128197368Y-82550828D01*
X128197368Y-82550828D02*
X128483082Y-82550828D01*
X128483082Y-82550828D02*
X128625939Y-82622257D01*
X128625939Y-82622257D02*
X128697368Y-82765114D01*
X128697368Y-82765114D02*
X128697368Y-82907971D01*
X128697368Y-82907971D02*
X127983082Y-83050828D01*
X129125939Y-82550828D02*
X129697367Y-82550828D01*
X129340224Y-82050828D02*
X129340224Y-83336542D01*
X129340224Y-83336542D02*
X129411653Y-83479400D01*
X129411653Y-83479400D02*
X129554510Y-83550828D01*
X129554510Y-83550828D02*
X129697367Y-83550828D01*
D13*
X143272814Y-78379987D02*
X143272814Y-78379978D01*
X149494846Y-80488625D02*
G75*
G02*
X145020894Y-80488625I-2236976J0D01*
G01*
X145020894Y-80488625D02*
G75*
G02*
X149494846Y-80488625I2236976J0D01*
G01*
X145559576Y-77928811D02*
G75*
G02*
X149634529Y-78691718I1698298J-2193124D01*
G01*
X145376397Y-77691227D02*
G75*
G02*
X149911457Y-78570595I1881477J-2430628D01*
G01*
X149911458Y-78570594D02*
G75*
G02*
X149634514Y-78691726I-139944J-57201D01*
G01*
X145484484Y-74580627D02*
G75*
G02*
X147079943Y-74722015I214530J-6651668D01*
G01*
X146637560Y-75082101D02*
G75*
G02*
X146757314Y-74964283I97954J20206D01*
G01*
X146977926Y-76732144D02*
G75*
G02*
X146684121Y-76792795I-152512J-3151D01*
G01*
X146310304Y-74980587D02*
X146684121Y-76792795D01*
X146219697Y-74897950D02*
G75*
G02*
X146310297Y-74980588I-8083J-99845D01*
G01*
X145501066Y-74881184D02*
G75*
G02*
X146219697Y-74897946I211348J-6352011D01*
G01*
X145501066Y-74881184D02*
G75*
G02*
X145484486Y-74580639I11948J151389D01*
G01*
X143191564Y-74994684D02*
G75*
G02*
X144965420Y-74597194I2330950J-6245411D01*
G01*
X145124813Y-74716120D02*
G75*
G02*
X145128081Y-74753342I-156299J-32475D01*
G01*
X145128085Y-74753342D02*
G75*
G02*
X144990259Y-74898440I-149971J4447D01*
G01*
X144962755Y-78738015D02*
G75*
G02*
X144665823Y-78695131I-144541J48620D01*
G01*
X144378824Y-75068012D02*
G75*
G02*
X144665835Y-78695130I-7855240J-2446493D01*
G01*
X144263848Y-74999668D02*
G75*
G02*
X144378818Y-75068014I19466J-98127D01*
G01*
X143294594Y-75273756D02*
G75*
G02*
X144263847Y-74999664I2208520J-5959039D01*
G01*
X143244499Y-75657809D02*
G75*
G02*
X144081944Y-75451618I1958515J-6150786D01*
G01*
X143014667Y-79776398D02*
G75*
G02*
X143144359Y-75764878I9517607J1700153D01*
G01*
X143162314Y-79900020D02*
G75*
G02*
X143014713Y-79776390I0J149925D01*
G01*
X144125953Y-79600020D02*
G75*
G02*
X144125684Y-79900021I-28639J-149975D01*
G01*
X143374014Y-79600020D02*
X144125953Y-79600020D01*
X143374014Y-79600020D02*
G75*
G02*
X143275264Y-79515373I0J99925D01*
G01*
X143275207Y-79515382D02*
G75*
G02*
X143172898Y-78484334I9257307J1439187D01*
G01*
X143172900Y-78484334D02*
G75*
G02*
X143272814Y-78379987I99914J4339D01*
G01*
X143264514Y-78079978D02*
X143968038Y-78079978D01*
X143264514Y-78079978D02*
G75*
G02*
X143164537Y-77978939I0J99983D01*
G01*
X143164513Y-77978939D02*
G75*
G02*
X143402570Y-75975511I9367701J-97256D01*
G01*
X143471908Y-75901974D02*
G75*
G02*
X144134254Y-75747017I1731206J-5906821D01*
G01*
X144081944Y-75451619D02*
G75*
G02*
X144134240Y-75746982I-930J-152476D01*
G01*
X139856905Y-78220828D02*
X140631696Y-77742958D01*
X139456345Y-77940605D02*
X139856905Y-78220828D01*
X139456345Y-77940605D02*
G75*
G02*
X140631690Y-77630861I3227069J-9860490D01*
G01*
X141334510Y-78878825D02*
G75*
G02*
X141412220Y-78576889I100004J135230D01*
G01*
X142091045Y-78710752D02*
X141832746Y-78784432D01*
X141846553Y-77058551D02*
G75*
G02*
X142046808Y-77088648I34961J-448644D01*
G01*
X138700319Y-77932215D02*
G75*
G02*
X138956681Y-77690972I411995J-180980D01*
G01*
X138578962Y-78984008D02*
G75*
G02*
X138700338Y-77932223I1766752J329013D01*
G01*
X138876199Y-78919555D02*
G75*
G02*
X138578892Y-78984035I-153685J-9040D01*
G01*
X138876199Y-78919555D02*
G75*
G02*
X139004119Y-78248215I1115215J135360D01*
G01*
X139004137Y-78248225D02*
G75*
G02*
X139148500Y-78213408I87877J-47670D01*
G01*
X140579221Y-78245286D02*
X139843077Y-78699320D01*
X141031750Y-78860338D02*
G75*
G02*
X140731710Y-78801246I-147736J41143D01*
G01*
X141031688Y-77585802D02*
X141031750Y-78860338D01*
X141031688Y-77585802D02*
G75*
G02*
X141159815Y-77437376I150026J7D01*
G01*
X141828461Y-77361476D02*
X141159815Y-77437376D01*
X141828461Y-77361476D02*
G75*
G02*
X141971515Y-77382817I36253J-247119D01*
G01*
X141971516Y-77382814D02*
G75*
G02*
X141979798Y-78431481I-248792J-526331D01*
G01*
X140892498Y-81077399D02*
G75*
G02*
X138936670Y-81077399I-977914J0D01*
G01*
X138936670Y-81077399D02*
G75*
G02*
X140892498Y-81077399I977914J0D01*
G01*
X141573465Y-81077399D02*
G75*
G02*
X138255703Y-81077399I-1658881J0D01*
G01*
X138255703Y-81077399D02*
G75*
G02*
X141573465Y-81077399I1658881J0D01*
G01*
X140492498Y-81077399D02*
G75*
G02*
X139336670Y-81077399I-577914J0D01*
G01*
X139336670Y-81077399D02*
G75*
G02*
X140492498Y-81077399I577914J0D01*
G01*
X148218815Y-80488625D02*
G75*
G02*
X146296925Y-80488625I-960945J0D01*
G01*
X146296925Y-80488625D02*
G75*
G02*
X148218815Y-80488625I960945J0D01*
G01*
X149894846Y-80488625D02*
G75*
G02*
X144620894Y-80488625I-2636976J0D01*
G01*
X144620894Y-80488625D02*
G75*
G02*
X149894846Y-80488625I2636976J0D01*
G01*
X147079944Y-74722011D02*
G75*
G02*
X147022192Y-75014115I-38830J-144084D01*
G01*
X145559576Y-77928811D02*
G75*
G02*
X145376352Y-77691191I-63462J140516D01*
G01*
X146757314Y-74964282D02*
X147022192Y-75014115D01*
X144125684Y-79900020D02*
X143162314Y-79900020D01*
X144263848Y-74999668D02*
X144081944Y-75451619D01*
X143294594Y-75273756D02*
G75*
G02*
X143191550Y-74994663I-18980J151561D01*
G01*
X144686562Y-75048261D02*
G75*
G02*
X144962754Y-78738015I-8162998J-2466244D01*
G01*
X140631696Y-77742958D02*
X140631690Y-77630860D01*
X144686562Y-75048261D02*
G75*
G02*
X144773757Y-74919712I95652J28966D01*
G01*
X141711673Y-78818967D02*
G75*
G02*
X142510557Y-80673256I-1964559J-1945628D01*
G01*
X144965419Y-74597184D02*
G75*
G02*
X145124798Y-74716123I12495J-149511D01*
G01*
X140731710Y-78801246D02*
X140731710Y-78330395D01*
X143144359Y-75764878D02*
G75*
G02*
X143244489Y-75657777I145655J-35817D01*
G01*
X141979800Y-78431486D02*
G75*
G02*
X141412230Y-78576967I-1444886J4457091D01*
G01*
X142046804Y-77088659D02*
G75*
G02*
X141832746Y-78784430I-324090J-820486D01*
G01*
X143402579Y-75975513D02*
G75*
G02*
X143471903Y-75901956I97435J-22382D01*
G01*
X146977926Y-76732144D02*
X146637560Y-75082101D01*
X139843077Y-78699320D02*
X139148500Y-78213408D01*
X138956679Y-77690966D02*
G75*
G02*
X141846552Y-77058542I3726235J-10108229D01*
G01*
X148618815Y-80488625D02*
G75*
G02*
X145896925Y-80488625I-1360945J0D01*
G01*
X145896925Y-80488625D02*
G75*
G02*
X148618815Y-80488625I1360945J0D01*
G01*
X143968038Y-78079978D02*
G75*
G02*
X143968207Y-78379979I-29124J-150017D01*
G01*
X142510600Y-80673255D02*
G75*
G02*
X142210790Y-80683520I-150586J14760D01*
G01*
X143968207Y-78379978D02*
X143272814Y-78379978D01*
X141334510Y-78878825D02*
G75*
G02*
X142210761Y-80683523I-1587296J-1885770D01*
G01*
X144773757Y-74919712D02*
X144990255Y-74898396D01*
X141973465Y-81077399D02*
G75*
G02*
X137855703Y-81077399I-2058881J0D01*
G01*
X137855703Y-81077399D02*
G75*
G02*
X141973465Y-81077399I2058881J0D01*
G01*
X140579221Y-78245286D02*
G75*
G02*
X140731709Y-78330395I52493J-85109D01*
G01*
D14*
X120726667Y-90554818D02*
X120726667Y-91461961D01*
X120726667Y-91461961D02*
X120666190Y-91643389D01*
X120666190Y-91643389D02*
X120545238Y-91764342D01*
X120545238Y-91764342D02*
X120363809Y-91824818D01*
X120363809Y-91824818D02*
X120242857Y-91824818D01*
X121210476Y-90554818D02*
X121996667Y-90554818D01*
X121996667Y-90554818D02*
X121573333Y-91038627D01*
X121573333Y-91038627D02*
X121754762Y-91038627D01*
X121754762Y-91038627D02*
X121875714Y-91099103D01*
X121875714Y-91099103D02*
X121936190Y-91159580D01*
X121936190Y-91159580D02*
X121996667Y-91280532D01*
X121996667Y-91280532D02*
X121996667Y-91582913D01*
X121996667Y-91582913D02*
X121936190Y-91703865D01*
X121936190Y-91703865D02*
X121875714Y-91764342D01*
X121875714Y-91764342D02*
X121754762Y-91824818D01*
X121754762Y-91824818D02*
X121391905Y-91824818D01*
X121391905Y-91824818D02*
X121270952Y-91764342D01*
X121270952Y-91764342D02*
X121210476Y-91703865D01*
X154721905Y-88554318D02*
X154721905Y-89461461D01*
X154721905Y-89461461D02*
X154661428Y-89642889D01*
X154661428Y-89642889D02*
X154540476Y-89763842D01*
X154540476Y-89763842D02*
X154359047Y-89824318D01*
X154359047Y-89824318D02*
X154238095Y-89824318D01*
X155991905Y-89824318D02*
X155266190Y-89824318D01*
X155629047Y-89824318D02*
X155629047Y-88554318D01*
X155629047Y-88554318D02*
X155508095Y-88735746D01*
X155508095Y-88735746D02*
X155387143Y-88856699D01*
X155387143Y-88856699D02*
X155266190Y-88917175D01*
X157201429Y-89824318D02*
X156475714Y-89824318D01*
X156838571Y-89824318D02*
X156838571Y-88554318D01*
X156838571Y-88554318D02*
X156717619Y-88735746D01*
X156717619Y-88735746D02*
X156596667Y-88856699D01*
X156596667Y-88856699D02*
X156475714Y-88917175D01*
X130749318Y-66472381D02*
X129479318Y-66472381D01*
X129479318Y-66472381D02*
X129479318Y-66170000D01*
X129479318Y-66170000D02*
X129539794Y-65988571D01*
X129539794Y-65988571D02*
X129660746Y-65867619D01*
X129660746Y-65867619D02*
X129781699Y-65807142D01*
X129781699Y-65807142D02*
X130023603Y-65746666D01*
X130023603Y-65746666D02*
X130205032Y-65746666D01*
X130205032Y-65746666D02*
X130446937Y-65807142D01*
X130446937Y-65807142D02*
X130567889Y-65867619D01*
X130567889Y-65867619D02*
X130688842Y-65988571D01*
X130688842Y-65988571D02*
X130749318Y-66170000D01*
X130749318Y-66170000D02*
X130749318Y-66472381D01*
X129479318Y-65323333D02*
X129479318Y-64476666D01*
X129479318Y-64476666D02*
X130749318Y-65020952D01*
D15*
X156359580Y-72216666D02*
X156407200Y-72264285D01*
X156407200Y-72264285D02*
X156454819Y-72407142D01*
X156454819Y-72407142D02*
X156454819Y-72502380D01*
X156454819Y-72502380D02*
X156407200Y-72645237D01*
X156407200Y-72645237D02*
X156311961Y-72740475D01*
X156311961Y-72740475D02*
X156216723Y-72788094D01*
X156216723Y-72788094D02*
X156026247Y-72835713D01*
X156026247Y-72835713D02*
X155883390Y-72835713D01*
X155883390Y-72835713D02*
X155692914Y-72788094D01*
X155692914Y-72788094D02*
X155597676Y-72740475D01*
X155597676Y-72740475D02*
X155502438Y-72645237D01*
X155502438Y-72645237D02*
X155454819Y-72502380D01*
X155454819Y-72502380D02*
X155454819Y-72407142D01*
X155454819Y-72407142D02*
X155502438Y-72264285D01*
X155502438Y-72264285D02*
X155550057Y-72216666D01*
X155454819Y-71883332D02*
X155454819Y-71216666D01*
X155454819Y-71216666D02*
X156454819Y-71645237D01*
X155153333Y-83109580D02*
X155105714Y-83157200D01*
X155105714Y-83157200D02*
X154962857Y-83204819D01*
X154962857Y-83204819D02*
X154867619Y-83204819D01*
X154867619Y-83204819D02*
X154724762Y-83157200D01*
X154724762Y-83157200D02*
X154629524Y-83061961D01*
X154629524Y-83061961D02*
X154581905Y-82966723D01*
X154581905Y-82966723D02*
X154534286Y-82776247D01*
X154534286Y-82776247D02*
X154534286Y-82633390D01*
X154534286Y-82633390D02*
X154581905Y-82442914D01*
X154581905Y-82442914D02*
X154629524Y-82347676D01*
X154629524Y-82347676D02*
X154724762Y-82252438D01*
X154724762Y-82252438D02*
X154867619Y-82204819D01*
X154867619Y-82204819D02*
X154962857Y-82204819D01*
X154962857Y-82204819D02*
X155105714Y-82252438D01*
X155105714Y-82252438D02*
X155153333Y-82300057D01*
X156010476Y-82538152D02*
X156010476Y-83204819D01*
X155772381Y-82157200D02*
X155534286Y-82871485D01*
X155534286Y-82871485D02*
X156153333Y-82871485D01*
D14*
X112987618Y-67384318D02*
X112987618Y-66114318D01*
X112987618Y-66114318D02*
X113289999Y-66114318D01*
X113289999Y-66114318D02*
X113471428Y-66174794D01*
X113471428Y-66174794D02*
X113592380Y-66295746D01*
X113592380Y-66295746D02*
X113652857Y-66416699D01*
X113652857Y-66416699D02*
X113713333Y-66658603D01*
X113713333Y-66658603D02*
X113713333Y-66840032D01*
X113713333Y-66840032D02*
X113652857Y-67081937D01*
X113652857Y-67081937D02*
X113592380Y-67202889D01*
X113592380Y-67202889D02*
X113471428Y-67323842D01*
X113471428Y-67323842D02*
X113289999Y-67384318D01*
X113289999Y-67384318D02*
X112987618Y-67384318D01*
X114862380Y-66114318D02*
X114257618Y-66114318D01*
X114257618Y-66114318D02*
X114197142Y-66719080D01*
X114197142Y-66719080D02*
X114257618Y-66658603D01*
X114257618Y-66658603D02*
X114378571Y-66598127D01*
X114378571Y-66598127D02*
X114680952Y-66598127D01*
X114680952Y-66598127D02*
X114801904Y-66658603D01*
X114801904Y-66658603D02*
X114862380Y-66719080D01*
X114862380Y-66719080D02*
X114922857Y-66840032D01*
X114922857Y-66840032D02*
X114922857Y-67142413D01*
X114922857Y-67142413D02*
X114862380Y-67263365D01*
X114862380Y-67263365D02*
X114801904Y-67323842D01*
X114801904Y-67323842D02*
X114680952Y-67384318D01*
X114680952Y-67384318D02*
X114378571Y-67384318D01*
X114378571Y-67384318D02*
X114257618Y-67323842D01*
X114257618Y-67323842D02*
X114197142Y-67263365D01*
D15*
X129166666Y-74204819D02*
X129166666Y-74919104D01*
X129166666Y-74919104D02*
X129119047Y-75061961D01*
X129119047Y-75061961D02*
X129023809Y-75157200D01*
X129023809Y-75157200D02*
X128880952Y-75204819D01*
X128880952Y-75204819D02*
X128785714Y-75204819D01*
X130071428Y-74538152D02*
X130071428Y-75204819D01*
X129833333Y-74157200D02*
X129595238Y-74871485D01*
X129595238Y-74871485D02*
X130214285Y-74871485D01*
D14*
X112029047Y-48270270D02*
X111908095Y-48209794D01*
X111908095Y-48209794D02*
X111787142Y-48088842D01*
X111787142Y-48088842D02*
X111605714Y-47907413D01*
X111605714Y-47907413D02*
X111484761Y-47846937D01*
X111484761Y-47846937D02*
X111363809Y-47846937D01*
X111424285Y-48149318D02*
X111303333Y-48088842D01*
X111303333Y-48088842D02*
X111182380Y-47967889D01*
X111182380Y-47967889D02*
X111121904Y-47725984D01*
X111121904Y-47725984D02*
X111121904Y-47302651D01*
X111121904Y-47302651D02*
X111182380Y-47060746D01*
X111182380Y-47060746D02*
X111303333Y-46939794D01*
X111303333Y-46939794D02*
X111424285Y-46879318D01*
X111424285Y-46879318D02*
X111666190Y-46879318D01*
X111666190Y-46879318D02*
X111787142Y-46939794D01*
X111787142Y-46939794D02*
X111908095Y-47060746D01*
X111908095Y-47060746D02*
X111968571Y-47302651D01*
X111968571Y-47302651D02*
X111968571Y-47725984D01*
X111968571Y-47725984D02*
X111908095Y-47967889D01*
X111908095Y-47967889D02*
X111787142Y-48088842D01*
X111787142Y-48088842D02*
X111666190Y-48149318D01*
X111666190Y-48149318D02*
X111424285Y-48149318D01*
X112452380Y-47000270D02*
X112512856Y-46939794D01*
X112512856Y-46939794D02*
X112633809Y-46879318D01*
X112633809Y-46879318D02*
X112936190Y-46879318D01*
X112936190Y-46879318D02*
X113057142Y-46939794D01*
X113057142Y-46939794D02*
X113117618Y-47000270D01*
X113117618Y-47000270D02*
X113178095Y-47121222D01*
X113178095Y-47121222D02*
X113178095Y-47242175D01*
X113178095Y-47242175D02*
X113117618Y-47423603D01*
X113117618Y-47423603D02*
X112391904Y-48149318D01*
X112391904Y-48149318D02*
X113178095Y-48149318D01*
D15*
X151690476Y-63454819D02*
X151690476Y-64169104D01*
X151690476Y-64169104D02*
X151642857Y-64311961D01*
X151642857Y-64311961D02*
X151547619Y-64407200D01*
X151547619Y-64407200D02*
X151404762Y-64454819D01*
X151404762Y-64454819D02*
X151309524Y-64454819D01*
X152690476Y-64454819D02*
X152119048Y-64454819D01*
X152404762Y-64454819D02*
X152404762Y-63454819D01*
X152404762Y-63454819D02*
X152309524Y-63597676D01*
X152309524Y-63597676D02*
X152214286Y-63692914D01*
X152214286Y-63692914D02*
X152119048Y-63740533D01*
X153309524Y-63454819D02*
X153404762Y-63454819D01*
X153404762Y-63454819D02*
X153500000Y-63502438D01*
X153500000Y-63502438D02*
X153547619Y-63550057D01*
X153547619Y-63550057D02*
X153595238Y-63645295D01*
X153595238Y-63645295D02*
X153642857Y-63835771D01*
X153642857Y-63835771D02*
X153642857Y-64073866D01*
X153642857Y-64073866D02*
X153595238Y-64264342D01*
X153595238Y-64264342D02*
X153547619Y-64359580D01*
X153547619Y-64359580D02*
X153500000Y-64407200D01*
X153500000Y-64407200D02*
X153404762Y-64454819D01*
X153404762Y-64454819D02*
X153309524Y-64454819D01*
X153309524Y-64454819D02*
X153214286Y-64407200D01*
X153214286Y-64407200D02*
X153166667Y-64359580D01*
X153166667Y-64359580D02*
X153119048Y-64264342D01*
X153119048Y-64264342D02*
X153071429Y-64073866D01*
X153071429Y-64073866D02*
X153071429Y-63835771D01*
X153071429Y-63835771D02*
X153119048Y-63645295D01*
X153119048Y-63645295D02*
X153166667Y-63550057D01*
X153166667Y-63550057D02*
X153214286Y-63502438D01*
X153214286Y-63502438D02*
X153309524Y-63454819D01*
X115666666Y-41204819D02*
X115666666Y-41919104D01*
X115666666Y-41919104D02*
X115619047Y-42061961D01*
X115619047Y-42061961D02*
X115523809Y-42157200D01*
X115523809Y-42157200D02*
X115380952Y-42204819D01*
X115380952Y-42204819D02*
X115285714Y-42204819D01*
X116571428Y-41204819D02*
X116380952Y-41204819D01*
X116380952Y-41204819D02*
X116285714Y-41252438D01*
X116285714Y-41252438D02*
X116238095Y-41300057D01*
X116238095Y-41300057D02*
X116142857Y-41442914D01*
X116142857Y-41442914D02*
X116095238Y-41633390D01*
X116095238Y-41633390D02*
X116095238Y-42014342D01*
X116095238Y-42014342D02*
X116142857Y-42109580D01*
X116142857Y-42109580D02*
X116190476Y-42157200D01*
X116190476Y-42157200D02*
X116285714Y-42204819D01*
X116285714Y-42204819D02*
X116476190Y-42204819D01*
X116476190Y-42204819D02*
X116571428Y-42157200D01*
X116571428Y-42157200D02*
X116619047Y-42109580D01*
X116619047Y-42109580D02*
X116666666Y-42014342D01*
X116666666Y-42014342D02*
X116666666Y-41776247D01*
X116666666Y-41776247D02*
X116619047Y-41681009D01*
X116619047Y-41681009D02*
X116571428Y-41633390D01*
X116571428Y-41633390D02*
X116476190Y-41585771D01*
X116476190Y-41585771D02*
X116285714Y-41585771D01*
X116285714Y-41585771D02*
X116190476Y-41633390D01*
X116190476Y-41633390D02*
X116142857Y-41681009D01*
X116142857Y-41681009D02*
X116095238Y-41776247D01*
X151817142Y-62929819D02*
X151483809Y-62453628D01*
X151245714Y-62929819D02*
X151245714Y-61929819D01*
X151245714Y-61929819D02*
X151626666Y-61929819D01*
X151626666Y-61929819D02*
X151721904Y-61977438D01*
X151721904Y-61977438D02*
X151769523Y-62025057D01*
X151769523Y-62025057D02*
X151817142Y-62120295D01*
X151817142Y-62120295D02*
X151817142Y-62263152D01*
X151817142Y-62263152D02*
X151769523Y-62358390D01*
X151769523Y-62358390D02*
X151721904Y-62406009D01*
X151721904Y-62406009D02*
X151626666Y-62453628D01*
X151626666Y-62453628D02*
X151245714Y-62453628D01*
X152198095Y-62025057D02*
X152245714Y-61977438D01*
X152245714Y-61977438D02*
X152340952Y-61929819D01*
X152340952Y-61929819D02*
X152579047Y-61929819D01*
X152579047Y-61929819D02*
X152674285Y-61977438D01*
X152674285Y-61977438D02*
X152721904Y-62025057D01*
X152721904Y-62025057D02*
X152769523Y-62120295D01*
X152769523Y-62120295D02*
X152769523Y-62215533D01*
X152769523Y-62215533D02*
X152721904Y-62358390D01*
X152721904Y-62358390D02*
X152150476Y-62929819D01*
X152150476Y-62929819D02*
X152769523Y-62929819D01*
X153721904Y-62929819D02*
X153150476Y-62929819D01*
X153436190Y-62929819D02*
X153436190Y-61929819D01*
X153436190Y-61929819D02*
X153340952Y-62072676D01*
X153340952Y-62072676D02*
X153245714Y-62167914D01*
X153245714Y-62167914D02*
X153150476Y-62215533D01*
X118238095Y-78907200D02*
X118380952Y-78954819D01*
X118380952Y-78954819D02*
X118619047Y-78954819D01*
X118619047Y-78954819D02*
X118714285Y-78907200D01*
X118714285Y-78907200D02*
X118761904Y-78859580D01*
X118761904Y-78859580D02*
X118809523Y-78764342D01*
X118809523Y-78764342D02*
X118809523Y-78669104D01*
X118809523Y-78669104D02*
X118761904Y-78573866D01*
X118761904Y-78573866D02*
X118714285Y-78526247D01*
X118714285Y-78526247D02*
X118619047Y-78478628D01*
X118619047Y-78478628D02*
X118428571Y-78431009D01*
X118428571Y-78431009D02*
X118333333Y-78383390D01*
X118333333Y-78383390D02*
X118285714Y-78335771D01*
X118285714Y-78335771D02*
X118238095Y-78240533D01*
X118238095Y-78240533D02*
X118238095Y-78145295D01*
X118238095Y-78145295D02*
X118285714Y-78050057D01*
X118285714Y-78050057D02*
X118333333Y-78002438D01*
X118333333Y-78002438D02*
X118428571Y-77954819D01*
X118428571Y-77954819D02*
X118666666Y-77954819D01*
X118666666Y-77954819D02*
X118809523Y-78002438D01*
X119761904Y-78954819D02*
X119190476Y-78954819D01*
X119476190Y-78954819D02*
X119476190Y-77954819D01*
X119476190Y-77954819D02*
X119380952Y-78097676D01*
X119380952Y-78097676D02*
X119285714Y-78192914D01*
X119285714Y-78192914D02*
X119190476Y-78240533D01*
X156359580Y-70416666D02*
X156407200Y-70464285D01*
X156407200Y-70464285D02*
X156454819Y-70607142D01*
X156454819Y-70607142D02*
X156454819Y-70702380D01*
X156454819Y-70702380D02*
X156407200Y-70845237D01*
X156407200Y-70845237D02*
X156311961Y-70940475D01*
X156311961Y-70940475D02*
X156216723Y-70988094D01*
X156216723Y-70988094D02*
X156026247Y-71035713D01*
X156026247Y-71035713D02*
X155883390Y-71035713D01*
X155883390Y-71035713D02*
X155692914Y-70988094D01*
X155692914Y-70988094D02*
X155597676Y-70940475D01*
X155597676Y-70940475D02*
X155502438Y-70845237D01*
X155502438Y-70845237D02*
X155454819Y-70702380D01*
X155454819Y-70702380D02*
X155454819Y-70607142D01*
X155454819Y-70607142D02*
X155502438Y-70464285D01*
X155502438Y-70464285D02*
X155550057Y-70416666D01*
X155883390Y-69845237D02*
X155835771Y-69940475D01*
X155835771Y-69940475D02*
X155788152Y-69988094D01*
X155788152Y-69988094D02*
X155692914Y-70035713D01*
X155692914Y-70035713D02*
X155645295Y-70035713D01*
X155645295Y-70035713D02*
X155550057Y-69988094D01*
X155550057Y-69988094D02*
X155502438Y-69940475D01*
X155502438Y-69940475D02*
X155454819Y-69845237D01*
X155454819Y-69845237D02*
X155454819Y-69654761D01*
X155454819Y-69654761D02*
X155502438Y-69559523D01*
X155502438Y-69559523D02*
X155550057Y-69511904D01*
X155550057Y-69511904D02*
X155645295Y-69464285D01*
X155645295Y-69464285D02*
X155692914Y-69464285D01*
X155692914Y-69464285D02*
X155788152Y-69511904D01*
X155788152Y-69511904D02*
X155835771Y-69559523D01*
X155835771Y-69559523D02*
X155883390Y-69654761D01*
X155883390Y-69654761D02*
X155883390Y-69845237D01*
X155883390Y-69845237D02*
X155931009Y-69940475D01*
X155931009Y-69940475D02*
X155978628Y-69988094D01*
X155978628Y-69988094D02*
X156073866Y-70035713D01*
X156073866Y-70035713D02*
X156264342Y-70035713D01*
X156264342Y-70035713D02*
X156359580Y-69988094D01*
X156359580Y-69988094D02*
X156407200Y-69940475D01*
X156407200Y-69940475D02*
X156454819Y-69845237D01*
X156454819Y-69845237D02*
X156454819Y-69654761D01*
X156454819Y-69654761D02*
X156407200Y-69559523D01*
X156407200Y-69559523D02*
X156359580Y-69511904D01*
X156359580Y-69511904D02*
X156264342Y-69464285D01*
X156264342Y-69464285D02*
X156073866Y-69464285D01*
X156073866Y-69464285D02*
X155978628Y-69511904D01*
X155978628Y-69511904D02*
X155931009Y-69559523D01*
X155931009Y-69559523D02*
X155883390Y-69654761D01*
D14*
X96338218Y-75471358D02*
X96338218Y-74201358D01*
X97063933Y-75471358D02*
X96519647Y-74745643D01*
X97063933Y-74201358D02*
X96338218Y-74927072D01*
X97487266Y-74201358D02*
X98273457Y-74201358D01*
X98273457Y-74201358D02*
X97850123Y-74685167D01*
X97850123Y-74685167D02*
X98031552Y-74685167D01*
X98031552Y-74685167D02*
X98152504Y-74745643D01*
X98152504Y-74745643D02*
X98212980Y-74806120D01*
X98212980Y-74806120D02*
X98273457Y-74927072D01*
X98273457Y-74927072D02*
X98273457Y-75229453D01*
X98273457Y-75229453D02*
X98212980Y-75350405D01*
X98212980Y-75350405D02*
X98152504Y-75410882D01*
X98152504Y-75410882D02*
X98031552Y-75471358D01*
X98031552Y-75471358D02*
X97668695Y-75471358D01*
X97668695Y-75471358D02*
X97547742Y-75410882D01*
X97547742Y-75410882D02*
X97487266Y-75350405D01*
D15*
X152666666Y-57454819D02*
X152666666Y-58169104D01*
X152666666Y-58169104D02*
X152619047Y-58311961D01*
X152619047Y-58311961D02*
X152523809Y-58407200D01*
X152523809Y-58407200D02*
X152380952Y-58454819D01*
X152380952Y-58454819D02*
X152285714Y-58454819D01*
X153190476Y-58454819D02*
X153380952Y-58454819D01*
X153380952Y-58454819D02*
X153476190Y-58407200D01*
X153476190Y-58407200D02*
X153523809Y-58359580D01*
X153523809Y-58359580D02*
X153619047Y-58216723D01*
X153619047Y-58216723D02*
X153666666Y-58026247D01*
X153666666Y-58026247D02*
X153666666Y-57645295D01*
X153666666Y-57645295D02*
X153619047Y-57550057D01*
X153619047Y-57550057D02*
X153571428Y-57502438D01*
X153571428Y-57502438D02*
X153476190Y-57454819D01*
X153476190Y-57454819D02*
X153285714Y-57454819D01*
X153285714Y-57454819D02*
X153190476Y-57502438D01*
X153190476Y-57502438D02*
X153142857Y-57550057D01*
X153142857Y-57550057D02*
X153095238Y-57645295D01*
X153095238Y-57645295D02*
X153095238Y-57883390D01*
X153095238Y-57883390D02*
X153142857Y-57978628D01*
X153142857Y-57978628D02*
X153190476Y-58026247D01*
X153190476Y-58026247D02*
X153285714Y-58073866D01*
X153285714Y-58073866D02*
X153476190Y-58073866D01*
X153476190Y-58073866D02*
X153571428Y-58026247D01*
X153571428Y-58026247D02*
X153619047Y-57978628D01*
X153619047Y-57978628D02*
X153666666Y-57883390D01*
D14*
X154282380Y-75804318D02*
X154282380Y-76832413D01*
X154282380Y-76832413D02*
X154342857Y-76953365D01*
X154342857Y-76953365D02*
X154403333Y-77013842D01*
X154403333Y-77013842D02*
X154524285Y-77074318D01*
X154524285Y-77074318D02*
X154766190Y-77074318D01*
X154766190Y-77074318D02*
X154887142Y-77013842D01*
X154887142Y-77013842D02*
X154947619Y-76953365D01*
X154947619Y-76953365D02*
X155008095Y-76832413D01*
X155008095Y-76832413D02*
X155008095Y-75804318D01*
X155491904Y-75804318D02*
X156278095Y-75804318D01*
X156278095Y-75804318D02*
X155854761Y-76288127D01*
X155854761Y-76288127D02*
X156036190Y-76288127D01*
X156036190Y-76288127D02*
X156157142Y-76348603D01*
X156157142Y-76348603D02*
X156217618Y-76409080D01*
X156217618Y-76409080D02*
X156278095Y-76530032D01*
X156278095Y-76530032D02*
X156278095Y-76832413D01*
X156278095Y-76832413D02*
X156217618Y-76953365D01*
X156217618Y-76953365D02*
X156157142Y-77013842D01*
X156157142Y-77013842D02*
X156036190Y-77074318D01*
X156036190Y-77074318D02*
X155673333Y-77074318D01*
X155673333Y-77074318D02*
X155552380Y-77013842D01*
X155552380Y-77013842D02*
X155491904Y-76953365D01*
D15*
X122116666Y-64409819D02*
X122116666Y-65124104D01*
X122116666Y-65124104D02*
X122069047Y-65266961D01*
X122069047Y-65266961D02*
X121973809Y-65362200D01*
X121973809Y-65362200D02*
X121830952Y-65409819D01*
X121830952Y-65409819D02*
X121735714Y-65409819D01*
X123069047Y-64409819D02*
X122592857Y-64409819D01*
X122592857Y-64409819D02*
X122545238Y-64886009D01*
X122545238Y-64886009D02*
X122592857Y-64838390D01*
X122592857Y-64838390D02*
X122688095Y-64790771D01*
X122688095Y-64790771D02*
X122926190Y-64790771D01*
X122926190Y-64790771D02*
X123021428Y-64838390D01*
X123021428Y-64838390D02*
X123069047Y-64886009D01*
X123069047Y-64886009D02*
X123116666Y-64981247D01*
X123116666Y-64981247D02*
X123116666Y-65219342D01*
X123116666Y-65219342D02*
X123069047Y-65314580D01*
X123069047Y-65314580D02*
X123021428Y-65362200D01*
X123021428Y-65362200D02*
X122926190Y-65409819D01*
X122926190Y-65409819D02*
X122688095Y-65409819D01*
X122688095Y-65409819D02*
X122592857Y-65362200D01*
X122592857Y-65362200D02*
X122545238Y-65314580D01*
X155083333Y-81359580D02*
X155035714Y-81407200D01*
X155035714Y-81407200D02*
X154892857Y-81454819D01*
X154892857Y-81454819D02*
X154797619Y-81454819D01*
X154797619Y-81454819D02*
X154654762Y-81407200D01*
X154654762Y-81407200D02*
X154559524Y-81311961D01*
X154559524Y-81311961D02*
X154511905Y-81216723D01*
X154511905Y-81216723D02*
X154464286Y-81026247D01*
X154464286Y-81026247D02*
X154464286Y-80883390D01*
X154464286Y-80883390D02*
X154511905Y-80692914D01*
X154511905Y-80692914D02*
X154559524Y-80597676D01*
X154559524Y-80597676D02*
X154654762Y-80502438D01*
X154654762Y-80502438D02*
X154797619Y-80454819D01*
X154797619Y-80454819D02*
X154892857Y-80454819D01*
X154892857Y-80454819D02*
X155035714Y-80502438D01*
X155035714Y-80502438D02*
X155083333Y-80550057D01*
X155940476Y-80454819D02*
X155750000Y-80454819D01*
X155750000Y-80454819D02*
X155654762Y-80502438D01*
X155654762Y-80502438D02*
X155607143Y-80550057D01*
X155607143Y-80550057D02*
X155511905Y-80692914D01*
X155511905Y-80692914D02*
X155464286Y-80883390D01*
X155464286Y-80883390D02*
X155464286Y-81264342D01*
X155464286Y-81264342D02*
X155511905Y-81359580D01*
X155511905Y-81359580D02*
X155559524Y-81407200D01*
X155559524Y-81407200D02*
X155654762Y-81454819D01*
X155654762Y-81454819D02*
X155845238Y-81454819D01*
X155845238Y-81454819D02*
X155940476Y-81407200D01*
X155940476Y-81407200D02*
X155988095Y-81359580D01*
X155988095Y-81359580D02*
X156035714Y-81264342D01*
X156035714Y-81264342D02*
X156035714Y-81026247D01*
X156035714Y-81026247D02*
X155988095Y-80931009D01*
X155988095Y-80931009D02*
X155940476Y-80883390D01*
X155940476Y-80883390D02*
X155845238Y-80835771D01*
X155845238Y-80835771D02*
X155654762Y-80835771D01*
X155654762Y-80835771D02*
X155559524Y-80883390D01*
X155559524Y-80883390D02*
X155511905Y-80931009D01*
X155511905Y-80931009D02*
X155464286Y-81026247D01*
X149285714Y-73204819D02*
X149285714Y-72204819D01*
X149285714Y-72204819D02*
X149523809Y-72204819D01*
X149523809Y-72204819D02*
X149666666Y-72252438D01*
X149666666Y-72252438D02*
X149761904Y-72347676D01*
X149761904Y-72347676D02*
X149809523Y-72442914D01*
X149809523Y-72442914D02*
X149857142Y-72633390D01*
X149857142Y-72633390D02*
X149857142Y-72776247D01*
X149857142Y-72776247D02*
X149809523Y-72966723D01*
X149809523Y-72966723D02*
X149761904Y-73061961D01*
X149761904Y-73061961D02*
X149666666Y-73157200D01*
X149666666Y-73157200D02*
X149523809Y-73204819D01*
X149523809Y-73204819D02*
X149285714Y-73204819D01*
X150809523Y-73204819D02*
X150238095Y-73204819D01*
X150523809Y-73204819D02*
X150523809Y-72204819D01*
X150523809Y-72204819D02*
X150428571Y-72347676D01*
X150428571Y-72347676D02*
X150333333Y-72442914D01*
X150333333Y-72442914D02*
X150238095Y-72490533D01*
X151666666Y-72204819D02*
X151476190Y-72204819D01*
X151476190Y-72204819D02*
X151380952Y-72252438D01*
X151380952Y-72252438D02*
X151333333Y-72300057D01*
X151333333Y-72300057D02*
X151238095Y-72442914D01*
X151238095Y-72442914D02*
X151190476Y-72633390D01*
X151190476Y-72633390D02*
X151190476Y-73014342D01*
X151190476Y-73014342D02*
X151238095Y-73109580D01*
X151238095Y-73109580D02*
X151285714Y-73157200D01*
X151285714Y-73157200D02*
X151380952Y-73204819D01*
X151380952Y-73204819D02*
X151571428Y-73204819D01*
X151571428Y-73204819D02*
X151666666Y-73157200D01*
X151666666Y-73157200D02*
X151714285Y-73109580D01*
X151714285Y-73109580D02*
X151761904Y-73014342D01*
X151761904Y-73014342D02*
X151761904Y-72776247D01*
X151761904Y-72776247D02*
X151714285Y-72681009D01*
X151714285Y-72681009D02*
X151666666Y-72633390D01*
X151666666Y-72633390D02*
X151571428Y-72585771D01*
X151571428Y-72585771D02*
X151380952Y-72585771D01*
X151380952Y-72585771D02*
X151285714Y-72633390D01*
X151285714Y-72633390D02*
X151238095Y-72681009D01*
X151238095Y-72681009D02*
X151190476Y-72776247D01*
X130488095Y-79157200D02*
X130630952Y-79204819D01*
X130630952Y-79204819D02*
X130869047Y-79204819D01*
X130869047Y-79204819D02*
X130964285Y-79157200D01*
X130964285Y-79157200D02*
X131011904Y-79109580D01*
X131011904Y-79109580D02*
X131059523Y-79014342D01*
X131059523Y-79014342D02*
X131059523Y-78919104D01*
X131059523Y-78919104D02*
X131011904Y-78823866D01*
X131011904Y-78823866D02*
X130964285Y-78776247D01*
X130964285Y-78776247D02*
X130869047Y-78728628D01*
X130869047Y-78728628D02*
X130678571Y-78681009D01*
X130678571Y-78681009D02*
X130583333Y-78633390D01*
X130583333Y-78633390D02*
X130535714Y-78585771D01*
X130535714Y-78585771D02*
X130488095Y-78490533D01*
X130488095Y-78490533D02*
X130488095Y-78395295D01*
X130488095Y-78395295D02*
X130535714Y-78300057D01*
X130535714Y-78300057D02*
X130583333Y-78252438D01*
X130583333Y-78252438D02*
X130678571Y-78204819D01*
X130678571Y-78204819D02*
X130916666Y-78204819D01*
X130916666Y-78204819D02*
X131059523Y-78252438D01*
X131440476Y-78300057D02*
X131488095Y-78252438D01*
X131488095Y-78252438D02*
X131583333Y-78204819D01*
X131583333Y-78204819D02*
X131821428Y-78204819D01*
X131821428Y-78204819D02*
X131916666Y-78252438D01*
X131916666Y-78252438D02*
X131964285Y-78300057D01*
X131964285Y-78300057D02*
X132011904Y-78395295D01*
X132011904Y-78395295D02*
X132011904Y-78490533D01*
X132011904Y-78490533D02*
X131964285Y-78633390D01*
X131964285Y-78633390D02*
X131392857Y-79204819D01*
X131392857Y-79204819D02*
X132011904Y-79204819D01*
D14*
X112029047Y-57270270D02*
X111908095Y-57209794D01*
X111908095Y-57209794D02*
X111787142Y-57088842D01*
X111787142Y-57088842D02*
X111605714Y-56907413D01*
X111605714Y-56907413D02*
X111484761Y-56846937D01*
X111484761Y-56846937D02*
X111363809Y-56846937D01*
X111424285Y-57149318D02*
X111303333Y-57088842D01*
X111303333Y-57088842D02*
X111182380Y-56967889D01*
X111182380Y-56967889D02*
X111121904Y-56725984D01*
X111121904Y-56725984D02*
X111121904Y-56302651D01*
X111121904Y-56302651D02*
X111182380Y-56060746D01*
X111182380Y-56060746D02*
X111303333Y-55939794D01*
X111303333Y-55939794D02*
X111424285Y-55879318D01*
X111424285Y-55879318D02*
X111666190Y-55879318D01*
X111666190Y-55879318D02*
X111787142Y-55939794D01*
X111787142Y-55939794D02*
X111908095Y-56060746D01*
X111908095Y-56060746D02*
X111968571Y-56302651D01*
X111968571Y-56302651D02*
X111968571Y-56725984D01*
X111968571Y-56725984D02*
X111908095Y-56967889D01*
X111908095Y-56967889D02*
X111787142Y-57088842D01*
X111787142Y-57088842D02*
X111666190Y-57149318D01*
X111666190Y-57149318D02*
X111424285Y-57149318D01*
X113057142Y-56302651D02*
X113057142Y-57149318D01*
X112754761Y-55818842D02*
X112452380Y-56725984D01*
X112452380Y-56725984D02*
X113238571Y-56725984D01*
X106987618Y-67334318D02*
X106987618Y-66064318D01*
X106987618Y-66064318D02*
X107289999Y-66064318D01*
X107289999Y-66064318D02*
X107471428Y-66124794D01*
X107471428Y-66124794D02*
X107592380Y-66245746D01*
X107592380Y-66245746D02*
X107652857Y-66366699D01*
X107652857Y-66366699D02*
X107713333Y-66608603D01*
X107713333Y-66608603D02*
X107713333Y-66790032D01*
X107713333Y-66790032D02*
X107652857Y-67031937D01*
X107652857Y-67031937D02*
X107592380Y-67152889D01*
X107592380Y-67152889D02*
X107471428Y-67273842D01*
X107471428Y-67273842D02*
X107289999Y-67334318D01*
X107289999Y-67334318D02*
X106987618Y-67334318D01*
X108801904Y-66487651D02*
X108801904Y-67334318D01*
X108499523Y-66003842D02*
X108197142Y-66910984D01*
X108197142Y-66910984D02*
X108983333Y-66910984D01*
X96338218Y-51071358D02*
X96338218Y-49801358D01*
X97063933Y-51071358D02*
X96519647Y-50345643D01*
X97063933Y-49801358D02*
X96338218Y-50527072D01*
X98273457Y-51071358D02*
X97547742Y-51071358D01*
X97910599Y-51071358D02*
X97910599Y-49801358D01*
X97910599Y-49801358D02*
X97789647Y-49982786D01*
X97789647Y-49982786D02*
X97668695Y-50103739D01*
X97668695Y-50103739D02*
X97547742Y-50164215D01*
X112029047Y-43520270D02*
X111908095Y-43459794D01*
X111908095Y-43459794D02*
X111787142Y-43338842D01*
X111787142Y-43338842D02*
X111605714Y-43157413D01*
X111605714Y-43157413D02*
X111484761Y-43096937D01*
X111484761Y-43096937D02*
X111363809Y-43096937D01*
X111424285Y-43399318D02*
X111303333Y-43338842D01*
X111303333Y-43338842D02*
X111182380Y-43217889D01*
X111182380Y-43217889D02*
X111121904Y-42975984D01*
X111121904Y-42975984D02*
X111121904Y-42552651D01*
X111121904Y-42552651D02*
X111182380Y-42310746D01*
X111182380Y-42310746D02*
X111303333Y-42189794D01*
X111303333Y-42189794D02*
X111424285Y-42129318D01*
X111424285Y-42129318D02*
X111666190Y-42129318D01*
X111666190Y-42129318D02*
X111787142Y-42189794D01*
X111787142Y-42189794D02*
X111908095Y-42310746D01*
X111908095Y-42310746D02*
X111968571Y-42552651D01*
X111968571Y-42552651D02*
X111968571Y-42975984D01*
X111968571Y-42975984D02*
X111908095Y-43217889D01*
X111908095Y-43217889D02*
X111787142Y-43338842D01*
X111787142Y-43338842D02*
X111666190Y-43399318D01*
X111666190Y-43399318D02*
X111424285Y-43399318D01*
X113178095Y-43399318D02*
X112452380Y-43399318D01*
X112815237Y-43399318D02*
X112815237Y-42129318D01*
X112815237Y-42129318D02*
X112694285Y-42310746D01*
X112694285Y-42310746D02*
X112573333Y-42431699D01*
X112573333Y-42431699D02*
X112452380Y-42492175D01*
D15*
X122857142Y-74489819D02*
X122523809Y-74013628D01*
X122285714Y-74489819D02*
X122285714Y-73489819D01*
X122285714Y-73489819D02*
X122666666Y-73489819D01*
X122666666Y-73489819D02*
X122761904Y-73537438D01*
X122761904Y-73537438D02*
X122809523Y-73585057D01*
X122809523Y-73585057D02*
X122857142Y-73680295D01*
X122857142Y-73680295D02*
X122857142Y-73823152D01*
X122857142Y-73823152D02*
X122809523Y-73918390D01*
X122809523Y-73918390D02*
X122761904Y-73966009D01*
X122761904Y-73966009D02*
X122666666Y-74013628D01*
X122666666Y-74013628D02*
X122285714Y-74013628D01*
X123809523Y-74489819D02*
X123238095Y-74489819D01*
X123523809Y-74489819D02*
X123523809Y-73489819D01*
X123523809Y-73489819D02*
X123428571Y-73632676D01*
X123428571Y-73632676D02*
X123333333Y-73727914D01*
X123333333Y-73727914D02*
X123238095Y-73775533D01*
X124666666Y-73489819D02*
X124476190Y-73489819D01*
X124476190Y-73489819D02*
X124380952Y-73537438D01*
X124380952Y-73537438D02*
X124333333Y-73585057D01*
X124333333Y-73585057D02*
X124238095Y-73727914D01*
X124238095Y-73727914D02*
X124190476Y-73918390D01*
X124190476Y-73918390D02*
X124190476Y-74299342D01*
X124190476Y-74299342D02*
X124238095Y-74394580D01*
X124238095Y-74394580D02*
X124285714Y-74442200D01*
X124285714Y-74442200D02*
X124380952Y-74489819D01*
X124380952Y-74489819D02*
X124571428Y-74489819D01*
X124571428Y-74489819D02*
X124666666Y-74442200D01*
X124666666Y-74442200D02*
X124714285Y-74394580D01*
X124714285Y-74394580D02*
X124761904Y-74299342D01*
X124761904Y-74299342D02*
X124761904Y-74061247D01*
X124761904Y-74061247D02*
X124714285Y-73966009D01*
X124714285Y-73966009D02*
X124666666Y-73918390D01*
X124666666Y-73918390D02*
X124571428Y-73870771D01*
X124571428Y-73870771D02*
X124380952Y-73870771D01*
X124380952Y-73870771D02*
X124285714Y-73918390D01*
X124285714Y-73918390D02*
X124238095Y-73966009D01*
X124238095Y-73966009D02*
X124190476Y-74061247D01*
X151454819Y-66892857D02*
X150978628Y-67226190D01*
X151454819Y-67464285D02*
X150454819Y-67464285D01*
X150454819Y-67464285D02*
X150454819Y-67083333D01*
X150454819Y-67083333D02*
X150502438Y-66988095D01*
X150502438Y-66988095D02*
X150550057Y-66940476D01*
X150550057Y-66940476D02*
X150645295Y-66892857D01*
X150645295Y-66892857D02*
X150788152Y-66892857D01*
X150788152Y-66892857D02*
X150883390Y-66940476D01*
X150883390Y-66940476D02*
X150931009Y-66988095D01*
X150931009Y-66988095D02*
X150978628Y-67083333D01*
X150978628Y-67083333D02*
X150978628Y-67464285D01*
X150550057Y-66511904D02*
X150502438Y-66464285D01*
X150502438Y-66464285D02*
X150454819Y-66369047D01*
X150454819Y-66369047D02*
X150454819Y-66130952D01*
X150454819Y-66130952D02*
X150502438Y-66035714D01*
X150502438Y-66035714D02*
X150550057Y-65988095D01*
X150550057Y-65988095D02*
X150645295Y-65940476D01*
X150645295Y-65940476D02*
X150740533Y-65940476D01*
X150740533Y-65940476D02*
X150883390Y-65988095D01*
X150883390Y-65988095D02*
X151454819Y-66559523D01*
X151454819Y-66559523D02*
X151454819Y-65940476D01*
X150550057Y-65559523D02*
X150502438Y-65511904D01*
X150502438Y-65511904D02*
X150454819Y-65416666D01*
X150454819Y-65416666D02*
X150454819Y-65178571D01*
X150454819Y-65178571D02*
X150502438Y-65083333D01*
X150502438Y-65083333D02*
X150550057Y-65035714D01*
X150550057Y-65035714D02*
X150645295Y-64988095D01*
X150645295Y-64988095D02*
X150740533Y-64988095D01*
X150740533Y-64988095D02*
X150883390Y-65035714D01*
X150883390Y-65035714D02*
X151454819Y-65607142D01*
X151454819Y-65607142D02*
X151454819Y-64988095D01*
X109508333Y-72714819D02*
X109175000Y-72238628D01*
X108936905Y-72714819D02*
X108936905Y-71714819D01*
X108936905Y-71714819D02*
X109317857Y-71714819D01*
X109317857Y-71714819D02*
X109413095Y-71762438D01*
X109413095Y-71762438D02*
X109460714Y-71810057D01*
X109460714Y-71810057D02*
X109508333Y-71905295D01*
X109508333Y-71905295D02*
X109508333Y-72048152D01*
X109508333Y-72048152D02*
X109460714Y-72143390D01*
X109460714Y-72143390D02*
X109413095Y-72191009D01*
X109413095Y-72191009D02*
X109317857Y-72238628D01*
X109317857Y-72238628D02*
X108936905Y-72238628D01*
X110079762Y-72143390D02*
X109984524Y-72095771D01*
X109984524Y-72095771D02*
X109936905Y-72048152D01*
X109936905Y-72048152D02*
X109889286Y-71952914D01*
X109889286Y-71952914D02*
X109889286Y-71905295D01*
X109889286Y-71905295D02*
X109936905Y-71810057D01*
X109936905Y-71810057D02*
X109984524Y-71762438D01*
X109984524Y-71762438D02*
X110079762Y-71714819D01*
X110079762Y-71714819D02*
X110270238Y-71714819D01*
X110270238Y-71714819D02*
X110365476Y-71762438D01*
X110365476Y-71762438D02*
X110413095Y-71810057D01*
X110413095Y-71810057D02*
X110460714Y-71905295D01*
X110460714Y-71905295D02*
X110460714Y-71952914D01*
X110460714Y-71952914D02*
X110413095Y-72048152D01*
X110413095Y-72048152D02*
X110365476Y-72095771D01*
X110365476Y-72095771D02*
X110270238Y-72143390D01*
X110270238Y-72143390D02*
X110079762Y-72143390D01*
X110079762Y-72143390D02*
X109984524Y-72191009D01*
X109984524Y-72191009D02*
X109936905Y-72238628D01*
X109936905Y-72238628D02*
X109889286Y-72333866D01*
X109889286Y-72333866D02*
X109889286Y-72524342D01*
X109889286Y-72524342D02*
X109936905Y-72619580D01*
X109936905Y-72619580D02*
X109984524Y-72667200D01*
X109984524Y-72667200D02*
X110079762Y-72714819D01*
X110079762Y-72714819D02*
X110270238Y-72714819D01*
X110270238Y-72714819D02*
X110365476Y-72667200D01*
X110365476Y-72667200D02*
X110413095Y-72619580D01*
X110413095Y-72619580D02*
X110460714Y-72524342D01*
X110460714Y-72524342D02*
X110460714Y-72333866D01*
X110460714Y-72333866D02*
X110413095Y-72238628D01*
X110413095Y-72238628D02*
X110365476Y-72191009D01*
X110365476Y-72191009D02*
X110270238Y-72143390D01*
X148416666Y-51374819D02*
X148416666Y-52089104D01*
X148416666Y-52089104D02*
X148369047Y-52231961D01*
X148369047Y-52231961D02*
X148273809Y-52327200D01*
X148273809Y-52327200D02*
X148130952Y-52374819D01*
X148130952Y-52374819D02*
X148035714Y-52374819D01*
X149416666Y-52374819D02*
X148845238Y-52374819D01*
X149130952Y-52374819D02*
X149130952Y-51374819D01*
X149130952Y-51374819D02*
X149035714Y-51517676D01*
X149035714Y-51517676D02*
X148940476Y-51612914D01*
X148940476Y-51612914D02*
X148845238Y-51660533D01*
X152666666Y-51454819D02*
X152666666Y-52169104D01*
X152666666Y-52169104D02*
X152619047Y-52311961D01*
X152619047Y-52311961D02*
X152523809Y-52407200D01*
X152523809Y-52407200D02*
X152380952Y-52454819D01*
X152380952Y-52454819D02*
X152285714Y-52454819D01*
X153285714Y-51883390D02*
X153190476Y-51835771D01*
X153190476Y-51835771D02*
X153142857Y-51788152D01*
X153142857Y-51788152D02*
X153095238Y-51692914D01*
X153095238Y-51692914D02*
X153095238Y-51645295D01*
X153095238Y-51645295D02*
X153142857Y-51550057D01*
X153142857Y-51550057D02*
X153190476Y-51502438D01*
X153190476Y-51502438D02*
X153285714Y-51454819D01*
X153285714Y-51454819D02*
X153476190Y-51454819D01*
X153476190Y-51454819D02*
X153571428Y-51502438D01*
X153571428Y-51502438D02*
X153619047Y-51550057D01*
X153619047Y-51550057D02*
X153666666Y-51645295D01*
X153666666Y-51645295D02*
X153666666Y-51692914D01*
X153666666Y-51692914D02*
X153619047Y-51788152D01*
X153619047Y-51788152D02*
X153571428Y-51835771D01*
X153571428Y-51835771D02*
X153476190Y-51883390D01*
X153476190Y-51883390D02*
X153285714Y-51883390D01*
X153285714Y-51883390D02*
X153190476Y-51931009D01*
X153190476Y-51931009D02*
X153142857Y-51978628D01*
X153142857Y-51978628D02*
X153095238Y-52073866D01*
X153095238Y-52073866D02*
X153095238Y-52264342D01*
X153095238Y-52264342D02*
X153142857Y-52359580D01*
X153142857Y-52359580D02*
X153190476Y-52407200D01*
X153190476Y-52407200D02*
X153285714Y-52454819D01*
X153285714Y-52454819D02*
X153476190Y-52454819D01*
X153476190Y-52454819D02*
X153571428Y-52407200D01*
X153571428Y-52407200D02*
X153619047Y-52359580D01*
X153619047Y-52359580D02*
X153666666Y-52264342D01*
X153666666Y-52264342D02*
X153666666Y-52073866D01*
X153666666Y-52073866D02*
X153619047Y-51978628D01*
X153619047Y-51978628D02*
X153571428Y-51931009D01*
X153571428Y-51931009D02*
X153476190Y-51883390D01*
D14*
X112029047Y-52770270D02*
X111908095Y-52709794D01*
X111908095Y-52709794D02*
X111787142Y-52588842D01*
X111787142Y-52588842D02*
X111605714Y-52407413D01*
X111605714Y-52407413D02*
X111484761Y-52346937D01*
X111484761Y-52346937D02*
X111363809Y-52346937D01*
X111424285Y-52649318D02*
X111303333Y-52588842D01*
X111303333Y-52588842D02*
X111182380Y-52467889D01*
X111182380Y-52467889D02*
X111121904Y-52225984D01*
X111121904Y-52225984D02*
X111121904Y-51802651D01*
X111121904Y-51802651D02*
X111182380Y-51560746D01*
X111182380Y-51560746D02*
X111303333Y-51439794D01*
X111303333Y-51439794D02*
X111424285Y-51379318D01*
X111424285Y-51379318D02*
X111666190Y-51379318D01*
X111666190Y-51379318D02*
X111787142Y-51439794D01*
X111787142Y-51439794D02*
X111908095Y-51560746D01*
X111908095Y-51560746D02*
X111968571Y-51802651D01*
X111968571Y-51802651D02*
X111968571Y-52225984D01*
X111968571Y-52225984D02*
X111908095Y-52467889D01*
X111908095Y-52467889D02*
X111787142Y-52588842D01*
X111787142Y-52588842D02*
X111666190Y-52649318D01*
X111666190Y-52649318D02*
X111424285Y-52649318D01*
X112391904Y-51379318D02*
X113178095Y-51379318D01*
X113178095Y-51379318D02*
X112754761Y-51863127D01*
X112754761Y-51863127D02*
X112936190Y-51863127D01*
X112936190Y-51863127D02*
X113057142Y-51923603D01*
X113057142Y-51923603D02*
X113117618Y-51984080D01*
X113117618Y-51984080D02*
X113178095Y-52105032D01*
X113178095Y-52105032D02*
X113178095Y-52407413D01*
X113178095Y-52407413D02*
X113117618Y-52528365D01*
X113117618Y-52528365D02*
X113057142Y-52588842D01*
X113057142Y-52588842D02*
X112936190Y-52649318D01*
X112936190Y-52649318D02*
X112573333Y-52649318D01*
X112573333Y-52649318D02*
X112452380Y-52588842D01*
X112452380Y-52588842D02*
X112391904Y-52528365D01*
X143782380Y-43904318D02*
X143782380Y-44932413D01*
X143782380Y-44932413D02*
X143842857Y-45053365D01*
X143842857Y-45053365D02*
X143903333Y-45113842D01*
X143903333Y-45113842D02*
X144024285Y-45174318D01*
X144024285Y-45174318D02*
X144266190Y-45174318D01*
X144266190Y-45174318D02*
X144387142Y-45113842D01*
X144387142Y-45113842D02*
X144447619Y-45053365D01*
X144447619Y-45053365D02*
X144508095Y-44932413D01*
X144508095Y-44932413D02*
X144508095Y-43904318D01*
X145052380Y-44025270D02*
X145112856Y-43964794D01*
X145112856Y-43964794D02*
X145233809Y-43904318D01*
X145233809Y-43904318D02*
X145536190Y-43904318D01*
X145536190Y-43904318D02*
X145657142Y-43964794D01*
X145657142Y-43964794D02*
X145717618Y-44025270D01*
X145717618Y-44025270D02*
X145778095Y-44146222D01*
X145778095Y-44146222D02*
X145778095Y-44267175D01*
X145778095Y-44267175D02*
X145717618Y-44448603D01*
X145717618Y-44448603D02*
X144991904Y-45174318D01*
X144991904Y-45174318D02*
X145778095Y-45174318D01*
D15*
X148666666Y-64874819D02*
X148666666Y-65589104D01*
X148666666Y-65589104D02*
X148619047Y-65731961D01*
X148619047Y-65731961D02*
X148523809Y-65827200D01*
X148523809Y-65827200D02*
X148380952Y-65874819D01*
X148380952Y-65874819D02*
X148285714Y-65874819D01*
X149095238Y-64970057D02*
X149142857Y-64922438D01*
X149142857Y-64922438D02*
X149238095Y-64874819D01*
X149238095Y-64874819D02*
X149476190Y-64874819D01*
X149476190Y-64874819D02*
X149571428Y-64922438D01*
X149571428Y-64922438D02*
X149619047Y-64970057D01*
X149619047Y-64970057D02*
X149666666Y-65065295D01*
X149666666Y-65065295D02*
X149666666Y-65160533D01*
X149666666Y-65160533D02*
X149619047Y-65303390D01*
X149619047Y-65303390D02*
X149047619Y-65874819D01*
X149047619Y-65874819D02*
X149666666Y-65874819D01*
X111258333Y-66464819D02*
X110925000Y-65988628D01*
X110686905Y-66464819D02*
X110686905Y-65464819D01*
X110686905Y-65464819D02*
X111067857Y-65464819D01*
X111067857Y-65464819D02*
X111163095Y-65512438D01*
X111163095Y-65512438D02*
X111210714Y-65560057D01*
X111210714Y-65560057D02*
X111258333Y-65655295D01*
X111258333Y-65655295D02*
X111258333Y-65798152D01*
X111258333Y-65798152D02*
X111210714Y-65893390D01*
X111210714Y-65893390D02*
X111163095Y-65941009D01*
X111163095Y-65941009D02*
X111067857Y-65988628D01*
X111067857Y-65988628D02*
X110686905Y-65988628D01*
X111734524Y-66464819D02*
X111925000Y-66464819D01*
X111925000Y-66464819D02*
X112020238Y-66417200D01*
X112020238Y-66417200D02*
X112067857Y-66369580D01*
X112067857Y-66369580D02*
X112163095Y-66226723D01*
X112163095Y-66226723D02*
X112210714Y-66036247D01*
X112210714Y-66036247D02*
X112210714Y-65655295D01*
X112210714Y-65655295D02*
X112163095Y-65560057D01*
X112163095Y-65560057D02*
X112115476Y-65512438D01*
X112115476Y-65512438D02*
X112020238Y-65464819D01*
X112020238Y-65464819D02*
X111829762Y-65464819D01*
X111829762Y-65464819D02*
X111734524Y-65512438D01*
X111734524Y-65512438D02*
X111686905Y-65560057D01*
X111686905Y-65560057D02*
X111639286Y-65655295D01*
X111639286Y-65655295D02*
X111639286Y-65893390D01*
X111639286Y-65893390D02*
X111686905Y-65988628D01*
X111686905Y-65988628D02*
X111734524Y-66036247D01*
X111734524Y-66036247D02*
X111829762Y-66083866D01*
X111829762Y-66083866D02*
X112020238Y-66083866D01*
X112020238Y-66083866D02*
X112115476Y-66036247D01*
X112115476Y-66036247D02*
X112163095Y-65988628D01*
X112163095Y-65988628D02*
X112210714Y-65893390D01*
X151817142Y-50929819D02*
X151483809Y-50453628D01*
X151245714Y-50929819D02*
X151245714Y-49929819D01*
X151245714Y-49929819D02*
X151626666Y-49929819D01*
X151626666Y-49929819D02*
X151721904Y-49977438D01*
X151721904Y-49977438D02*
X151769523Y-50025057D01*
X151769523Y-50025057D02*
X151817142Y-50120295D01*
X151817142Y-50120295D02*
X151817142Y-50263152D01*
X151817142Y-50263152D02*
X151769523Y-50358390D01*
X151769523Y-50358390D02*
X151721904Y-50406009D01*
X151721904Y-50406009D02*
X151626666Y-50453628D01*
X151626666Y-50453628D02*
X151245714Y-50453628D01*
X152769523Y-50929819D02*
X152198095Y-50929819D01*
X152483809Y-50929819D02*
X152483809Y-49929819D01*
X152483809Y-49929819D02*
X152388571Y-50072676D01*
X152388571Y-50072676D02*
X152293333Y-50167914D01*
X152293333Y-50167914D02*
X152198095Y-50215533D01*
X153245714Y-50929819D02*
X153436190Y-50929819D01*
X153436190Y-50929819D02*
X153531428Y-50882200D01*
X153531428Y-50882200D02*
X153579047Y-50834580D01*
X153579047Y-50834580D02*
X153674285Y-50691723D01*
X153674285Y-50691723D02*
X153721904Y-50501247D01*
X153721904Y-50501247D02*
X153721904Y-50120295D01*
X153721904Y-50120295D02*
X153674285Y-50025057D01*
X153674285Y-50025057D02*
X153626666Y-49977438D01*
X153626666Y-49977438D02*
X153531428Y-49929819D01*
X153531428Y-49929819D02*
X153340952Y-49929819D01*
X153340952Y-49929819D02*
X153245714Y-49977438D01*
X153245714Y-49977438D02*
X153198095Y-50025057D01*
X153198095Y-50025057D02*
X153150476Y-50120295D01*
X153150476Y-50120295D02*
X153150476Y-50358390D01*
X153150476Y-50358390D02*
X153198095Y-50453628D01*
X153198095Y-50453628D02*
X153245714Y-50501247D01*
X153245714Y-50501247D02*
X153340952Y-50548866D01*
X153340952Y-50548866D02*
X153531428Y-50548866D01*
X153531428Y-50548866D02*
X153626666Y-50501247D01*
X153626666Y-50501247D02*
X153674285Y-50453628D01*
X153674285Y-50453628D02*
X153721904Y-50358390D01*
X116782142Y-66514819D02*
X116448809Y-66038628D01*
X116210714Y-66514819D02*
X116210714Y-65514819D01*
X116210714Y-65514819D02*
X116591666Y-65514819D01*
X116591666Y-65514819D02*
X116686904Y-65562438D01*
X116686904Y-65562438D02*
X116734523Y-65610057D01*
X116734523Y-65610057D02*
X116782142Y-65705295D01*
X116782142Y-65705295D02*
X116782142Y-65848152D01*
X116782142Y-65848152D02*
X116734523Y-65943390D01*
X116734523Y-65943390D02*
X116686904Y-65991009D01*
X116686904Y-65991009D02*
X116591666Y-66038628D01*
X116591666Y-66038628D02*
X116210714Y-66038628D01*
X117734523Y-66514819D02*
X117163095Y-66514819D01*
X117448809Y-66514819D02*
X117448809Y-65514819D01*
X117448809Y-65514819D02*
X117353571Y-65657676D01*
X117353571Y-65657676D02*
X117258333Y-65752914D01*
X117258333Y-65752914D02*
X117163095Y-65800533D01*
X118067857Y-65514819D02*
X118686904Y-65514819D01*
X118686904Y-65514819D02*
X118353571Y-65895771D01*
X118353571Y-65895771D02*
X118496428Y-65895771D01*
X118496428Y-65895771D02*
X118591666Y-65943390D01*
X118591666Y-65943390D02*
X118639285Y-65991009D01*
X118639285Y-65991009D02*
X118686904Y-66086247D01*
X118686904Y-66086247D02*
X118686904Y-66324342D01*
X118686904Y-66324342D02*
X118639285Y-66419580D01*
X118639285Y-66419580D02*
X118591666Y-66467200D01*
X118591666Y-66467200D02*
X118496428Y-66514819D01*
X118496428Y-66514819D02*
X118210714Y-66514819D01*
X118210714Y-66514819D02*
X118115476Y-66467200D01*
X118115476Y-66467200D02*
X118067857Y-66419580D01*
X131879819Y-72927857D02*
X131403628Y-73261190D01*
X131879819Y-73499285D02*
X130879819Y-73499285D01*
X130879819Y-73499285D02*
X130879819Y-73118333D01*
X130879819Y-73118333D02*
X130927438Y-73023095D01*
X130927438Y-73023095D02*
X130975057Y-72975476D01*
X130975057Y-72975476D02*
X131070295Y-72927857D01*
X131070295Y-72927857D02*
X131213152Y-72927857D01*
X131213152Y-72927857D02*
X131308390Y-72975476D01*
X131308390Y-72975476D02*
X131356009Y-73023095D01*
X131356009Y-73023095D02*
X131403628Y-73118333D01*
X131403628Y-73118333D02*
X131403628Y-73499285D01*
X131879819Y-71975476D02*
X131879819Y-72546904D01*
X131879819Y-72261190D02*
X130879819Y-72261190D01*
X130879819Y-72261190D02*
X131022676Y-72356428D01*
X131022676Y-72356428D02*
X131117914Y-72451666D01*
X131117914Y-72451666D02*
X131165533Y-72546904D01*
X130879819Y-71642142D02*
X130879819Y-70975476D01*
X130879819Y-70975476D02*
X131879819Y-71404047D01*
D14*
X96338218Y-63271358D02*
X96338218Y-62001358D01*
X97063933Y-63271358D02*
X96519647Y-62545643D01*
X97063933Y-62001358D02*
X96338218Y-62727072D01*
X97547742Y-62122310D02*
X97608218Y-62061834D01*
X97608218Y-62061834D02*
X97729171Y-62001358D01*
X97729171Y-62001358D02*
X98031552Y-62001358D01*
X98031552Y-62001358D02*
X98152504Y-62061834D01*
X98152504Y-62061834D02*
X98212980Y-62122310D01*
X98212980Y-62122310D02*
X98273457Y-62243262D01*
X98273457Y-62243262D02*
X98273457Y-62364215D01*
X98273457Y-62364215D02*
X98212980Y-62545643D01*
X98212980Y-62545643D02*
X97487266Y-63271358D01*
X97487266Y-63271358D02*
X98273457Y-63271358D01*
D15*
X151817142Y-56929819D02*
X151483809Y-56453628D01*
X151245714Y-56929819D02*
X151245714Y-55929819D01*
X151245714Y-55929819D02*
X151626666Y-55929819D01*
X151626666Y-55929819D02*
X151721904Y-55977438D01*
X151721904Y-55977438D02*
X151769523Y-56025057D01*
X151769523Y-56025057D02*
X151817142Y-56120295D01*
X151817142Y-56120295D02*
X151817142Y-56263152D01*
X151817142Y-56263152D02*
X151769523Y-56358390D01*
X151769523Y-56358390D02*
X151721904Y-56406009D01*
X151721904Y-56406009D02*
X151626666Y-56453628D01*
X151626666Y-56453628D02*
X151245714Y-56453628D01*
X152198095Y-56025057D02*
X152245714Y-55977438D01*
X152245714Y-55977438D02*
X152340952Y-55929819D01*
X152340952Y-55929819D02*
X152579047Y-55929819D01*
X152579047Y-55929819D02*
X152674285Y-55977438D01*
X152674285Y-55977438D02*
X152721904Y-56025057D01*
X152721904Y-56025057D02*
X152769523Y-56120295D01*
X152769523Y-56120295D02*
X152769523Y-56215533D01*
X152769523Y-56215533D02*
X152721904Y-56358390D01*
X152721904Y-56358390D02*
X152150476Y-56929819D01*
X152150476Y-56929819D02*
X152769523Y-56929819D01*
X153388571Y-55929819D02*
X153483809Y-55929819D01*
X153483809Y-55929819D02*
X153579047Y-55977438D01*
X153579047Y-55977438D02*
X153626666Y-56025057D01*
X153626666Y-56025057D02*
X153674285Y-56120295D01*
X153674285Y-56120295D02*
X153721904Y-56310771D01*
X153721904Y-56310771D02*
X153721904Y-56548866D01*
X153721904Y-56548866D02*
X153674285Y-56739342D01*
X153674285Y-56739342D02*
X153626666Y-56834580D01*
X153626666Y-56834580D02*
X153579047Y-56882200D01*
X153579047Y-56882200D02*
X153483809Y-56929819D01*
X153483809Y-56929819D02*
X153388571Y-56929819D01*
X153388571Y-56929819D02*
X153293333Y-56882200D01*
X153293333Y-56882200D02*
X153245714Y-56834580D01*
X153245714Y-56834580D02*
X153198095Y-56739342D01*
X153198095Y-56739342D02*
X153150476Y-56548866D01*
X153150476Y-56548866D02*
X153150476Y-56310771D01*
X153150476Y-56310771D02*
X153198095Y-56120295D01*
X153198095Y-56120295D02*
X153245714Y-56025057D01*
X153245714Y-56025057D02*
X153293333Y-55977438D01*
X153293333Y-55977438D02*
X153388571Y-55929819D01*
X155153333Y-84859580D02*
X155105714Y-84907200D01*
X155105714Y-84907200D02*
X154962857Y-84954819D01*
X154962857Y-84954819D02*
X154867619Y-84954819D01*
X154867619Y-84954819D02*
X154724762Y-84907200D01*
X154724762Y-84907200D02*
X154629524Y-84811961D01*
X154629524Y-84811961D02*
X154581905Y-84716723D01*
X154581905Y-84716723D02*
X154534286Y-84526247D01*
X154534286Y-84526247D02*
X154534286Y-84383390D01*
X154534286Y-84383390D02*
X154581905Y-84192914D01*
X154581905Y-84192914D02*
X154629524Y-84097676D01*
X154629524Y-84097676D02*
X154724762Y-84002438D01*
X154724762Y-84002438D02*
X154867619Y-83954819D01*
X154867619Y-83954819D02*
X154962857Y-83954819D01*
X154962857Y-83954819D02*
X155105714Y-84002438D01*
X155105714Y-84002438D02*
X155153333Y-84050057D01*
X156058095Y-83954819D02*
X155581905Y-83954819D01*
X155581905Y-83954819D02*
X155534286Y-84431009D01*
X155534286Y-84431009D02*
X155581905Y-84383390D01*
X155581905Y-84383390D02*
X155677143Y-84335771D01*
X155677143Y-84335771D02*
X155915238Y-84335771D01*
X155915238Y-84335771D02*
X156010476Y-84383390D01*
X156010476Y-84383390D02*
X156058095Y-84431009D01*
X156058095Y-84431009D02*
X156105714Y-84526247D01*
X156105714Y-84526247D02*
X156105714Y-84764342D01*
X156105714Y-84764342D02*
X156058095Y-84859580D01*
X156058095Y-84859580D02*
X156010476Y-84907200D01*
X156010476Y-84907200D02*
X155915238Y-84954819D01*
X155915238Y-84954819D02*
X155677143Y-84954819D01*
X155677143Y-84954819D02*
X155581905Y-84907200D01*
X155581905Y-84907200D02*
X155534286Y-84859580D01*
D14*
X96338218Y-87671358D02*
X96338218Y-86401358D01*
X97063933Y-87671358D02*
X96519647Y-86945643D01*
X97063933Y-86401358D02*
X96338218Y-87127072D01*
X98152504Y-86824691D02*
X98152504Y-87671358D01*
X97850123Y-86340882D02*
X97547742Y-87248024D01*
X97547742Y-87248024D02*
X98333933Y-87248024D01*
D15*
X125532142Y-69739819D02*
X125198809Y-69263628D01*
X124960714Y-69739819D02*
X124960714Y-68739819D01*
X124960714Y-68739819D02*
X125341666Y-68739819D01*
X125341666Y-68739819D02*
X125436904Y-68787438D01*
X125436904Y-68787438D02*
X125484523Y-68835057D01*
X125484523Y-68835057D02*
X125532142Y-68930295D01*
X125532142Y-68930295D02*
X125532142Y-69073152D01*
X125532142Y-69073152D02*
X125484523Y-69168390D01*
X125484523Y-69168390D02*
X125436904Y-69216009D01*
X125436904Y-69216009D02*
X125341666Y-69263628D01*
X125341666Y-69263628D02*
X124960714Y-69263628D01*
X126484523Y-69739819D02*
X125913095Y-69739819D01*
X126198809Y-69739819D02*
X126198809Y-68739819D01*
X126198809Y-68739819D02*
X126103571Y-68882676D01*
X126103571Y-68882676D02*
X126008333Y-68977914D01*
X126008333Y-68977914D02*
X125913095Y-69025533D01*
X127055952Y-69168390D02*
X126960714Y-69120771D01*
X126960714Y-69120771D02*
X126913095Y-69073152D01*
X126913095Y-69073152D02*
X126865476Y-68977914D01*
X126865476Y-68977914D02*
X126865476Y-68930295D01*
X126865476Y-68930295D02*
X126913095Y-68835057D01*
X126913095Y-68835057D02*
X126960714Y-68787438D01*
X126960714Y-68787438D02*
X127055952Y-68739819D01*
X127055952Y-68739819D02*
X127246428Y-68739819D01*
X127246428Y-68739819D02*
X127341666Y-68787438D01*
X127341666Y-68787438D02*
X127389285Y-68835057D01*
X127389285Y-68835057D02*
X127436904Y-68930295D01*
X127436904Y-68930295D02*
X127436904Y-68977914D01*
X127436904Y-68977914D02*
X127389285Y-69073152D01*
X127389285Y-69073152D02*
X127341666Y-69120771D01*
X127341666Y-69120771D02*
X127246428Y-69168390D01*
X127246428Y-69168390D02*
X127055952Y-69168390D01*
X127055952Y-69168390D02*
X126960714Y-69216009D01*
X126960714Y-69216009D02*
X126913095Y-69263628D01*
X126913095Y-69263628D02*
X126865476Y-69358866D01*
X126865476Y-69358866D02*
X126865476Y-69549342D01*
X126865476Y-69549342D02*
X126913095Y-69644580D01*
X126913095Y-69644580D02*
X126960714Y-69692200D01*
X126960714Y-69692200D02*
X127055952Y-69739819D01*
X127055952Y-69739819D02*
X127246428Y-69739819D01*
X127246428Y-69739819D02*
X127341666Y-69692200D01*
X127341666Y-69692200D02*
X127389285Y-69644580D01*
X127389285Y-69644580D02*
X127436904Y-69549342D01*
X127436904Y-69549342D02*
X127436904Y-69358866D01*
X127436904Y-69358866D02*
X127389285Y-69263628D01*
X127389285Y-69263628D02*
X127341666Y-69216009D01*
X127341666Y-69216009D02*
X127246428Y-69168390D01*
X114532142Y-72764819D02*
X114198809Y-72288628D01*
X113960714Y-72764819D02*
X113960714Y-71764819D01*
X113960714Y-71764819D02*
X114341666Y-71764819D01*
X114341666Y-71764819D02*
X114436904Y-71812438D01*
X114436904Y-71812438D02*
X114484523Y-71860057D01*
X114484523Y-71860057D02*
X114532142Y-71955295D01*
X114532142Y-71955295D02*
X114532142Y-72098152D01*
X114532142Y-72098152D02*
X114484523Y-72193390D01*
X114484523Y-72193390D02*
X114436904Y-72241009D01*
X114436904Y-72241009D02*
X114341666Y-72288628D01*
X114341666Y-72288628D02*
X113960714Y-72288628D01*
X115484523Y-72764819D02*
X114913095Y-72764819D01*
X115198809Y-72764819D02*
X115198809Y-71764819D01*
X115198809Y-71764819D02*
X115103571Y-71907676D01*
X115103571Y-71907676D02*
X115008333Y-72002914D01*
X115008333Y-72002914D02*
X114913095Y-72050533D01*
X115865476Y-71860057D02*
X115913095Y-71812438D01*
X115913095Y-71812438D02*
X116008333Y-71764819D01*
X116008333Y-71764819D02*
X116246428Y-71764819D01*
X116246428Y-71764819D02*
X116341666Y-71812438D01*
X116341666Y-71812438D02*
X116389285Y-71860057D01*
X116389285Y-71860057D02*
X116436904Y-71955295D01*
X116436904Y-71955295D02*
X116436904Y-72050533D01*
X116436904Y-72050533D02*
X116389285Y-72193390D01*
X116389285Y-72193390D02*
X115817857Y-72764819D01*
X115817857Y-72764819D02*
X116436904Y-72764819D01*
X156359580Y-68416666D02*
X156407200Y-68464285D01*
X156407200Y-68464285D02*
X156454819Y-68607142D01*
X156454819Y-68607142D02*
X156454819Y-68702380D01*
X156454819Y-68702380D02*
X156407200Y-68845237D01*
X156407200Y-68845237D02*
X156311961Y-68940475D01*
X156311961Y-68940475D02*
X156216723Y-68988094D01*
X156216723Y-68988094D02*
X156026247Y-69035713D01*
X156026247Y-69035713D02*
X155883390Y-69035713D01*
X155883390Y-69035713D02*
X155692914Y-68988094D01*
X155692914Y-68988094D02*
X155597676Y-68940475D01*
X155597676Y-68940475D02*
X155502438Y-68845237D01*
X155502438Y-68845237D02*
X155454819Y-68702380D01*
X155454819Y-68702380D02*
X155454819Y-68607142D01*
X155454819Y-68607142D02*
X155502438Y-68464285D01*
X155502438Y-68464285D02*
X155550057Y-68416666D01*
X156454819Y-67940475D02*
X156454819Y-67749999D01*
X156454819Y-67749999D02*
X156407200Y-67654761D01*
X156407200Y-67654761D02*
X156359580Y-67607142D01*
X156359580Y-67607142D02*
X156216723Y-67511904D01*
X156216723Y-67511904D02*
X156026247Y-67464285D01*
X156026247Y-67464285D02*
X155645295Y-67464285D01*
X155645295Y-67464285D02*
X155550057Y-67511904D01*
X155550057Y-67511904D02*
X155502438Y-67559523D01*
X155502438Y-67559523D02*
X155454819Y-67654761D01*
X155454819Y-67654761D02*
X155454819Y-67845237D01*
X155454819Y-67845237D02*
X155502438Y-67940475D01*
X155502438Y-67940475D02*
X155550057Y-67988094D01*
X155550057Y-67988094D02*
X155645295Y-68035713D01*
X155645295Y-68035713D02*
X155883390Y-68035713D01*
X155883390Y-68035713D02*
X155978628Y-67988094D01*
X155978628Y-67988094D02*
X156026247Y-67940475D01*
X156026247Y-67940475D02*
X156073866Y-67845237D01*
X156073866Y-67845237D02*
X156073866Y-67654761D01*
X156073866Y-67654761D02*
X156026247Y-67559523D01*
X156026247Y-67559523D02*
X155978628Y-67511904D01*
X155978628Y-67511904D02*
X155883390Y-67464285D01*
X152666666Y-45454819D02*
X152666666Y-46169104D01*
X152666666Y-46169104D02*
X152619047Y-46311961D01*
X152619047Y-46311961D02*
X152523809Y-46407200D01*
X152523809Y-46407200D02*
X152380952Y-46454819D01*
X152380952Y-46454819D02*
X152285714Y-46454819D01*
X153047619Y-45454819D02*
X153714285Y-45454819D01*
X153714285Y-45454819D02*
X153285714Y-46454819D01*
D10*
%TO.C,J3*%
X133580000Y-97592500D02*
X108720000Y-97592500D01*
X133580000Y-88672500D02*
X133580000Y-97592500D01*
X133150000Y-88672500D02*
X133580000Y-88672500D01*
X108720000Y-97592500D02*
X108720000Y-88672500D01*
X108720000Y-88672500D02*
X109150000Y-88672500D01*
D11*
%TO.C,J11*%
X154100000Y-88680000D02*
G75*
G02*
X154000000Y-88680000I-50000J0D01*
G01*
X154100000Y-88680000D02*
G75*
G02*
X154000000Y-88680000I-50000J0D01*
G01*
X154000000Y-88680000D02*
G75*
G02*
X154100000Y-88680000I50000J0D01*
G01*
X154100000Y-88680000D02*
X154100000Y-88680000D01*
X154000000Y-88680000D02*
X154000000Y-88680000D01*
X154000000Y-88680000D02*
X154000000Y-88680000D01*
X153500000Y-97600000D02*
X137500000Y-97600000D01*
X153500000Y-88680000D02*
X153500000Y-97600000D01*
X151200000Y-88680000D02*
X153500000Y-88680000D01*
X137500000Y-97600000D02*
X137500000Y-88680000D01*
X137500000Y-88680000D02*
X139800000Y-88680000D01*
%TO.C,D7*%
X128475000Y-67160000D02*
X131025000Y-67160000D01*
X129325000Y-68410000D02*
X131025000Y-68410000D01*
D16*
%TO.C,C7*%
X158210580Y-71490000D02*
X157929420Y-71490000D01*
X158210580Y-72510000D02*
X157929420Y-72510000D01*
%TO.C,C4*%
X158210580Y-82240000D02*
X157929420Y-82240000D01*
X158210580Y-83260000D02*
X157929420Y-83260000D01*
D11*
%TO.C,D5*%
X114800000Y-70510000D02*
X114800000Y-67960000D01*
X116050000Y-69660000D02*
X116050000Y-67960000D01*
D16*
%TO.C,J4*%
X124845000Y-73840000D02*
X124845000Y-72510000D01*
X126175000Y-73840000D02*
X124845000Y-73840000D01*
X127445000Y-71180000D02*
X130045000Y-71180000D01*
X127445000Y-73840000D02*
X127445000Y-71180000D01*
X127445000Y-73840000D02*
X130045000Y-73840000D01*
X130045000Y-73840000D02*
X130045000Y-71180000D01*
D11*
%TO.C,Q2*%
X107350000Y-45865000D02*
X108450000Y-45865000D01*
X108800000Y-45950000D02*
X109100000Y-45950000D01*
X108800000Y-48850000D02*
X108800000Y-45950000D01*
X109100000Y-45950000D02*
X109100000Y-48850000D01*
X109100000Y-48850000D02*
X108800000Y-48850000D01*
D16*
%TO.C,J10*%
X153880000Y-64170000D02*
X153880000Y-66830000D01*
X156480000Y-64170000D02*
X153880000Y-64170000D01*
X156480000Y-64170000D02*
X156480000Y-66830000D01*
X156480000Y-66830000D02*
X153880000Y-66830000D01*
X157750000Y-64170000D02*
X159080000Y-64170000D01*
X159080000Y-64170000D02*
X159080000Y-65500000D01*
%TO.C,J6*%
X117500000Y-40370000D02*
X117500000Y-43130000D01*
X125230000Y-40370000D02*
X117500000Y-40370000D01*
X125230000Y-40370000D02*
X125230000Y-43130000D01*
X125230000Y-43130000D02*
X117500000Y-43130000D01*
X126500000Y-40370000D02*
X127880000Y-40370000D01*
X127880000Y-40370000D02*
X127880000Y-41750000D01*
%TO.C,R21*%
X151977500Y-59987742D02*
X151977500Y-60462258D01*
X153022500Y-59987742D02*
X153022500Y-60462258D01*
D17*
%TO.C,S1*%
X111250000Y-81500000D02*
X111250000Y-75500000D01*
X117250000Y-75500000D02*
X111250000Y-75500000D01*
X117250000Y-75500000D02*
X117250000Y-81500000D01*
X117250000Y-81500000D02*
X111250000Y-81500000D01*
D11*
X108100000Y-76200000D02*
G75*
G02*
X107900000Y-76200000I-100000J0D01*
G01*
X107900000Y-76200000D02*
G75*
G02*
X108100000Y-76200000I100000J0D01*
G01*
D16*
%TO.C,C8*%
X158210580Y-69740000D02*
X157929420Y-69740000D01*
X158210580Y-70760000D02*
X157929420Y-70760000D01*
D11*
%TO.C,K3*%
X91075000Y-79195000D02*
X91075000Y-71695000D01*
X93933000Y-71695000D02*
X97268000Y-71695000D01*
X93933000Y-79195000D02*
X97268000Y-79195000D01*
X106075000Y-71695000D02*
X104115000Y-71695000D01*
X106075000Y-71695000D02*
X106075000Y-79195000D01*
X106075000Y-79195000D02*
X104115000Y-79195000D01*
D18*
X93266000Y-81122000D02*
G75*
G02*
X92910000Y-81122000I-178000J0D01*
G01*
X92910000Y-81122000D02*
G75*
G02*
X93266000Y-81122000I178000J0D01*
G01*
D16*
%TO.C,J9*%
X153880000Y-58145000D02*
X153880000Y-60805000D01*
X156480000Y-58145000D02*
X153880000Y-58145000D01*
X156480000Y-58145000D02*
X156480000Y-60805000D01*
X156480000Y-60805000D02*
X153880000Y-60805000D01*
X157750000Y-58145000D02*
X159080000Y-58145000D01*
X159080000Y-58145000D02*
X159080000Y-59475000D01*
D11*
%TO.C,U3*%
X153498000Y-73248000D02*
X157002000Y-73248000D01*
X153498000Y-79752000D02*
X153498000Y-73248000D01*
X157002000Y-73248000D02*
X157002000Y-79752000D01*
X157002000Y-79752000D02*
X153498000Y-79752000D01*
X159275000Y-79625000D02*
X157925000Y-79625000D01*
D16*
%TO.C,J5*%
X121120000Y-65955000D02*
X122450000Y-65955000D01*
X121120000Y-67285000D02*
X121120000Y-65955000D01*
X121120000Y-68555000D02*
X121120000Y-71155000D01*
X121120000Y-68555000D02*
X123780000Y-68555000D01*
X121120000Y-71155000D02*
X123780000Y-71155000D01*
X123780000Y-68555000D02*
X123780000Y-71155000D01*
%TO.C,C6*%
X158185580Y-80490000D02*
X157904420Y-80490000D01*
X158185580Y-81510000D02*
X157904420Y-81510000D01*
%TO.C,D16*%
X152014000Y-71810000D02*
X152170000Y-71810000D01*
X154330000Y-71810000D02*
X154486000Y-71810000D01*
X152014484Y-71810000D02*
G75*
G02*
X152170000Y-68578563I1235516J1560000D01*
G01*
X152170000Y-71290961D02*
G75*
G02*
X152170000Y-69209039I1080000J1040961D01*
G01*
X154330000Y-68578563D02*
G75*
G02*
X154485516Y-71810000I-1080000J-1671437D01*
G01*
X154330000Y-69209039D02*
G75*
G02*
X154330000Y-71290961I-1080000J-1040961D01*
G01*
D17*
%TO.C,S2*%
X123750000Y-81500000D02*
X123750000Y-75500000D01*
X129750000Y-75500000D02*
X123750000Y-75500000D01*
X129750000Y-75500000D02*
X129750000Y-81500000D01*
X129750000Y-81500000D02*
X123750000Y-81500000D01*
D11*
X120600000Y-76200000D02*
G75*
G02*
X120400000Y-76200000I-100000J0D01*
G01*
X120400000Y-76200000D02*
G75*
G02*
X120600000Y-76200000I100000J0D01*
G01*
%TO.C,Q4*%
X107350000Y-54965000D02*
X108450000Y-54965000D01*
X108800000Y-55050000D02*
X109100000Y-55050000D01*
X108800000Y-57950000D02*
X108800000Y-55050000D01*
X109100000Y-55050000D02*
X109100000Y-57950000D01*
X109100000Y-57950000D02*
X108800000Y-57950000D01*
%TO.C,D4*%
X108800000Y-70460000D02*
X108800000Y-67910000D01*
X110050000Y-69610000D02*
X110050000Y-67910000D01*
%TO.C,K1*%
X91075000Y-54795000D02*
X91075000Y-47295000D01*
X93933000Y-47295000D02*
X97268000Y-47295000D01*
X93933000Y-54795000D02*
X97268000Y-54795000D01*
X106075000Y-47295000D02*
X104115000Y-47295000D01*
X106075000Y-47295000D02*
X106075000Y-54795000D01*
X106075000Y-54795000D02*
X104115000Y-54795000D01*
D18*
X93266000Y-56722000D02*
G75*
G02*
X92910000Y-56722000I-178000J0D01*
G01*
X92910000Y-56722000D02*
G75*
G02*
X93266000Y-56722000I178000J0D01*
G01*
D11*
%TO.C,Q1*%
X107350000Y-41315000D02*
X108450000Y-41315000D01*
X108800000Y-41400000D02*
X109100000Y-41400000D01*
X108800000Y-44300000D02*
X108800000Y-41400000D01*
X109100000Y-41400000D02*
X109100000Y-44300000D01*
X109100000Y-44300000D02*
X108800000Y-44300000D01*
D16*
%TO.C,R16*%
X122437742Y-72012500D02*
X122912258Y-72012500D01*
X122437742Y-73057500D02*
X122912258Y-73057500D01*
%TO.C,R22*%
X151977500Y-65987742D02*
X151977500Y-66462258D01*
X153022500Y-65987742D02*
X153022500Y-66462258D01*
%TO.C,R8*%
X110902500Y-71747258D02*
X110902500Y-71272742D01*
X111947500Y-71747258D02*
X111947500Y-71272742D01*
%TO.C,J1*%
X147420000Y-52920000D02*
X148750000Y-52920000D01*
X147420000Y-54250000D02*
X147420000Y-52920000D01*
X147420000Y-55520000D02*
X147420000Y-63200000D01*
X147420000Y-55520000D02*
X150080000Y-55520000D01*
X147420000Y-63200000D02*
X150080000Y-63200000D01*
X150080000Y-55520000D02*
X150080000Y-63200000D01*
%TO.C,J8*%
X153880000Y-52170000D02*
X153880000Y-54830000D01*
X156480000Y-52170000D02*
X153880000Y-52170000D01*
X156480000Y-52170000D02*
X156480000Y-54830000D01*
X156480000Y-54830000D02*
X153880000Y-54830000D01*
X157750000Y-52170000D02*
X159080000Y-52170000D01*
X159080000Y-52170000D02*
X159080000Y-53500000D01*
D11*
%TO.C,Q3*%
X107350000Y-50415000D02*
X108450000Y-50415000D01*
X108800000Y-50500000D02*
X109100000Y-50500000D01*
X108800000Y-53400000D02*
X108800000Y-50500000D01*
X109100000Y-50500000D02*
X109100000Y-53400000D01*
X109100000Y-53400000D02*
X108800000Y-53400000D01*
%TO.C,U2*%
X117925000Y-45175000D02*
X117925000Y-46375000D01*
X117925000Y-61975000D02*
X117925000Y-63175000D01*
X117925000Y-63175000D02*
X118675000Y-63175000D01*
X118675000Y-45175000D02*
X117925000Y-45175000D01*
D10*
X135935000Y-44075000D02*
X135935000Y-44075000D01*
X135935000Y-44175000D02*
X135935000Y-44175000D01*
D11*
X136875000Y-63175000D02*
X143425000Y-63175000D01*
X143425000Y-45175000D02*
X136875000Y-45175000D01*
X143425000Y-63175000D02*
X143425000Y-45175000D01*
D10*
X135935000Y-44075000D02*
G75*
G02*
X135935000Y-44175000I0J-50000D01*
G01*
X135935000Y-44175000D02*
G75*
G02*
X135935000Y-44075000I0J50000D01*
G01*
D16*
%TO.C,J2*%
X147670000Y-66420000D02*
X149000000Y-66420000D01*
X147670000Y-67750000D02*
X147670000Y-66420000D01*
X147670000Y-69020000D02*
X147670000Y-71620000D01*
X147670000Y-69020000D02*
X150330000Y-69020000D01*
X147670000Y-71620000D02*
X150330000Y-71620000D01*
X150330000Y-69020000D02*
X150330000Y-71620000D01*
%TO.C,R9*%
X110902500Y-68497258D02*
X110902500Y-68022742D01*
X111947500Y-68497258D02*
X111947500Y-68022742D01*
%TO.C,R19*%
X151977500Y-47987742D02*
X151977500Y-48462258D01*
X153022500Y-47987742D02*
X153022500Y-48462258D01*
%TO.C,R13*%
X116902500Y-68547258D02*
X116902500Y-68072742D01*
X117947500Y-68547258D02*
X117947500Y-68072742D01*
%TO.C,R17*%
X129437742Y-69262500D02*
X129912258Y-69262500D01*
X129437742Y-70307500D02*
X129912258Y-70307500D01*
D11*
%TO.C,K2*%
X91075000Y-66995000D02*
X91075000Y-59495000D01*
X93933000Y-59495000D02*
X97268000Y-59495000D01*
X93933000Y-66995000D02*
X97268000Y-66995000D01*
X106075000Y-59495000D02*
X104115000Y-59495000D01*
X106075000Y-59495000D02*
X106075000Y-66995000D01*
X106075000Y-66995000D02*
X104115000Y-66995000D01*
D18*
X93266000Y-68922000D02*
G75*
G02*
X92910000Y-68922000I-178000J0D01*
G01*
X92910000Y-68922000D02*
G75*
G02*
X93266000Y-68922000I178000J0D01*
G01*
D16*
%TO.C,R20*%
X151977500Y-53987742D02*
X151977500Y-54462258D01*
X153022500Y-53987742D02*
X153022500Y-54462258D01*
%TO.C,C5*%
X158210580Y-83990000D02*
X157929420Y-83990000D01*
X158210580Y-85010000D02*
X157929420Y-85010000D01*
D11*
%TO.C,K4*%
X91075000Y-91395000D02*
X91075000Y-83895000D01*
X93933000Y-83895000D02*
X97268000Y-83895000D01*
X93933000Y-91395000D02*
X97268000Y-91395000D01*
X106075000Y-83895000D02*
X104115000Y-83895000D01*
X106075000Y-83895000D02*
X106075000Y-91395000D01*
X106075000Y-91395000D02*
X104115000Y-91395000D01*
D18*
X93266000Y-93322000D02*
G75*
G02*
X92910000Y-93322000I-178000J0D01*
G01*
X92910000Y-93322000D02*
G75*
G02*
X93266000Y-93322000I178000J0D01*
G01*
D16*
%TO.C,R18*%
X125937742Y-67262500D02*
X126412258Y-67262500D01*
X125937742Y-68307500D02*
X126412258Y-68307500D01*
%TO.C,R12*%
X116902500Y-71797258D02*
X116902500Y-71322742D01*
X117947500Y-71797258D02*
X117947500Y-71322742D01*
%TO.C,C9*%
X158210580Y-67990000D02*
X157929420Y-67990000D01*
X158210580Y-69010000D02*
X157929420Y-69010000D01*
%TO.C,J7*%
X153880000Y-46145000D02*
X153880000Y-48805000D01*
X156480000Y-46145000D02*
X153880000Y-46145000D01*
X156480000Y-46145000D02*
X156480000Y-48805000D01*
X156480000Y-48805000D02*
X153880000Y-48805000D01*
X157750000Y-46145000D02*
X159080000Y-46145000D01*
X159080000Y-46145000D02*
X159080000Y-47475000D01*
%TD*%
M02*
