%TF.GenerationSoftware,KiCad,Pcbnew,9.0.3*%
%TF.CreationDate,2025-07-23T10:37:13+02:00*%
%TF.ProjectId,DinoSpand_v2.0,44696e6f-5370-4616-9e64-5f76322e302e,rev?*%
%TF.SameCoordinates,Original*%
%TF.FileFunction,Paste,Bot*%
%TF.FilePolarity,Positive*%
%FSLAX46Y46*%
G04 Gerber Fmt 4.6, Leading zero omitted, Abs format (unit mm)*
G04 Created by KiCad (PCBNEW 9.0.3) date 2025-07-23 10:37:13*
%MOMM*%
%LPD*%
G01*
G04 APERTURE LIST*
G04 Aperture macros list*
%AMRoundRect*
0 Rectangle with rounded corners*
0 $1 Rounding radius*
0 $2 $3 $4 $5 $6 $7 $8 $9 X,Y pos of 4 corners*
0 Add a 4 corners polygon primitive as box body*
4,1,4,$2,$3,$4,$5,$6,$7,$8,$9,$2,$3,0*
0 Add four circle primitives for the rounded corners*
1,1,$1+$1,$2,$3*
1,1,$1+$1,$4,$5*
1,1,$1+$1,$6,$7*
1,1,$1+$1,$8,$9*
0 Add four rect primitives between the rounded corners*
20,1,$1+$1,$2,$3,$4,$5,0*
20,1,$1+$1,$4,$5,$6,$7,0*
20,1,$1+$1,$6,$7,$8,$9,0*
20,1,$1+$1,$8,$9,$2,$3,0*%
G04 Aperture macros list end*
%ADD10RoundRect,0.200000X0.200000X0.275000X-0.200000X0.275000X-0.200000X-0.275000X0.200000X-0.275000X0*%
%ADD11R,0.640000X0.420000*%
%ADD12RoundRect,0.200000X0.275000X-0.200000X0.275000X0.200000X-0.275000X0.200000X-0.275000X-0.200000X0*%
%ADD13RoundRect,0.225000X-0.225000X-0.250000X0.225000X-0.250000X0.225000X0.250000X-0.225000X0.250000X0*%
%ADD14R,1.000000X0.500000*%
%ADD15R,0.420000X0.720000*%
%ADD16RoundRect,0.225000X-0.250000X0.225000X-0.250000X-0.225000X0.250000X-0.225000X0.250000X0.225000X0*%
%ADD17RoundRect,0.200000X-0.275000X0.200000X-0.275000X-0.200000X0.275000X-0.200000X0.275000X0.200000X0*%
%ADD18R,0.420000X0.640000*%
G04 APERTURE END LIST*
D10*
%TO.C,R10*%
X110975000Y-51075000D03*
X109325000Y-51075000D03*
%TD*%
D11*
%TO.C,D15*%
X126750000Y-44250000D03*
X128250000Y-44250000D03*
%TD*%
D12*
%TO.C,R30*%
X148250000Y-80000000D03*
X148250000Y-78350000D03*
%TD*%
D13*
%TO.C,C2*%
X134675000Y-48175000D03*
X136225000Y-48175000D03*
%TD*%
D12*
%TO.C,R1*%
X133200000Y-49750000D03*
X133200000Y-48100000D03*
%TD*%
%TO.C,R26*%
X144000000Y-79825000D03*
X144000000Y-78175000D03*
%TD*%
D10*
%TO.C,R14*%
X110975000Y-55575000D03*
X109325000Y-55575000D03*
%TD*%
D13*
%TO.C,C1*%
X134675000Y-49675000D03*
X136225000Y-49675000D03*
%TD*%
D10*
%TO.C,R2*%
X110975000Y-41825000D03*
X109325000Y-41825000D03*
%TD*%
%TO.C,R6*%
X110975000Y-48325000D03*
X109325000Y-48325000D03*
%TD*%
%TO.C,R11*%
X110975000Y-52825000D03*
X109325000Y-52825000D03*
%TD*%
D12*
%TO.C,R29*%
X148250000Y-83175000D03*
X148250000Y-81525000D03*
%TD*%
D10*
%TO.C,R5*%
X110975000Y-46575000D03*
X109325000Y-46575000D03*
%TD*%
D14*
%TO.C,D11*%
X149200000Y-76250000D03*
X146800000Y-76250000D03*
%TD*%
D15*
%TO.C,D6*%
X92101551Y-88820552D03*
X92101551Y-86420552D03*
%TD*%
D16*
%TO.C,C3*%
X131700000Y-48150000D03*
X131700000Y-49700000D03*
%TD*%
D17*
%TO.C,R4*%
X119925000Y-49350000D03*
X119925000Y-51000000D03*
%TD*%
D14*
%TO.C,D8*%
X153450000Y-76250000D03*
X151050000Y-76250000D03*
%TD*%
D15*
%TO.C,D3*%
X92098888Y-76591233D03*
X92098888Y-74191233D03*
%TD*%
D11*
%TO.C,D14*%
X123940000Y-44276476D03*
X125440000Y-44276476D03*
%TD*%
D10*
%TO.C,R15*%
X110975000Y-57325000D03*
X109325000Y-57325000D03*
%TD*%
%TO.C,R31*%
X157825000Y-67250000D03*
X156175000Y-67250000D03*
%TD*%
D12*
%TO.C,R24*%
X152500000Y-79825000D03*
X152500000Y-78175000D03*
%TD*%
D18*
%TO.C,D12*%
X128190000Y-47000000D03*
X128190000Y-45500000D03*
%TD*%
D10*
%TO.C,R3*%
X110975000Y-43825000D03*
X109325000Y-43825000D03*
%TD*%
D14*
%TO.C,D10*%
X140700000Y-76261340D03*
X138300000Y-76261340D03*
%TD*%
D12*
%TO.C,R25*%
X144000000Y-83075000D03*
X144000000Y-81425000D03*
%TD*%
D15*
%TO.C,D1*%
X92075000Y-52225000D03*
X92075000Y-49825000D03*
%TD*%
D12*
%TO.C,R28*%
X139750000Y-79911340D03*
X139750000Y-78261340D03*
%TD*%
%TO.C,R7*%
X119925000Y-54000000D03*
X119925000Y-52350000D03*
%TD*%
%TO.C,R27*%
X139750000Y-83086340D03*
X139750000Y-81436340D03*
%TD*%
D14*
%TO.C,D9*%
X144950000Y-76250000D03*
X142550000Y-76250000D03*
%TD*%
D11*
%TO.C,D13*%
X121190000Y-44250000D03*
X122690000Y-44250000D03*
%TD*%
D12*
%TO.C,R23*%
X152500000Y-83075000D03*
X152500000Y-81425000D03*
%TD*%
D15*
%TO.C,D2*%
X92062612Y-64442980D03*
X92062612Y-62042980D03*
%TD*%
M02*
