M48
; DRILL file {KiCad 9.0.3} date 2025-07-23T10:37:10+0200
; FORMAT={-:-/ absolute / inch / decimal}
; #@! TF.CreationDate,2025-07-23T10:37:10+02:00
; #@! TF.GenerationSoftware,Kicad,Pcbnew,9.0.3
; #@! TF.FileFunction,Plated,1,2,PTH
FMAT,2
INCH
; #@! TA.AperFunction,Plated,PTH,ViaDrill
T1C0.0118
; #@! TA.AperFunction,Plated,PTH,ViaDrill
T2C0.0157
; #@! TA.AperFunction,Plated,PTH,ViaDrill
T3C0.0236
; #@! TA.AperFunction,Plated,PTH,ComponentDrill
T4C0.0354
; #@! TA.AperFunction,Plated,PTH,ComponentDrill
T5C0.0394
; #@! TA.AperFunction,Plated,PTH,ComponentDrill
T6C0.0402
; #@! TA.AperFunction,Plated,PTH,ViaDrill
T7C0.1181
%
G90
G05
T1
X3.6713Y-1.998
X3.6713Y-2.0571
X3.6713Y-2.4705
X3.6713Y-2.5295
X3.6713Y-2.9429
X3.6713Y-3.002
X3.6713Y-3.4154
X3.6713Y-3.4744
X3.7303Y-1.939
X3.7303Y-1.998
X3.7303Y-2.0571
X3.7303Y-2.4114
X3.7303Y-2.4705
X3.7303Y-2.5295
X3.7303Y-2.5886
X3.7303Y-2.8839
X3.7303Y-2.9429
X3.7303Y-3.002
X3.7303Y-3.061
X3.7303Y-3.1791
X3.7303Y-3.3563
X3.7303Y-3.4154
X3.7303Y-3.4744
X3.7303Y-3.5335
X3.7303Y-3.6516
X3.7894Y-1.6437
X3.7894Y-1.8799
X3.7894Y-1.939
X3.7894Y-1.998
X3.7894Y-2.0571
X3.7894Y-3.6516
X3.7894Y-3.7106
X3.7894Y-3.7697
X3.7894Y-3.8287
X3.8484Y-1.998
X3.8484Y-2.0571
X3.8484Y-3.7106
X3.8484Y-3.7697
X3.8484Y-3.8287
X3.9075Y-1.7618
X3.9075Y-1.998
X3.9075Y-2.4705
X3.9075Y-2.9429
X3.9075Y-3.4154
X3.9075Y-3.7106
X3.9075Y-3.7697
X3.9075Y-3.8287
X3.9665Y-1.7028
X3.9665Y-1.7618
X3.9665Y-3.4154
X3.9665Y-3.7106
X3.9665Y-3.7697
X3.9665Y-3.8287
X4.0256Y-1.7028
X4.0256Y-1.7618
X4.0256Y-2.0571
X4.0256Y-3.4154
X4.0256Y-3.7106
X4.0256Y-3.7697
X4.0256Y-3.8287
X4.0846Y-1.7028
X4.0846Y-1.7618
X4.0846Y-2.0571
X4.0846Y-3.4154
X4.0846Y-3.7106
X4.0846Y-3.7697
X4.0846Y-3.8287
X4.1437Y-1.7028
X4.1437Y-1.7618
X4.1437Y-1.8209
X4.1437Y-3.4154
X4.1437Y-3.6516
X4.1437Y-3.7106
X4.1437Y-3.7697
X4.1437Y-3.8287
X4.2028Y-3.4154
X4.2028Y-3.6516
X4.2028Y-3.7106
X4.2028Y-3.7697
X4.2028Y-3.8287
X4.248Y-1.7248
X4.248Y-1.9039
X4.248Y-2.0831
X4.248Y-2.2622
X4.2618Y-2.3524
X4.2618Y-2.4114
X4.2618Y-3.6516
X4.2618Y-3.7106
X4.2618Y-3.7697
X4.2618Y-3.8287
X4.3209Y-2.3524
X4.3209Y-2.4114
X4.3209Y-2.4705
X4.3209Y-2.5295
X4.3209Y-2.5886
X4.3209Y-2.8248
X4.3209Y-2.8839
X4.3209Y-3.002
X4.3209Y-3.6516
X4.3209Y-3.7106
X4.3209Y-3.7697
X4.3209Y-3.8287
X4.3799Y-2.3524
X4.3799Y-2.4114
X4.3799Y-2.4705
X4.3799Y-2.5295
X4.3799Y-2.5886
X4.3799Y-3.7697
X4.3799Y-3.8287
X4.439Y-2.3524
X4.439Y-2.4114
X4.439Y-2.4705
X4.439Y-2.5295
X4.439Y-2.5886
X4.439Y-2.7657
X4.439Y-2.9429
X4.439Y-3.061
X4.439Y-3.1201
X4.439Y-3.1791
X4.439Y-3.7697
X4.439Y-3.8287
X4.498Y-1.6437
X4.498Y-1.7028
X4.498Y-1.7618
X4.498Y-1.8209
X4.498Y-1.8799
X4.498Y-1.939
X4.498Y-1.998
X4.498Y-2.0571
X4.498Y-2.7067
X4.498Y-2.7657
X4.498Y-3.7697
X4.498Y-3.8287
X4.5571Y-1.6437
X4.5571Y-1.7028
X4.5571Y-1.7618
X4.5571Y-1.8209
X4.5571Y-1.8799
X4.5571Y-1.939
X4.5571Y-1.998
X4.5571Y-2.0571
X4.5571Y-2.8248
X4.5571Y-3.5925
X4.5571Y-3.6516
X4.5571Y-3.7106
X4.5571Y-3.7697
X4.5571Y-3.8287
X4.5965Y-2.248
X4.5965Y-2.3563
X4.5967Y-2.2975
X4.6161Y-1.7618
X4.6161Y-3.5925
X4.6161Y-3.6516
X4.6161Y-3.7106
X4.6161Y-3.7697
X4.6161Y-3.8287
X4.6526Y-1.9587
X4.6526Y-2.0079
X4.6526Y-2.0579
X4.6752Y-3.5925
X4.6752Y-3.6516
X4.6752Y-3.7106
X4.6752Y-3.7697
X4.6752Y-3.8287
X4.6772Y-3.002
X4.7018Y-2.4774
X4.7343Y-2.6476
X4.7343Y-2.7067
X4.7343Y-2.7657
X4.7343Y-2.8248
X4.7343Y-2.8839
X4.7343Y-3.5925
X4.7343Y-3.6516
X4.7343Y-3.7106
X4.7343Y-3.7697
X4.7343Y-3.8287
X4.7933Y-3.5925
X4.7933Y-3.6516
X4.7933Y-3.7106
X4.7933Y-3.7697
X4.7933Y-3.8287
X4.8524Y-2.4311
X4.8524Y-3.2972
X4.8524Y-3.6516
X4.8524Y-3.7106
X4.8524Y-3.7697
X4.8524Y-3.8287
X4.9114Y-3.6516
X4.9114Y-3.7106
X4.9114Y-3.7697
X4.9114Y-3.8287
X4.9705Y-1.939
X4.9705Y-3.6516
X4.9705Y-3.7106
X4.9705Y-3.7697
X4.9705Y-3.8287
X5.0079Y-2.2362
X5.0295Y-3.7697
X5.0295Y-3.8287
X5.0886Y-1.6437
X5.0886Y-3.061
X5.0886Y-3.1201
X5.0886Y-3.1791
X5.0886Y-3.2382
X5.0886Y-3.2972
X5.0886Y-3.7697
X5.0886Y-3.8287
X5.1476Y-1.6437
X5.1476Y-1.7028
X5.1476Y-3.2972
X5.1476Y-3.7697
X5.1476Y-3.8287
X5.1673Y-2.0866
X5.1673Y-2.2933
X5.1693Y-3.002
X5.1969Y-2.0472
X5.2067Y-1.6437
X5.2067Y-1.7028
X5.2067Y-2.1752
X5.2067Y-2.7657
X5.2067Y-2.8248
X5.2067Y-3.5925
X5.2067Y-3.6516
X5.2067Y-3.7106
X5.2067Y-3.7697
X5.2067Y-3.8287
X5.2165Y-2.5266
X5.2518Y-1.7884
X5.2559Y-2.5266
X5.2657Y-1.6437
X5.2657Y-1.7028
X5.2657Y-2.1752
X5.2657Y-2.6476
X5.2657Y-2.7067
X5.2657Y-2.7657
X5.2657Y-3.002
X5.2657Y-3.061
X5.2657Y-3.1201
X5.2657Y-3.1791
X5.2657Y-3.2382
X5.2657Y-3.4154
X5.2657Y-3.4744
X5.2657Y-3.5335
X5.2657Y-3.5925
X5.2657Y-3.6516
X5.2657Y-3.7106
X5.2657Y-3.7697
X5.2657Y-3.8287
X5.3248Y-1.6437
X5.3248Y-1.7028
X5.3248Y-2.2343
X5.3248Y-3.002
X5.3248Y-3.061
X5.3248Y-3.1201
X5.3248Y-3.1791
X5.3248Y-3.2382
X5.3248Y-3.4154
X5.3248Y-3.4744
X5.3248Y-3.5335
X5.3248Y-3.5925
X5.3248Y-3.6516
X5.3248Y-3.7106
X5.3248Y-3.7697
X5.3248Y-3.8287
X5.3839Y-1.6437
X5.3839Y-1.7028
X5.3839Y-2.0571
X5.3839Y-2.2933
X5.3839Y-3.002
X5.3839Y-3.061
X5.3839Y-3.1201
X5.3839Y-3.1791
X5.3839Y-3.2382
X5.3839Y-3.4154
X5.3839Y-3.4744
X5.3839Y-3.5335
X5.3839Y-3.5925
X5.3839Y-3.6516
X5.3839Y-3.7106
X5.3839Y-3.7697
X5.3839Y-3.8287
X5.4429Y-1.6437
X5.4429Y-1.7028
X5.4429Y-1.998
X5.4429Y-2.0571
X5.4429Y-2.1161
X5.4429Y-2.372
X5.4429Y-2.4035
X5.4429Y-2.8248
X5.4429Y-2.8839
X5.4429Y-2.9429
X5.4429Y-3.061
X5.4429Y-3.1201
X5.4429Y-3.1791
X5.4429Y-3.2382
X5.4429Y-3.4154
X5.4429Y-3.4744
X5.4429Y-3.5335
X5.4429Y-3.5925
X5.4429Y-3.6516
X5.4429Y-3.7106
X5.4429Y-3.7697
X5.4429Y-3.8287
X5.4636Y-2.3218
X5.4921Y-2.6083
X5.502Y-1.6437
X5.502Y-1.7028
X5.502Y-1.998
X5.502Y-2.0571
X5.502Y-2.1161
X5.502Y-2.1752
X5.502Y-2.7657
X5.502Y-2.8248
X5.502Y-2.8839
X5.502Y-2.9429
X5.502Y-3.5925
X5.502Y-3.6516
X5.502Y-3.7106
X5.502Y-3.7697
X5.502Y-3.8287
X5.5118Y-2.3366
X5.5413Y-2.2343
X5.5413Y-2.3701
X5.5413Y-2.4016
X5.5413Y-2.5098
X5.5413Y-2.6673
X5.561Y-1.6437
X5.561Y-1.7028
X5.561Y-1.998
X5.561Y-2.0571
X5.561Y-2.1161
X5.561Y-2.1752
X5.561Y-3.1791
X5.561Y-3.2382
X5.561Y-3.7697
X5.561Y-3.8287
X5.5728Y-2.5354
X5.5728Y-2.6673
X5.5906Y-2.3327
X5.6102Y-2.5098
X5.6102Y-2.6673
X5.6201Y-1.6437
X5.6201Y-1.7028
X5.6201Y-1.998
X5.6201Y-2.0571
X5.6201Y-2.1161
X5.6201Y-2.1752
X5.6201Y-2.8248
X5.6201Y-2.8839
X5.6201Y-2.9429
X5.6201Y-3.7697
X5.6201Y-3.8287
X5.6398Y-2.5394
X5.6427Y-2.6664
X5.6791Y-1.6437
X5.6791Y-1.7028
X5.6791Y-1.998
X5.6791Y-2.0571
X5.6791Y-2.1161
X5.6791Y-2.1752
X5.6791Y-3.7697
X5.6791Y-3.8287
X5.7382Y-1.6437
X5.7382Y-1.7028
X5.7382Y-1.998
X5.7382Y-2.0571
X5.7382Y-2.1161
X5.7382Y-2.1752
X5.7382Y-2.4114
X5.7382Y-3.1791
X5.7382Y-3.2382
X5.7382Y-3.7697
X5.7382Y-3.8287
X5.7972Y-1.6437
X5.7972Y-1.7028
X5.7972Y-1.998
X5.7972Y-2.0571
X5.7972Y-2.9429
X5.7972Y-3.7697
X5.7972Y-3.8287
X5.8563Y-1.6437
X5.8563Y-1.7028
X5.8563Y-3.7697
X5.8563Y-3.8287
X5.9154Y-1.6437
X5.9154Y-1.7028
X5.9154Y-3.061
X5.9154Y-3.1201
X5.9154Y-3.1791
X5.9154Y-3.2382
X5.9154Y-3.2972
X5.9154Y-3.5925
X5.9154Y-3.6516
X5.9154Y-3.7106
X5.9154Y-3.7697
X5.9154Y-3.8287
X5.9744Y-1.6437
X5.9744Y-1.7028
X5.9744Y-2.4705
X5.9744Y-2.8839
X5.9744Y-3.5335
X5.9744Y-3.5925
X5.9744Y-3.6516
X5.9744Y-3.7106
X5.9744Y-3.7697
X5.9744Y-3.8287
X6.0335Y-1.6437
X6.0335Y-1.7028
X6.0335Y-1.998
X6.0335Y-2.2343
X6.0335Y-2.4705
X6.0335Y-2.8839
X6.0335Y-3.4744
X6.0335Y-3.5335
X6.0335Y-3.5925
X6.0335Y-3.6516
X6.0335Y-3.7106
X6.0335Y-3.7697
X6.0335Y-3.8287
X6.0925Y-1.939
X6.0925Y-1.998
X6.0925Y-2.1752
X6.0925Y-2.2343
X6.0925Y-2.4114
X6.0925Y-2.4705
X6.0925Y-2.8839
X6.0925Y-2.9429
X6.0925Y-3.061
X6.0925Y-3.1201
X6.0925Y-3.1791
X6.0925Y-3.2382
X6.0925Y-3.2972
X6.0925Y-3.3563
X6.0925Y-3.4744
X6.0925Y-3.5335
X6.0925Y-3.5925
X6.0925Y-3.6516
X6.1516Y-1.939
X6.1516Y-1.998
X6.1516Y-2.1752
X6.1516Y-2.2343
X6.1516Y-2.4114
X6.1516Y-2.4705
X6.1516Y-2.9429
X6.1516Y-3.002
X6.1516Y-3.061
X6.1516Y-3.1201
X6.1516Y-3.4744
X6.1516Y-3.5335
X6.1516Y-3.5925
X6.1516Y-3.6516
X6.2106Y-3.4744
X6.2106Y-3.5335
X6.2106Y-3.5925
X6.2106Y-3.6516
X6.2156Y-2.6427
T2
X5.3018Y-1.7884
T3
X3.622Y-1.8701
X3.622Y-2.1555
X3.622Y-2.3524
X3.622Y-2.628
X3.622Y-2.8248
X3.622Y-3.1004
X3.622Y-3.3169
X3.622Y-3.5827
X3.8091Y-2.1531
X3.8091Y-2.6335
X3.8091Y-3.1138
X3.8091Y-3.5941
X4.122Y-2.3622
X4.1339Y-2.8051
X4.2011Y-2.875
X4.2421Y-2.4803
T4
X6.0335Y-2.7157
X6.0335Y-2.8157
T5
X4.6803Y-1.6437
X4.7803Y-1.6437
X4.8209Y-2.649
X4.8209Y-2.749
X4.8803Y-1.6437
X4.9675Y-2.8547
X4.9803Y-1.6437
X5.0675Y-2.8547
X5.3583Y-2.6083
X5.3583Y-2.7083
X5.3583Y-2.8083
X5.3583Y-2.9083
X5.8563Y-2.1358
X5.8563Y-2.2358
X5.8563Y-2.3358
X5.8563Y-2.4358
X5.8661Y-2.6673
X5.8661Y-2.7673
X6.1106Y-1.8691
X6.1106Y-2.1063
X6.1106Y-2.3415
X6.1106Y-2.5787
X6.2106Y-1.8691
X6.2106Y-2.1063
X6.2106Y-2.3415
X6.2106Y-2.5787
T6
X4.3563Y-3.3729
X4.3563Y-3.491
X4.4744Y-3.3729
X4.4744Y-3.491
X4.5925Y-3.3729
X4.5925Y-3.491
X4.7106Y-3.3729
X4.7106Y-3.491
X4.8287Y-3.3729
X4.8287Y-3.491
X4.9469Y-3.3729
X4.9469Y-3.491
X5.065Y-3.3729
X5.065Y-3.491
X5.1831Y-3.3729
X5.1831Y-3.491
X5.5512Y-3.3732
X5.5512Y-3.4913
X5.6693Y-3.3732
X5.6693Y-3.4913
X5.7874Y-3.3732
X5.7874Y-3.4913
X5.9055Y-3.3732
X5.9055Y-3.4913
T7
X3.6614Y-1.6929
X3.6614Y-3.7795
X6.1811Y-1.6929
X6.1811Y-3.7795
M30
