%TF.GenerationSoftware,KiCad,Pcbnew,9.0.3*%
%TF.CreationDate,2025-07-23T10:37:13+02:00*%
%TF.ProjectId,DinoSpand_v2.0,44696e6f-5370-4616-9e64-5f76322e302e,rev?*%
%TF.SameCoordinates,Original*%
%TF.FileFunction,Legend,Bot*%
%TF.FilePolarity,Positive*%
%FSLAX46Y46*%
G04 Gerber Fmt 4.6, Leading zero omitted, Abs format (unit mm)*
G04 Created by KiCad (PCBNEW 9.0.3) date 2025-07-23 10:37:13*
%MOMM*%
%LPD*%
G01*
G04 APERTURE LIST*
%ADD10C,0.150000*%
%ADD11C,0.254000*%
%ADD12C,0.120000*%
%ADD13C,0.200000*%
G04 APERTURE END LIST*
D10*
X113792857Y-51529819D02*
X114126190Y-51053628D01*
X114364285Y-51529819D02*
X114364285Y-50529819D01*
X114364285Y-50529819D02*
X113983333Y-50529819D01*
X113983333Y-50529819D02*
X113888095Y-50577438D01*
X113888095Y-50577438D02*
X113840476Y-50625057D01*
X113840476Y-50625057D02*
X113792857Y-50720295D01*
X113792857Y-50720295D02*
X113792857Y-50863152D01*
X113792857Y-50863152D02*
X113840476Y-50958390D01*
X113840476Y-50958390D02*
X113888095Y-51006009D01*
X113888095Y-51006009D02*
X113983333Y-51053628D01*
X113983333Y-51053628D02*
X114364285Y-51053628D01*
X112840476Y-51529819D02*
X113411904Y-51529819D01*
X113126190Y-51529819D02*
X113126190Y-50529819D01*
X113126190Y-50529819D02*
X113221428Y-50672676D01*
X113221428Y-50672676D02*
X113316666Y-50767914D01*
X113316666Y-50767914D02*
X113411904Y-50815533D01*
X112221428Y-50529819D02*
X112126190Y-50529819D01*
X112126190Y-50529819D02*
X112030952Y-50577438D01*
X112030952Y-50577438D02*
X111983333Y-50625057D01*
X111983333Y-50625057D02*
X111935714Y-50720295D01*
X111935714Y-50720295D02*
X111888095Y-50910771D01*
X111888095Y-50910771D02*
X111888095Y-51148866D01*
X111888095Y-51148866D02*
X111935714Y-51339342D01*
X111935714Y-51339342D02*
X111983333Y-51434580D01*
X111983333Y-51434580D02*
X112030952Y-51482200D01*
X112030952Y-51482200D02*
X112126190Y-51529819D01*
X112126190Y-51529819D02*
X112221428Y-51529819D01*
X112221428Y-51529819D02*
X112316666Y-51482200D01*
X112316666Y-51482200D02*
X112364285Y-51434580D01*
X112364285Y-51434580D02*
X112411904Y-51339342D01*
X112411904Y-51339342D02*
X112459523Y-51148866D01*
X112459523Y-51148866D02*
X112459523Y-50910771D01*
X112459523Y-50910771D02*
X112411904Y-50720295D01*
X112411904Y-50720295D02*
X112364285Y-50625057D01*
X112364285Y-50625057D02*
X112316666Y-50577438D01*
X112316666Y-50577438D02*
X112221428Y-50529819D01*
D11*
X127324318Y-45207856D02*
X126054318Y-45207856D01*
X126054318Y-45207856D02*
X126054318Y-45510237D01*
X126054318Y-45510237D02*
X126114794Y-45691666D01*
X126114794Y-45691666D02*
X126235746Y-45812618D01*
X126235746Y-45812618D02*
X126356699Y-45873095D01*
X126356699Y-45873095D02*
X126598603Y-45933571D01*
X126598603Y-45933571D02*
X126780032Y-45933571D01*
X126780032Y-45933571D02*
X127021937Y-45873095D01*
X127021937Y-45873095D02*
X127142889Y-45812618D01*
X127142889Y-45812618D02*
X127263842Y-45691666D01*
X127263842Y-45691666D02*
X127324318Y-45510237D01*
X127324318Y-45510237D02*
X127324318Y-45207856D01*
X127324318Y-47143095D02*
X127324318Y-46417380D01*
X127324318Y-46780237D02*
X126054318Y-46780237D01*
X126054318Y-46780237D02*
X126235746Y-46659285D01*
X126235746Y-46659285D02*
X126356699Y-46538333D01*
X126356699Y-46538333D02*
X126417175Y-46417380D01*
X126054318Y-48292142D02*
X126054318Y-47687380D01*
X126054318Y-47687380D02*
X126659080Y-47626904D01*
X126659080Y-47626904D02*
X126598603Y-47687380D01*
X126598603Y-47687380D02*
X126538127Y-47808333D01*
X126538127Y-47808333D02*
X126538127Y-48110714D01*
X126538127Y-48110714D02*
X126598603Y-48231666D01*
X126598603Y-48231666D02*
X126659080Y-48292142D01*
X126659080Y-48292142D02*
X126780032Y-48352619D01*
X126780032Y-48352619D02*
X127082413Y-48352619D01*
X127082413Y-48352619D02*
X127203365Y-48292142D01*
X127203365Y-48292142D02*
X127263842Y-48231666D01*
X127263842Y-48231666D02*
X127324318Y-48110714D01*
X127324318Y-48110714D02*
X127324318Y-47808333D01*
X127324318Y-47808333D02*
X127263842Y-47687380D01*
X127263842Y-47687380D02*
X127203365Y-47626904D01*
D10*
X147204819Y-78532142D02*
X146728628Y-78198809D01*
X147204819Y-77960714D02*
X146204819Y-77960714D01*
X146204819Y-77960714D02*
X146204819Y-78341666D01*
X146204819Y-78341666D02*
X146252438Y-78436904D01*
X146252438Y-78436904D02*
X146300057Y-78484523D01*
X146300057Y-78484523D02*
X146395295Y-78532142D01*
X146395295Y-78532142D02*
X146538152Y-78532142D01*
X146538152Y-78532142D02*
X146633390Y-78484523D01*
X146633390Y-78484523D02*
X146681009Y-78436904D01*
X146681009Y-78436904D02*
X146728628Y-78341666D01*
X146728628Y-78341666D02*
X146728628Y-77960714D01*
X146204819Y-78865476D02*
X146204819Y-79484523D01*
X146204819Y-79484523D02*
X146585771Y-79151190D01*
X146585771Y-79151190D02*
X146585771Y-79294047D01*
X146585771Y-79294047D02*
X146633390Y-79389285D01*
X146633390Y-79389285D02*
X146681009Y-79436904D01*
X146681009Y-79436904D02*
X146776247Y-79484523D01*
X146776247Y-79484523D02*
X147014342Y-79484523D01*
X147014342Y-79484523D02*
X147109580Y-79436904D01*
X147109580Y-79436904D02*
X147157200Y-79389285D01*
X147157200Y-79389285D02*
X147204819Y-79294047D01*
X147204819Y-79294047D02*
X147204819Y-79008333D01*
X147204819Y-79008333D02*
X147157200Y-78913095D01*
X147157200Y-78913095D02*
X147109580Y-78865476D01*
X146204819Y-80103571D02*
X146204819Y-80198809D01*
X146204819Y-80198809D02*
X146252438Y-80294047D01*
X146252438Y-80294047D02*
X146300057Y-80341666D01*
X146300057Y-80341666D02*
X146395295Y-80389285D01*
X146395295Y-80389285D02*
X146585771Y-80436904D01*
X146585771Y-80436904D02*
X146823866Y-80436904D01*
X146823866Y-80436904D02*
X147014342Y-80389285D01*
X147014342Y-80389285D02*
X147109580Y-80341666D01*
X147109580Y-80341666D02*
X147157200Y-80294047D01*
X147157200Y-80294047D02*
X147204819Y-80198809D01*
X147204819Y-80198809D02*
X147204819Y-80103571D01*
X147204819Y-80103571D02*
X147157200Y-80008333D01*
X147157200Y-80008333D02*
X147109580Y-79960714D01*
X147109580Y-79960714D02*
X147014342Y-79913095D01*
X147014342Y-79913095D02*
X146823866Y-79865476D01*
X146823866Y-79865476D02*
X146585771Y-79865476D01*
X146585771Y-79865476D02*
X146395295Y-79913095D01*
X146395295Y-79913095D02*
X146300057Y-79960714D01*
X146300057Y-79960714D02*
X146252438Y-80008333D01*
X146252438Y-80008333D02*
X146204819Y-80103571D01*
X138116666Y-48534580D02*
X138164285Y-48582200D01*
X138164285Y-48582200D02*
X138307142Y-48629819D01*
X138307142Y-48629819D02*
X138402380Y-48629819D01*
X138402380Y-48629819D02*
X138545237Y-48582200D01*
X138545237Y-48582200D02*
X138640475Y-48486961D01*
X138640475Y-48486961D02*
X138688094Y-48391723D01*
X138688094Y-48391723D02*
X138735713Y-48201247D01*
X138735713Y-48201247D02*
X138735713Y-48058390D01*
X138735713Y-48058390D02*
X138688094Y-47867914D01*
X138688094Y-47867914D02*
X138640475Y-47772676D01*
X138640475Y-47772676D02*
X138545237Y-47677438D01*
X138545237Y-47677438D02*
X138402380Y-47629819D01*
X138402380Y-47629819D02*
X138307142Y-47629819D01*
X138307142Y-47629819D02*
X138164285Y-47677438D01*
X138164285Y-47677438D02*
X138116666Y-47725057D01*
X137735713Y-47725057D02*
X137688094Y-47677438D01*
X137688094Y-47677438D02*
X137592856Y-47629819D01*
X137592856Y-47629819D02*
X137354761Y-47629819D01*
X137354761Y-47629819D02*
X137259523Y-47677438D01*
X137259523Y-47677438D02*
X137211904Y-47725057D01*
X137211904Y-47725057D02*
X137164285Y-47820295D01*
X137164285Y-47820295D02*
X137164285Y-47915533D01*
X137164285Y-47915533D02*
X137211904Y-48058390D01*
X137211904Y-48058390D02*
X137783332Y-48629819D01*
X137783332Y-48629819D02*
X137164285Y-48629819D01*
X133674819Y-51258333D02*
X133198628Y-50925000D01*
X133674819Y-50686905D02*
X132674819Y-50686905D01*
X132674819Y-50686905D02*
X132674819Y-51067857D01*
X132674819Y-51067857D02*
X132722438Y-51163095D01*
X132722438Y-51163095D02*
X132770057Y-51210714D01*
X132770057Y-51210714D02*
X132865295Y-51258333D01*
X132865295Y-51258333D02*
X133008152Y-51258333D01*
X133008152Y-51258333D02*
X133103390Y-51210714D01*
X133103390Y-51210714D02*
X133151009Y-51163095D01*
X133151009Y-51163095D02*
X133198628Y-51067857D01*
X133198628Y-51067857D02*
X133198628Y-50686905D01*
X133674819Y-52210714D02*
X133674819Y-51639286D01*
X133674819Y-51925000D02*
X132674819Y-51925000D01*
X132674819Y-51925000D02*
X132817676Y-51829762D01*
X132817676Y-51829762D02*
X132912914Y-51734524D01*
X132912914Y-51734524D02*
X132960533Y-51639286D01*
X142954819Y-78357142D02*
X142478628Y-78023809D01*
X142954819Y-77785714D02*
X141954819Y-77785714D01*
X141954819Y-77785714D02*
X141954819Y-78166666D01*
X141954819Y-78166666D02*
X142002438Y-78261904D01*
X142002438Y-78261904D02*
X142050057Y-78309523D01*
X142050057Y-78309523D02*
X142145295Y-78357142D01*
X142145295Y-78357142D02*
X142288152Y-78357142D01*
X142288152Y-78357142D02*
X142383390Y-78309523D01*
X142383390Y-78309523D02*
X142431009Y-78261904D01*
X142431009Y-78261904D02*
X142478628Y-78166666D01*
X142478628Y-78166666D02*
X142478628Y-77785714D01*
X142050057Y-78738095D02*
X142002438Y-78785714D01*
X142002438Y-78785714D02*
X141954819Y-78880952D01*
X141954819Y-78880952D02*
X141954819Y-79119047D01*
X141954819Y-79119047D02*
X142002438Y-79214285D01*
X142002438Y-79214285D02*
X142050057Y-79261904D01*
X142050057Y-79261904D02*
X142145295Y-79309523D01*
X142145295Y-79309523D02*
X142240533Y-79309523D01*
X142240533Y-79309523D02*
X142383390Y-79261904D01*
X142383390Y-79261904D02*
X142954819Y-78690476D01*
X142954819Y-78690476D02*
X142954819Y-79309523D01*
X141954819Y-80166666D02*
X141954819Y-79976190D01*
X141954819Y-79976190D02*
X142002438Y-79880952D01*
X142002438Y-79880952D02*
X142050057Y-79833333D01*
X142050057Y-79833333D02*
X142192914Y-79738095D01*
X142192914Y-79738095D02*
X142383390Y-79690476D01*
X142383390Y-79690476D02*
X142764342Y-79690476D01*
X142764342Y-79690476D02*
X142859580Y-79738095D01*
X142859580Y-79738095D02*
X142907200Y-79785714D01*
X142907200Y-79785714D02*
X142954819Y-79880952D01*
X142954819Y-79880952D02*
X142954819Y-80071428D01*
X142954819Y-80071428D02*
X142907200Y-80166666D01*
X142907200Y-80166666D02*
X142859580Y-80214285D01*
X142859580Y-80214285D02*
X142764342Y-80261904D01*
X142764342Y-80261904D02*
X142526247Y-80261904D01*
X142526247Y-80261904D02*
X142431009Y-80214285D01*
X142431009Y-80214285D02*
X142383390Y-80166666D01*
X142383390Y-80166666D02*
X142335771Y-80071428D01*
X142335771Y-80071428D02*
X142335771Y-79880952D01*
X142335771Y-79880952D02*
X142383390Y-79785714D01*
X142383390Y-79785714D02*
X142431009Y-79738095D01*
X142431009Y-79738095D02*
X142526247Y-79690476D01*
X113792857Y-56029819D02*
X114126190Y-55553628D01*
X114364285Y-56029819D02*
X114364285Y-55029819D01*
X114364285Y-55029819D02*
X113983333Y-55029819D01*
X113983333Y-55029819D02*
X113888095Y-55077438D01*
X113888095Y-55077438D02*
X113840476Y-55125057D01*
X113840476Y-55125057D02*
X113792857Y-55220295D01*
X113792857Y-55220295D02*
X113792857Y-55363152D01*
X113792857Y-55363152D02*
X113840476Y-55458390D01*
X113840476Y-55458390D02*
X113888095Y-55506009D01*
X113888095Y-55506009D02*
X113983333Y-55553628D01*
X113983333Y-55553628D02*
X114364285Y-55553628D01*
X112840476Y-56029819D02*
X113411904Y-56029819D01*
X113126190Y-56029819D02*
X113126190Y-55029819D01*
X113126190Y-55029819D02*
X113221428Y-55172676D01*
X113221428Y-55172676D02*
X113316666Y-55267914D01*
X113316666Y-55267914D02*
X113411904Y-55315533D01*
X111983333Y-55363152D02*
X111983333Y-56029819D01*
X112221428Y-54982200D02*
X112459523Y-55696485D01*
X112459523Y-55696485D02*
X111840476Y-55696485D01*
X138116666Y-50024580D02*
X138164285Y-50072200D01*
X138164285Y-50072200D02*
X138307142Y-50119819D01*
X138307142Y-50119819D02*
X138402380Y-50119819D01*
X138402380Y-50119819D02*
X138545237Y-50072200D01*
X138545237Y-50072200D02*
X138640475Y-49976961D01*
X138640475Y-49976961D02*
X138688094Y-49881723D01*
X138688094Y-49881723D02*
X138735713Y-49691247D01*
X138735713Y-49691247D02*
X138735713Y-49548390D01*
X138735713Y-49548390D02*
X138688094Y-49357914D01*
X138688094Y-49357914D02*
X138640475Y-49262676D01*
X138640475Y-49262676D02*
X138545237Y-49167438D01*
X138545237Y-49167438D02*
X138402380Y-49119819D01*
X138402380Y-49119819D02*
X138307142Y-49119819D01*
X138307142Y-49119819D02*
X138164285Y-49167438D01*
X138164285Y-49167438D02*
X138116666Y-49215057D01*
X137164285Y-50119819D02*
X137735713Y-50119819D01*
X137449999Y-50119819D02*
X137449999Y-49119819D01*
X137449999Y-49119819D02*
X137545237Y-49262676D01*
X137545237Y-49262676D02*
X137640475Y-49357914D01*
X137640475Y-49357914D02*
X137735713Y-49405533D01*
X112816666Y-42279819D02*
X113149999Y-41803628D01*
X113388094Y-42279819D02*
X113388094Y-41279819D01*
X113388094Y-41279819D02*
X113007142Y-41279819D01*
X113007142Y-41279819D02*
X112911904Y-41327438D01*
X112911904Y-41327438D02*
X112864285Y-41375057D01*
X112864285Y-41375057D02*
X112816666Y-41470295D01*
X112816666Y-41470295D02*
X112816666Y-41613152D01*
X112816666Y-41613152D02*
X112864285Y-41708390D01*
X112864285Y-41708390D02*
X112911904Y-41756009D01*
X112911904Y-41756009D02*
X113007142Y-41803628D01*
X113007142Y-41803628D02*
X113388094Y-41803628D01*
X112435713Y-41375057D02*
X112388094Y-41327438D01*
X112388094Y-41327438D02*
X112292856Y-41279819D01*
X112292856Y-41279819D02*
X112054761Y-41279819D01*
X112054761Y-41279819D02*
X111959523Y-41327438D01*
X111959523Y-41327438D02*
X111911904Y-41375057D01*
X111911904Y-41375057D02*
X111864285Y-41470295D01*
X111864285Y-41470295D02*
X111864285Y-41565533D01*
X111864285Y-41565533D02*
X111911904Y-41708390D01*
X111911904Y-41708390D02*
X112483332Y-42279819D01*
X112483332Y-42279819D02*
X111864285Y-42279819D01*
X112816666Y-48779819D02*
X113149999Y-48303628D01*
X113388094Y-48779819D02*
X113388094Y-47779819D01*
X113388094Y-47779819D02*
X113007142Y-47779819D01*
X113007142Y-47779819D02*
X112911904Y-47827438D01*
X112911904Y-47827438D02*
X112864285Y-47875057D01*
X112864285Y-47875057D02*
X112816666Y-47970295D01*
X112816666Y-47970295D02*
X112816666Y-48113152D01*
X112816666Y-48113152D02*
X112864285Y-48208390D01*
X112864285Y-48208390D02*
X112911904Y-48256009D01*
X112911904Y-48256009D02*
X113007142Y-48303628D01*
X113007142Y-48303628D02*
X113388094Y-48303628D01*
X111959523Y-47779819D02*
X112149999Y-47779819D01*
X112149999Y-47779819D02*
X112245237Y-47827438D01*
X112245237Y-47827438D02*
X112292856Y-47875057D01*
X112292856Y-47875057D02*
X112388094Y-48017914D01*
X112388094Y-48017914D02*
X112435713Y-48208390D01*
X112435713Y-48208390D02*
X112435713Y-48589342D01*
X112435713Y-48589342D02*
X112388094Y-48684580D01*
X112388094Y-48684580D02*
X112340475Y-48732200D01*
X112340475Y-48732200D02*
X112245237Y-48779819D01*
X112245237Y-48779819D02*
X112054761Y-48779819D01*
X112054761Y-48779819D02*
X111959523Y-48732200D01*
X111959523Y-48732200D02*
X111911904Y-48684580D01*
X111911904Y-48684580D02*
X111864285Y-48589342D01*
X111864285Y-48589342D02*
X111864285Y-48351247D01*
X111864285Y-48351247D02*
X111911904Y-48256009D01*
X111911904Y-48256009D02*
X111959523Y-48208390D01*
X111959523Y-48208390D02*
X112054761Y-48160771D01*
X112054761Y-48160771D02*
X112245237Y-48160771D01*
X112245237Y-48160771D02*
X112340475Y-48208390D01*
X112340475Y-48208390D02*
X112388094Y-48256009D01*
X112388094Y-48256009D02*
X112435713Y-48351247D01*
X113642857Y-53279819D02*
X113976190Y-52803628D01*
X114214285Y-53279819D02*
X114214285Y-52279819D01*
X114214285Y-52279819D02*
X113833333Y-52279819D01*
X113833333Y-52279819D02*
X113738095Y-52327438D01*
X113738095Y-52327438D02*
X113690476Y-52375057D01*
X113690476Y-52375057D02*
X113642857Y-52470295D01*
X113642857Y-52470295D02*
X113642857Y-52613152D01*
X113642857Y-52613152D02*
X113690476Y-52708390D01*
X113690476Y-52708390D02*
X113738095Y-52756009D01*
X113738095Y-52756009D02*
X113833333Y-52803628D01*
X113833333Y-52803628D02*
X114214285Y-52803628D01*
X112690476Y-53279819D02*
X113261904Y-53279819D01*
X112976190Y-53279819D02*
X112976190Y-52279819D01*
X112976190Y-52279819D02*
X113071428Y-52422676D01*
X113071428Y-52422676D02*
X113166666Y-52517914D01*
X113166666Y-52517914D02*
X113261904Y-52565533D01*
X111738095Y-53279819D02*
X112309523Y-53279819D01*
X112023809Y-53279819D02*
X112023809Y-52279819D01*
X112023809Y-52279819D02*
X112119047Y-52422676D01*
X112119047Y-52422676D02*
X112214285Y-52517914D01*
X112214285Y-52517914D02*
X112309523Y-52565533D01*
X147204819Y-81707142D02*
X146728628Y-81373809D01*
X147204819Y-81135714D02*
X146204819Y-81135714D01*
X146204819Y-81135714D02*
X146204819Y-81516666D01*
X146204819Y-81516666D02*
X146252438Y-81611904D01*
X146252438Y-81611904D02*
X146300057Y-81659523D01*
X146300057Y-81659523D02*
X146395295Y-81707142D01*
X146395295Y-81707142D02*
X146538152Y-81707142D01*
X146538152Y-81707142D02*
X146633390Y-81659523D01*
X146633390Y-81659523D02*
X146681009Y-81611904D01*
X146681009Y-81611904D02*
X146728628Y-81516666D01*
X146728628Y-81516666D02*
X146728628Y-81135714D01*
X146300057Y-82088095D02*
X146252438Y-82135714D01*
X146252438Y-82135714D02*
X146204819Y-82230952D01*
X146204819Y-82230952D02*
X146204819Y-82469047D01*
X146204819Y-82469047D02*
X146252438Y-82564285D01*
X146252438Y-82564285D02*
X146300057Y-82611904D01*
X146300057Y-82611904D02*
X146395295Y-82659523D01*
X146395295Y-82659523D02*
X146490533Y-82659523D01*
X146490533Y-82659523D02*
X146633390Y-82611904D01*
X146633390Y-82611904D02*
X147204819Y-82040476D01*
X147204819Y-82040476D02*
X147204819Y-82659523D01*
X147204819Y-83135714D02*
X147204819Y-83326190D01*
X147204819Y-83326190D02*
X147157200Y-83421428D01*
X147157200Y-83421428D02*
X147109580Y-83469047D01*
X147109580Y-83469047D02*
X146966723Y-83564285D01*
X146966723Y-83564285D02*
X146776247Y-83611904D01*
X146776247Y-83611904D02*
X146395295Y-83611904D01*
X146395295Y-83611904D02*
X146300057Y-83564285D01*
X146300057Y-83564285D02*
X146252438Y-83516666D01*
X146252438Y-83516666D02*
X146204819Y-83421428D01*
X146204819Y-83421428D02*
X146204819Y-83230952D01*
X146204819Y-83230952D02*
X146252438Y-83135714D01*
X146252438Y-83135714D02*
X146300057Y-83088095D01*
X146300057Y-83088095D02*
X146395295Y-83040476D01*
X146395295Y-83040476D02*
X146633390Y-83040476D01*
X146633390Y-83040476D02*
X146728628Y-83088095D01*
X146728628Y-83088095D02*
X146776247Y-83135714D01*
X146776247Y-83135714D02*
X146823866Y-83230952D01*
X146823866Y-83230952D02*
X146823866Y-83421428D01*
X146823866Y-83421428D02*
X146776247Y-83516666D01*
X146776247Y-83516666D02*
X146728628Y-83564285D01*
X146728628Y-83564285D02*
X146633390Y-83611904D01*
X112816666Y-47029819D02*
X113149999Y-46553628D01*
X113388094Y-47029819D02*
X113388094Y-46029819D01*
X113388094Y-46029819D02*
X113007142Y-46029819D01*
X113007142Y-46029819D02*
X112911904Y-46077438D01*
X112911904Y-46077438D02*
X112864285Y-46125057D01*
X112864285Y-46125057D02*
X112816666Y-46220295D01*
X112816666Y-46220295D02*
X112816666Y-46363152D01*
X112816666Y-46363152D02*
X112864285Y-46458390D01*
X112864285Y-46458390D02*
X112911904Y-46506009D01*
X112911904Y-46506009D02*
X113007142Y-46553628D01*
X113007142Y-46553628D02*
X113388094Y-46553628D01*
X111911904Y-46029819D02*
X112388094Y-46029819D01*
X112388094Y-46029819D02*
X112435713Y-46506009D01*
X112435713Y-46506009D02*
X112388094Y-46458390D01*
X112388094Y-46458390D02*
X112292856Y-46410771D01*
X112292856Y-46410771D02*
X112054761Y-46410771D01*
X112054761Y-46410771D02*
X111959523Y-46458390D01*
X111959523Y-46458390D02*
X111911904Y-46506009D01*
X111911904Y-46506009D02*
X111864285Y-46601247D01*
X111864285Y-46601247D02*
X111864285Y-46839342D01*
X111864285Y-46839342D02*
X111911904Y-46934580D01*
X111911904Y-46934580D02*
X111959523Y-46982200D01*
X111959523Y-46982200D02*
X112054761Y-47029819D01*
X112054761Y-47029819D02*
X112292856Y-47029819D01*
X112292856Y-47029819D02*
X112388094Y-46982200D01*
X112388094Y-46982200D02*
X112435713Y-46934580D01*
D11*
X149792143Y-74824318D02*
X149792143Y-73554318D01*
X149792143Y-73554318D02*
X149489762Y-73554318D01*
X149489762Y-73554318D02*
X149308333Y-73614794D01*
X149308333Y-73614794D02*
X149187381Y-73735746D01*
X149187381Y-73735746D02*
X149126904Y-73856699D01*
X149126904Y-73856699D02*
X149066428Y-74098603D01*
X149066428Y-74098603D02*
X149066428Y-74280032D01*
X149066428Y-74280032D02*
X149126904Y-74521937D01*
X149126904Y-74521937D02*
X149187381Y-74642889D01*
X149187381Y-74642889D02*
X149308333Y-74763842D01*
X149308333Y-74763842D02*
X149489762Y-74824318D01*
X149489762Y-74824318D02*
X149792143Y-74824318D01*
X147856904Y-74824318D02*
X148582619Y-74824318D01*
X148219762Y-74824318D02*
X148219762Y-73554318D01*
X148219762Y-73554318D02*
X148340714Y-73735746D01*
X148340714Y-73735746D02*
X148461666Y-73856699D01*
X148461666Y-73856699D02*
X148582619Y-73917175D01*
X146647380Y-74824318D02*
X147373095Y-74824318D01*
X147010238Y-74824318D02*
X147010238Y-73554318D01*
X147010238Y-73554318D02*
X147131190Y-73735746D01*
X147131190Y-73735746D02*
X147252142Y-73856699D01*
X147252142Y-73856699D02*
X147373095Y-73917175D01*
X94574318Y-86683170D02*
X93304318Y-86683170D01*
X93304318Y-86683170D02*
X93304318Y-86985551D01*
X93304318Y-86985551D02*
X93364794Y-87166980D01*
X93364794Y-87166980D02*
X93485746Y-87287932D01*
X93485746Y-87287932D02*
X93606699Y-87348409D01*
X93606699Y-87348409D02*
X93848603Y-87408885D01*
X93848603Y-87408885D02*
X94030032Y-87408885D01*
X94030032Y-87408885D02*
X94271937Y-87348409D01*
X94271937Y-87348409D02*
X94392889Y-87287932D01*
X94392889Y-87287932D02*
X94513842Y-87166980D01*
X94513842Y-87166980D02*
X94574318Y-86985551D01*
X94574318Y-86985551D02*
X94574318Y-86683170D01*
X93304318Y-88497456D02*
X93304318Y-88255551D01*
X93304318Y-88255551D02*
X93364794Y-88134599D01*
X93364794Y-88134599D02*
X93425270Y-88074123D01*
X93425270Y-88074123D02*
X93606699Y-87953170D01*
X93606699Y-87953170D02*
X93848603Y-87892694D01*
X93848603Y-87892694D02*
X94332413Y-87892694D01*
X94332413Y-87892694D02*
X94453365Y-87953170D01*
X94453365Y-87953170D02*
X94513842Y-88013647D01*
X94513842Y-88013647D02*
X94574318Y-88134599D01*
X94574318Y-88134599D02*
X94574318Y-88376504D01*
X94574318Y-88376504D02*
X94513842Y-88497456D01*
X94513842Y-88497456D02*
X94453365Y-88557932D01*
X94453365Y-88557932D02*
X94332413Y-88618409D01*
X94332413Y-88618409D02*
X94030032Y-88618409D01*
X94030032Y-88618409D02*
X93909080Y-88557932D01*
X93909080Y-88557932D02*
X93848603Y-88497456D01*
X93848603Y-88497456D02*
X93788127Y-88376504D01*
X93788127Y-88376504D02*
X93788127Y-88134599D01*
X93788127Y-88134599D02*
X93848603Y-88013647D01*
X93848603Y-88013647D02*
X93909080Y-87953170D01*
X93909080Y-87953170D02*
X94030032Y-87892694D01*
D10*
X132059580Y-51258333D02*
X132107200Y-51210714D01*
X132107200Y-51210714D02*
X132154819Y-51067857D01*
X132154819Y-51067857D02*
X132154819Y-50972619D01*
X132154819Y-50972619D02*
X132107200Y-50829762D01*
X132107200Y-50829762D02*
X132011961Y-50734524D01*
X132011961Y-50734524D02*
X131916723Y-50686905D01*
X131916723Y-50686905D02*
X131726247Y-50639286D01*
X131726247Y-50639286D02*
X131583390Y-50639286D01*
X131583390Y-50639286D02*
X131392914Y-50686905D01*
X131392914Y-50686905D02*
X131297676Y-50734524D01*
X131297676Y-50734524D02*
X131202438Y-50829762D01*
X131202438Y-50829762D02*
X131154819Y-50972619D01*
X131154819Y-50972619D02*
X131154819Y-51067857D01*
X131154819Y-51067857D02*
X131202438Y-51210714D01*
X131202438Y-51210714D02*
X131250057Y-51258333D01*
X131154819Y-51591667D02*
X131154819Y-52210714D01*
X131154819Y-52210714D02*
X131535771Y-51877381D01*
X131535771Y-51877381D02*
X131535771Y-52020238D01*
X131535771Y-52020238D02*
X131583390Y-52115476D01*
X131583390Y-52115476D02*
X131631009Y-52163095D01*
X131631009Y-52163095D02*
X131726247Y-52210714D01*
X131726247Y-52210714D02*
X131964342Y-52210714D01*
X131964342Y-52210714D02*
X132059580Y-52163095D01*
X132059580Y-52163095D02*
X132107200Y-52115476D01*
X132107200Y-52115476D02*
X132154819Y-52020238D01*
X132154819Y-52020238D02*
X132154819Y-51734524D01*
X132154819Y-51734524D02*
X132107200Y-51639286D01*
X132107200Y-51639286D02*
X132059580Y-51591667D01*
X121879819Y-50258333D02*
X121403628Y-49925000D01*
X121879819Y-49686905D02*
X120879819Y-49686905D01*
X120879819Y-49686905D02*
X120879819Y-50067857D01*
X120879819Y-50067857D02*
X120927438Y-50163095D01*
X120927438Y-50163095D02*
X120975057Y-50210714D01*
X120975057Y-50210714D02*
X121070295Y-50258333D01*
X121070295Y-50258333D02*
X121213152Y-50258333D01*
X121213152Y-50258333D02*
X121308390Y-50210714D01*
X121308390Y-50210714D02*
X121356009Y-50163095D01*
X121356009Y-50163095D02*
X121403628Y-50067857D01*
X121403628Y-50067857D02*
X121403628Y-49686905D01*
X121213152Y-51115476D02*
X121879819Y-51115476D01*
X120832200Y-50877381D02*
X121546485Y-50639286D01*
X121546485Y-50639286D02*
X121546485Y-51258333D01*
D11*
X153187381Y-74824318D02*
X153187381Y-73554318D01*
X153187381Y-73554318D02*
X152885000Y-73554318D01*
X152885000Y-73554318D02*
X152703571Y-73614794D01*
X152703571Y-73614794D02*
X152582619Y-73735746D01*
X152582619Y-73735746D02*
X152522142Y-73856699D01*
X152522142Y-73856699D02*
X152461666Y-74098603D01*
X152461666Y-74098603D02*
X152461666Y-74280032D01*
X152461666Y-74280032D02*
X152522142Y-74521937D01*
X152522142Y-74521937D02*
X152582619Y-74642889D01*
X152582619Y-74642889D02*
X152703571Y-74763842D01*
X152703571Y-74763842D02*
X152885000Y-74824318D01*
X152885000Y-74824318D02*
X153187381Y-74824318D01*
X151735952Y-74098603D02*
X151856904Y-74038127D01*
X151856904Y-74038127D02*
X151917381Y-73977651D01*
X151917381Y-73977651D02*
X151977857Y-73856699D01*
X151977857Y-73856699D02*
X151977857Y-73796222D01*
X151977857Y-73796222D02*
X151917381Y-73675270D01*
X151917381Y-73675270D02*
X151856904Y-73614794D01*
X151856904Y-73614794D02*
X151735952Y-73554318D01*
X151735952Y-73554318D02*
X151494047Y-73554318D01*
X151494047Y-73554318D02*
X151373095Y-73614794D01*
X151373095Y-73614794D02*
X151312619Y-73675270D01*
X151312619Y-73675270D02*
X151252142Y-73796222D01*
X151252142Y-73796222D02*
X151252142Y-73856699D01*
X151252142Y-73856699D02*
X151312619Y-73977651D01*
X151312619Y-73977651D02*
X151373095Y-74038127D01*
X151373095Y-74038127D02*
X151494047Y-74098603D01*
X151494047Y-74098603D02*
X151735952Y-74098603D01*
X151735952Y-74098603D02*
X151856904Y-74159080D01*
X151856904Y-74159080D02*
X151917381Y-74219556D01*
X151917381Y-74219556D02*
X151977857Y-74340508D01*
X151977857Y-74340508D02*
X151977857Y-74582413D01*
X151977857Y-74582413D02*
X151917381Y-74703365D01*
X151917381Y-74703365D02*
X151856904Y-74763842D01*
X151856904Y-74763842D02*
X151735952Y-74824318D01*
X151735952Y-74824318D02*
X151494047Y-74824318D01*
X151494047Y-74824318D02*
X151373095Y-74763842D01*
X151373095Y-74763842D02*
X151312619Y-74703365D01*
X151312619Y-74703365D02*
X151252142Y-74582413D01*
X151252142Y-74582413D02*
X151252142Y-74340508D01*
X151252142Y-74340508D02*
X151312619Y-74219556D01*
X151312619Y-74219556D02*
X151373095Y-74159080D01*
X151373095Y-74159080D02*
X151494047Y-74098603D01*
X94574318Y-74462618D02*
X93304318Y-74462618D01*
X93304318Y-74462618D02*
X93304318Y-74764999D01*
X93304318Y-74764999D02*
X93364794Y-74946428D01*
X93364794Y-74946428D02*
X93485746Y-75067380D01*
X93485746Y-75067380D02*
X93606699Y-75127857D01*
X93606699Y-75127857D02*
X93848603Y-75188333D01*
X93848603Y-75188333D02*
X94030032Y-75188333D01*
X94030032Y-75188333D02*
X94271937Y-75127857D01*
X94271937Y-75127857D02*
X94392889Y-75067380D01*
X94392889Y-75067380D02*
X94513842Y-74946428D01*
X94513842Y-74946428D02*
X94574318Y-74764999D01*
X94574318Y-74764999D02*
X94574318Y-74462618D01*
X93304318Y-75611666D02*
X93304318Y-76397857D01*
X93304318Y-76397857D02*
X93788127Y-75974523D01*
X93788127Y-75974523D02*
X93788127Y-76155952D01*
X93788127Y-76155952D02*
X93848603Y-76276904D01*
X93848603Y-76276904D02*
X93909080Y-76337380D01*
X93909080Y-76337380D02*
X94030032Y-76397857D01*
X94030032Y-76397857D02*
X94332413Y-76397857D01*
X94332413Y-76397857D02*
X94453365Y-76337380D01*
X94453365Y-76337380D02*
X94513842Y-76276904D01*
X94513842Y-76276904D02*
X94574318Y-76155952D01*
X94574318Y-76155952D02*
X94574318Y-75793095D01*
X94574318Y-75793095D02*
X94513842Y-75672142D01*
X94513842Y-75672142D02*
X94453365Y-75611666D01*
X125264318Y-45234332D02*
X123994318Y-45234332D01*
X123994318Y-45234332D02*
X123994318Y-45536713D01*
X123994318Y-45536713D02*
X124054794Y-45718142D01*
X124054794Y-45718142D02*
X124175746Y-45839094D01*
X124175746Y-45839094D02*
X124296699Y-45899571D01*
X124296699Y-45899571D02*
X124538603Y-45960047D01*
X124538603Y-45960047D02*
X124720032Y-45960047D01*
X124720032Y-45960047D02*
X124961937Y-45899571D01*
X124961937Y-45899571D02*
X125082889Y-45839094D01*
X125082889Y-45839094D02*
X125203842Y-45718142D01*
X125203842Y-45718142D02*
X125264318Y-45536713D01*
X125264318Y-45536713D02*
X125264318Y-45234332D01*
X125264318Y-47169571D02*
X125264318Y-46443856D01*
X125264318Y-46806713D02*
X123994318Y-46806713D01*
X123994318Y-46806713D02*
X124175746Y-46685761D01*
X124175746Y-46685761D02*
X124296699Y-46564809D01*
X124296699Y-46564809D02*
X124357175Y-46443856D01*
X124417651Y-48258142D02*
X125264318Y-48258142D01*
X123933842Y-47955761D02*
X124840984Y-47653380D01*
X124840984Y-47653380D02*
X124840984Y-48439571D01*
D10*
X113792857Y-57779819D02*
X114126190Y-57303628D01*
X114364285Y-57779819D02*
X114364285Y-56779819D01*
X114364285Y-56779819D02*
X113983333Y-56779819D01*
X113983333Y-56779819D02*
X113888095Y-56827438D01*
X113888095Y-56827438D02*
X113840476Y-56875057D01*
X113840476Y-56875057D02*
X113792857Y-56970295D01*
X113792857Y-56970295D02*
X113792857Y-57113152D01*
X113792857Y-57113152D02*
X113840476Y-57208390D01*
X113840476Y-57208390D02*
X113888095Y-57256009D01*
X113888095Y-57256009D02*
X113983333Y-57303628D01*
X113983333Y-57303628D02*
X114364285Y-57303628D01*
X112840476Y-57779819D02*
X113411904Y-57779819D01*
X113126190Y-57779819D02*
X113126190Y-56779819D01*
X113126190Y-56779819D02*
X113221428Y-56922676D01*
X113221428Y-56922676D02*
X113316666Y-57017914D01*
X113316666Y-57017914D02*
X113411904Y-57065533D01*
X111935714Y-56779819D02*
X112411904Y-56779819D01*
X112411904Y-56779819D02*
X112459523Y-57256009D01*
X112459523Y-57256009D02*
X112411904Y-57208390D01*
X112411904Y-57208390D02*
X112316666Y-57160771D01*
X112316666Y-57160771D02*
X112078571Y-57160771D01*
X112078571Y-57160771D02*
X111983333Y-57208390D01*
X111983333Y-57208390D02*
X111935714Y-57256009D01*
X111935714Y-57256009D02*
X111888095Y-57351247D01*
X111888095Y-57351247D02*
X111888095Y-57589342D01*
X111888095Y-57589342D02*
X111935714Y-57684580D01*
X111935714Y-57684580D02*
X111983333Y-57732200D01*
X111983333Y-57732200D02*
X112078571Y-57779819D01*
X112078571Y-57779819D02*
X112316666Y-57779819D01*
X112316666Y-57779819D02*
X112411904Y-57732200D01*
X112411904Y-57732200D02*
X112459523Y-57684580D01*
X157642857Y-66274819D02*
X157976190Y-65798628D01*
X158214285Y-66274819D02*
X158214285Y-65274819D01*
X158214285Y-65274819D02*
X157833333Y-65274819D01*
X157833333Y-65274819D02*
X157738095Y-65322438D01*
X157738095Y-65322438D02*
X157690476Y-65370057D01*
X157690476Y-65370057D02*
X157642857Y-65465295D01*
X157642857Y-65465295D02*
X157642857Y-65608152D01*
X157642857Y-65608152D02*
X157690476Y-65703390D01*
X157690476Y-65703390D02*
X157738095Y-65751009D01*
X157738095Y-65751009D02*
X157833333Y-65798628D01*
X157833333Y-65798628D02*
X158214285Y-65798628D01*
X157309523Y-65274819D02*
X156690476Y-65274819D01*
X156690476Y-65274819D02*
X157023809Y-65655771D01*
X157023809Y-65655771D02*
X156880952Y-65655771D01*
X156880952Y-65655771D02*
X156785714Y-65703390D01*
X156785714Y-65703390D02*
X156738095Y-65751009D01*
X156738095Y-65751009D02*
X156690476Y-65846247D01*
X156690476Y-65846247D02*
X156690476Y-66084342D01*
X156690476Y-66084342D02*
X156738095Y-66179580D01*
X156738095Y-66179580D02*
X156785714Y-66227200D01*
X156785714Y-66227200D02*
X156880952Y-66274819D01*
X156880952Y-66274819D02*
X157166666Y-66274819D01*
X157166666Y-66274819D02*
X157261904Y-66227200D01*
X157261904Y-66227200D02*
X157309523Y-66179580D01*
X155738095Y-66274819D02*
X156309523Y-66274819D01*
X156023809Y-66274819D02*
X156023809Y-65274819D01*
X156023809Y-65274819D02*
X156119047Y-65417676D01*
X156119047Y-65417676D02*
X156214285Y-65512914D01*
X156214285Y-65512914D02*
X156309523Y-65560533D01*
X151454819Y-78357142D02*
X150978628Y-78023809D01*
X151454819Y-77785714D02*
X150454819Y-77785714D01*
X150454819Y-77785714D02*
X150454819Y-78166666D01*
X150454819Y-78166666D02*
X150502438Y-78261904D01*
X150502438Y-78261904D02*
X150550057Y-78309523D01*
X150550057Y-78309523D02*
X150645295Y-78357142D01*
X150645295Y-78357142D02*
X150788152Y-78357142D01*
X150788152Y-78357142D02*
X150883390Y-78309523D01*
X150883390Y-78309523D02*
X150931009Y-78261904D01*
X150931009Y-78261904D02*
X150978628Y-78166666D01*
X150978628Y-78166666D02*
X150978628Y-77785714D01*
X150550057Y-78738095D02*
X150502438Y-78785714D01*
X150502438Y-78785714D02*
X150454819Y-78880952D01*
X150454819Y-78880952D02*
X150454819Y-79119047D01*
X150454819Y-79119047D02*
X150502438Y-79214285D01*
X150502438Y-79214285D02*
X150550057Y-79261904D01*
X150550057Y-79261904D02*
X150645295Y-79309523D01*
X150645295Y-79309523D02*
X150740533Y-79309523D01*
X150740533Y-79309523D02*
X150883390Y-79261904D01*
X150883390Y-79261904D02*
X151454819Y-78690476D01*
X151454819Y-78690476D02*
X151454819Y-79309523D01*
X150788152Y-80166666D02*
X151454819Y-80166666D01*
X150407200Y-79928571D02*
X151121485Y-79690476D01*
X151121485Y-79690476D02*
X151121485Y-80309523D01*
D11*
X130264318Y-45207856D02*
X128994318Y-45207856D01*
X128994318Y-45207856D02*
X128994318Y-45510237D01*
X128994318Y-45510237D02*
X129054794Y-45691666D01*
X129054794Y-45691666D02*
X129175746Y-45812618D01*
X129175746Y-45812618D02*
X129296699Y-45873095D01*
X129296699Y-45873095D02*
X129538603Y-45933571D01*
X129538603Y-45933571D02*
X129720032Y-45933571D01*
X129720032Y-45933571D02*
X129961937Y-45873095D01*
X129961937Y-45873095D02*
X130082889Y-45812618D01*
X130082889Y-45812618D02*
X130203842Y-45691666D01*
X130203842Y-45691666D02*
X130264318Y-45510237D01*
X130264318Y-45510237D02*
X130264318Y-45207856D01*
X130264318Y-47143095D02*
X130264318Y-46417380D01*
X130264318Y-46780237D02*
X128994318Y-46780237D01*
X128994318Y-46780237D02*
X129175746Y-46659285D01*
X129175746Y-46659285D02*
X129296699Y-46538333D01*
X129296699Y-46538333D02*
X129357175Y-46417380D01*
X129115270Y-47626904D02*
X129054794Y-47687380D01*
X129054794Y-47687380D02*
X128994318Y-47808333D01*
X128994318Y-47808333D02*
X128994318Y-48110714D01*
X128994318Y-48110714D02*
X129054794Y-48231666D01*
X129054794Y-48231666D02*
X129115270Y-48292142D01*
X129115270Y-48292142D02*
X129236222Y-48352619D01*
X129236222Y-48352619D02*
X129357175Y-48352619D01*
X129357175Y-48352619D02*
X129538603Y-48292142D01*
X129538603Y-48292142D02*
X130264318Y-47566428D01*
X130264318Y-47566428D02*
X130264318Y-48352619D01*
D10*
X112816666Y-44279819D02*
X113149999Y-43803628D01*
X113388094Y-44279819D02*
X113388094Y-43279819D01*
X113388094Y-43279819D02*
X113007142Y-43279819D01*
X113007142Y-43279819D02*
X112911904Y-43327438D01*
X112911904Y-43327438D02*
X112864285Y-43375057D01*
X112864285Y-43375057D02*
X112816666Y-43470295D01*
X112816666Y-43470295D02*
X112816666Y-43613152D01*
X112816666Y-43613152D02*
X112864285Y-43708390D01*
X112864285Y-43708390D02*
X112911904Y-43756009D01*
X112911904Y-43756009D02*
X113007142Y-43803628D01*
X113007142Y-43803628D02*
X113388094Y-43803628D01*
X112483332Y-43279819D02*
X111864285Y-43279819D01*
X111864285Y-43279819D02*
X112197618Y-43660771D01*
X112197618Y-43660771D02*
X112054761Y-43660771D01*
X112054761Y-43660771D02*
X111959523Y-43708390D01*
X111959523Y-43708390D02*
X111911904Y-43756009D01*
X111911904Y-43756009D02*
X111864285Y-43851247D01*
X111864285Y-43851247D02*
X111864285Y-44089342D01*
X111864285Y-44089342D02*
X111911904Y-44184580D01*
X111911904Y-44184580D02*
X111959523Y-44232200D01*
X111959523Y-44232200D02*
X112054761Y-44279819D01*
X112054761Y-44279819D02*
X112340475Y-44279819D01*
X112340475Y-44279819D02*
X112435713Y-44232200D01*
X112435713Y-44232200D02*
X112483332Y-44184580D01*
D11*
X141542143Y-74835658D02*
X141542143Y-73565658D01*
X141542143Y-73565658D02*
X141239762Y-73565658D01*
X141239762Y-73565658D02*
X141058333Y-73626134D01*
X141058333Y-73626134D02*
X140937381Y-73747086D01*
X140937381Y-73747086D02*
X140876904Y-73868039D01*
X140876904Y-73868039D02*
X140816428Y-74109943D01*
X140816428Y-74109943D02*
X140816428Y-74291372D01*
X140816428Y-74291372D02*
X140876904Y-74533277D01*
X140876904Y-74533277D02*
X140937381Y-74654229D01*
X140937381Y-74654229D02*
X141058333Y-74775182D01*
X141058333Y-74775182D02*
X141239762Y-74835658D01*
X141239762Y-74835658D02*
X141542143Y-74835658D01*
X139606904Y-74835658D02*
X140332619Y-74835658D01*
X139969762Y-74835658D02*
X139969762Y-73565658D01*
X139969762Y-73565658D02*
X140090714Y-73747086D01*
X140090714Y-73747086D02*
X140211666Y-73868039D01*
X140211666Y-73868039D02*
X140332619Y-73928515D01*
X138820714Y-73565658D02*
X138699761Y-73565658D01*
X138699761Y-73565658D02*
X138578809Y-73626134D01*
X138578809Y-73626134D02*
X138518333Y-73686610D01*
X138518333Y-73686610D02*
X138457857Y-73807562D01*
X138457857Y-73807562D02*
X138397380Y-74049467D01*
X138397380Y-74049467D02*
X138397380Y-74351848D01*
X138397380Y-74351848D02*
X138457857Y-74593753D01*
X138457857Y-74593753D02*
X138518333Y-74714705D01*
X138518333Y-74714705D02*
X138578809Y-74775182D01*
X138578809Y-74775182D02*
X138699761Y-74835658D01*
X138699761Y-74835658D02*
X138820714Y-74835658D01*
X138820714Y-74835658D02*
X138941666Y-74775182D01*
X138941666Y-74775182D02*
X139002142Y-74714705D01*
X139002142Y-74714705D02*
X139062619Y-74593753D01*
X139062619Y-74593753D02*
X139123095Y-74351848D01*
X139123095Y-74351848D02*
X139123095Y-74049467D01*
X139123095Y-74049467D02*
X139062619Y-73807562D01*
X139062619Y-73807562D02*
X139002142Y-73686610D01*
X139002142Y-73686610D02*
X138941666Y-73626134D01*
X138941666Y-73626134D02*
X138820714Y-73565658D01*
D10*
X142954819Y-81607142D02*
X142478628Y-81273809D01*
X142954819Y-81035714D02*
X141954819Y-81035714D01*
X141954819Y-81035714D02*
X141954819Y-81416666D01*
X141954819Y-81416666D02*
X142002438Y-81511904D01*
X142002438Y-81511904D02*
X142050057Y-81559523D01*
X142050057Y-81559523D02*
X142145295Y-81607142D01*
X142145295Y-81607142D02*
X142288152Y-81607142D01*
X142288152Y-81607142D02*
X142383390Y-81559523D01*
X142383390Y-81559523D02*
X142431009Y-81511904D01*
X142431009Y-81511904D02*
X142478628Y-81416666D01*
X142478628Y-81416666D02*
X142478628Y-81035714D01*
X142050057Y-81988095D02*
X142002438Y-82035714D01*
X142002438Y-82035714D02*
X141954819Y-82130952D01*
X141954819Y-82130952D02*
X141954819Y-82369047D01*
X141954819Y-82369047D02*
X142002438Y-82464285D01*
X142002438Y-82464285D02*
X142050057Y-82511904D01*
X142050057Y-82511904D02*
X142145295Y-82559523D01*
X142145295Y-82559523D02*
X142240533Y-82559523D01*
X142240533Y-82559523D02*
X142383390Y-82511904D01*
X142383390Y-82511904D02*
X142954819Y-81940476D01*
X142954819Y-81940476D02*
X142954819Y-82559523D01*
X141954819Y-83464285D02*
X141954819Y-82988095D01*
X141954819Y-82988095D02*
X142431009Y-82940476D01*
X142431009Y-82940476D02*
X142383390Y-82988095D01*
X142383390Y-82988095D02*
X142335771Y-83083333D01*
X142335771Y-83083333D02*
X142335771Y-83321428D01*
X142335771Y-83321428D02*
X142383390Y-83416666D01*
X142383390Y-83416666D02*
X142431009Y-83464285D01*
X142431009Y-83464285D02*
X142526247Y-83511904D01*
X142526247Y-83511904D02*
X142764342Y-83511904D01*
X142764342Y-83511904D02*
X142859580Y-83464285D01*
X142859580Y-83464285D02*
X142907200Y-83416666D01*
X142907200Y-83416666D02*
X142954819Y-83321428D01*
X142954819Y-83321428D02*
X142954819Y-83083333D01*
X142954819Y-83083333D02*
X142907200Y-82988095D01*
X142907200Y-82988095D02*
X142859580Y-82940476D01*
D11*
X94574318Y-49962618D02*
X93304318Y-49962618D01*
X93304318Y-49962618D02*
X93304318Y-50264999D01*
X93304318Y-50264999D02*
X93364794Y-50446428D01*
X93364794Y-50446428D02*
X93485746Y-50567380D01*
X93485746Y-50567380D02*
X93606699Y-50627857D01*
X93606699Y-50627857D02*
X93848603Y-50688333D01*
X93848603Y-50688333D02*
X94030032Y-50688333D01*
X94030032Y-50688333D02*
X94271937Y-50627857D01*
X94271937Y-50627857D02*
X94392889Y-50567380D01*
X94392889Y-50567380D02*
X94513842Y-50446428D01*
X94513842Y-50446428D02*
X94574318Y-50264999D01*
X94574318Y-50264999D02*
X94574318Y-49962618D01*
X94574318Y-51897857D02*
X94574318Y-51172142D01*
X94574318Y-51534999D02*
X93304318Y-51534999D01*
X93304318Y-51534999D02*
X93485746Y-51414047D01*
X93485746Y-51414047D02*
X93606699Y-51293095D01*
X93606699Y-51293095D02*
X93667175Y-51172142D01*
D10*
X124700819Y-69488095D02*
X125510342Y-69488095D01*
X125510342Y-69488095D02*
X125605580Y-69535714D01*
X125605580Y-69535714D02*
X125653200Y-69583333D01*
X125653200Y-69583333D02*
X125700819Y-69678571D01*
X125700819Y-69678571D02*
X125700819Y-69869047D01*
X125700819Y-69869047D02*
X125653200Y-69964285D01*
X125653200Y-69964285D02*
X125605580Y-70011904D01*
X125605580Y-70011904D02*
X125510342Y-70059523D01*
X125510342Y-70059523D02*
X124700819Y-70059523D01*
X125700819Y-71059523D02*
X125700819Y-70488095D01*
X125700819Y-70773809D02*
X124700819Y-70773809D01*
X124700819Y-70773809D02*
X124843676Y-70678571D01*
X124843676Y-70678571D02*
X124938914Y-70583333D01*
X124938914Y-70583333D02*
X124986533Y-70488095D01*
X141704819Y-78443482D02*
X141228628Y-78110149D01*
X141704819Y-77872054D02*
X140704819Y-77872054D01*
X140704819Y-77872054D02*
X140704819Y-78253006D01*
X140704819Y-78253006D02*
X140752438Y-78348244D01*
X140752438Y-78348244D02*
X140800057Y-78395863D01*
X140800057Y-78395863D02*
X140895295Y-78443482D01*
X140895295Y-78443482D02*
X141038152Y-78443482D01*
X141038152Y-78443482D02*
X141133390Y-78395863D01*
X141133390Y-78395863D02*
X141181009Y-78348244D01*
X141181009Y-78348244D02*
X141228628Y-78253006D01*
X141228628Y-78253006D02*
X141228628Y-77872054D01*
X140800057Y-78824435D02*
X140752438Y-78872054D01*
X140752438Y-78872054D02*
X140704819Y-78967292D01*
X140704819Y-78967292D02*
X140704819Y-79205387D01*
X140704819Y-79205387D02*
X140752438Y-79300625D01*
X140752438Y-79300625D02*
X140800057Y-79348244D01*
X140800057Y-79348244D02*
X140895295Y-79395863D01*
X140895295Y-79395863D02*
X140990533Y-79395863D01*
X140990533Y-79395863D02*
X141133390Y-79348244D01*
X141133390Y-79348244D02*
X141704819Y-78776816D01*
X141704819Y-78776816D02*
X141704819Y-79395863D01*
X141133390Y-79967292D02*
X141085771Y-79872054D01*
X141085771Y-79872054D02*
X141038152Y-79824435D01*
X141038152Y-79824435D02*
X140942914Y-79776816D01*
X140942914Y-79776816D02*
X140895295Y-79776816D01*
X140895295Y-79776816D02*
X140800057Y-79824435D01*
X140800057Y-79824435D02*
X140752438Y-79872054D01*
X140752438Y-79872054D02*
X140704819Y-79967292D01*
X140704819Y-79967292D02*
X140704819Y-80157768D01*
X140704819Y-80157768D02*
X140752438Y-80253006D01*
X140752438Y-80253006D02*
X140800057Y-80300625D01*
X140800057Y-80300625D02*
X140895295Y-80348244D01*
X140895295Y-80348244D02*
X140942914Y-80348244D01*
X140942914Y-80348244D02*
X141038152Y-80300625D01*
X141038152Y-80300625D02*
X141085771Y-80253006D01*
X141085771Y-80253006D02*
X141133390Y-80157768D01*
X141133390Y-80157768D02*
X141133390Y-79967292D01*
X141133390Y-79967292D02*
X141181009Y-79872054D01*
X141181009Y-79872054D02*
X141228628Y-79824435D01*
X141228628Y-79824435D02*
X141323866Y-79776816D01*
X141323866Y-79776816D02*
X141514342Y-79776816D01*
X141514342Y-79776816D02*
X141609580Y-79824435D01*
X141609580Y-79824435D02*
X141657200Y-79872054D01*
X141657200Y-79872054D02*
X141704819Y-79967292D01*
X141704819Y-79967292D02*
X141704819Y-80157768D01*
X141704819Y-80157768D02*
X141657200Y-80253006D01*
X141657200Y-80253006D02*
X141609580Y-80300625D01*
X141609580Y-80300625D02*
X141514342Y-80348244D01*
X141514342Y-80348244D02*
X141323866Y-80348244D01*
X141323866Y-80348244D02*
X141228628Y-80300625D01*
X141228628Y-80300625D02*
X141181009Y-80253006D01*
X141181009Y-80253006D02*
X141133390Y-80157768D01*
X121879819Y-52758333D02*
X121403628Y-52425000D01*
X121879819Y-52186905D02*
X120879819Y-52186905D01*
X120879819Y-52186905D02*
X120879819Y-52567857D01*
X120879819Y-52567857D02*
X120927438Y-52663095D01*
X120927438Y-52663095D02*
X120975057Y-52710714D01*
X120975057Y-52710714D02*
X121070295Y-52758333D01*
X121070295Y-52758333D02*
X121213152Y-52758333D01*
X121213152Y-52758333D02*
X121308390Y-52710714D01*
X121308390Y-52710714D02*
X121356009Y-52663095D01*
X121356009Y-52663095D02*
X121403628Y-52567857D01*
X121403628Y-52567857D02*
X121403628Y-52186905D01*
X120879819Y-53091667D02*
X120879819Y-53758333D01*
X120879819Y-53758333D02*
X121879819Y-53329762D01*
X141704819Y-81618482D02*
X141228628Y-81285149D01*
X141704819Y-81047054D02*
X140704819Y-81047054D01*
X140704819Y-81047054D02*
X140704819Y-81428006D01*
X140704819Y-81428006D02*
X140752438Y-81523244D01*
X140752438Y-81523244D02*
X140800057Y-81570863D01*
X140800057Y-81570863D02*
X140895295Y-81618482D01*
X140895295Y-81618482D02*
X141038152Y-81618482D01*
X141038152Y-81618482D02*
X141133390Y-81570863D01*
X141133390Y-81570863D02*
X141181009Y-81523244D01*
X141181009Y-81523244D02*
X141228628Y-81428006D01*
X141228628Y-81428006D02*
X141228628Y-81047054D01*
X140800057Y-81999435D02*
X140752438Y-82047054D01*
X140752438Y-82047054D02*
X140704819Y-82142292D01*
X140704819Y-82142292D02*
X140704819Y-82380387D01*
X140704819Y-82380387D02*
X140752438Y-82475625D01*
X140752438Y-82475625D02*
X140800057Y-82523244D01*
X140800057Y-82523244D02*
X140895295Y-82570863D01*
X140895295Y-82570863D02*
X140990533Y-82570863D01*
X140990533Y-82570863D02*
X141133390Y-82523244D01*
X141133390Y-82523244D02*
X141704819Y-81951816D01*
X141704819Y-81951816D02*
X141704819Y-82570863D01*
X140704819Y-82904197D02*
X140704819Y-83570863D01*
X140704819Y-83570863D02*
X141704819Y-83142292D01*
D11*
X144687381Y-74824318D02*
X144687381Y-73554318D01*
X144687381Y-73554318D02*
X144385000Y-73554318D01*
X144385000Y-73554318D02*
X144203571Y-73614794D01*
X144203571Y-73614794D02*
X144082619Y-73735746D01*
X144082619Y-73735746D02*
X144022142Y-73856699D01*
X144022142Y-73856699D02*
X143961666Y-74098603D01*
X143961666Y-74098603D02*
X143961666Y-74280032D01*
X143961666Y-74280032D02*
X144022142Y-74521937D01*
X144022142Y-74521937D02*
X144082619Y-74642889D01*
X144082619Y-74642889D02*
X144203571Y-74763842D01*
X144203571Y-74763842D02*
X144385000Y-74824318D01*
X144385000Y-74824318D02*
X144687381Y-74824318D01*
X143356904Y-74824318D02*
X143115000Y-74824318D01*
X143115000Y-74824318D02*
X142994047Y-74763842D01*
X142994047Y-74763842D02*
X142933571Y-74703365D01*
X142933571Y-74703365D02*
X142812619Y-74521937D01*
X142812619Y-74521937D02*
X142752142Y-74280032D01*
X142752142Y-74280032D02*
X142752142Y-73796222D01*
X142752142Y-73796222D02*
X142812619Y-73675270D01*
X142812619Y-73675270D02*
X142873095Y-73614794D01*
X142873095Y-73614794D02*
X142994047Y-73554318D01*
X142994047Y-73554318D02*
X143235952Y-73554318D01*
X143235952Y-73554318D02*
X143356904Y-73614794D01*
X143356904Y-73614794D02*
X143417381Y-73675270D01*
X143417381Y-73675270D02*
X143477857Y-73796222D01*
X143477857Y-73796222D02*
X143477857Y-74098603D01*
X143477857Y-74098603D02*
X143417381Y-74219556D01*
X143417381Y-74219556D02*
X143356904Y-74280032D01*
X143356904Y-74280032D02*
X143235952Y-74340508D01*
X143235952Y-74340508D02*
X142994047Y-74340508D01*
X142994047Y-74340508D02*
X142873095Y-74280032D01*
X142873095Y-74280032D02*
X142812619Y-74219556D01*
X142812619Y-74219556D02*
X142752142Y-74098603D01*
X123014318Y-45207856D02*
X121744318Y-45207856D01*
X121744318Y-45207856D02*
X121744318Y-45510237D01*
X121744318Y-45510237D02*
X121804794Y-45691666D01*
X121804794Y-45691666D02*
X121925746Y-45812618D01*
X121925746Y-45812618D02*
X122046699Y-45873095D01*
X122046699Y-45873095D02*
X122288603Y-45933571D01*
X122288603Y-45933571D02*
X122470032Y-45933571D01*
X122470032Y-45933571D02*
X122711937Y-45873095D01*
X122711937Y-45873095D02*
X122832889Y-45812618D01*
X122832889Y-45812618D02*
X122953842Y-45691666D01*
X122953842Y-45691666D02*
X123014318Y-45510237D01*
X123014318Y-45510237D02*
X123014318Y-45207856D01*
X123014318Y-47143095D02*
X123014318Y-46417380D01*
X123014318Y-46780237D02*
X121744318Y-46780237D01*
X121744318Y-46780237D02*
X121925746Y-46659285D01*
X121925746Y-46659285D02*
X122046699Y-46538333D01*
X122046699Y-46538333D02*
X122107175Y-46417380D01*
X121744318Y-47566428D02*
X121744318Y-48352619D01*
X121744318Y-48352619D02*
X122228127Y-47929285D01*
X122228127Y-47929285D02*
X122228127Y-48110714D01*
X122228127Y-48110714D02*
X122288603Y-48231666D01*
X122288603Y-48231666D02*
X122349080Y-48292142D01*
X122349080Y-48292142D02*
X122470032Y-48352619D01*
X122470032Y-48352619D02*
X122772413Y-48352619D01*
X122772413Y-48352619D02*
X122893365Y-48292142D01*
X122893365Y-48292142D02*
X122953842Y-48231666D01*
X122953842Y-48231666D02*
X123014318Y-48110714D01*
X123014318Y-48110714D02*
X123014318Y-47747857D01*
X123014318Y-47747857D02*
X122953842Y-47626904D01*
X122953842Y-47626904D02*
X122893365Y-47566428D01*
D10*
X151454819Y-81607142D02*
X150978628Y-81273809D01*
X151454819Y-81035714D02*
X150454819Y-81035714D01*
X150454819Y-81035714D02*
X150454819Y-81416666D01*
X150454819Y-81416666D02*
X150502438Y-81511904D01*
X150502438Y-81511904D02*
X150550057Y-81559523D01*
X150550057Y-81559523D02*
X150645295Y-81607142D01*
X150645295Y-81607142D02*
X150788152Y-81607142D01*
X150788152Y-81607142D02*
X150883390Y-81559523D01*
X150883390Y-81559523D02*
X150931009Y-81511904D01*
X150931009Y-81511904D02*
X150978628Y-81416666D01*
X150978628Y-81416666D02*
X150978628Y-81035714D01*
X150550057Y-81988095D02*
X150502438Y-82035714D01*
X150502438Y-82035714D02*
X150454819Y-82130952D01*
X150454819Y-82130952D02*
X150454819Y-82369047D01*
X150454819Y-82369047D02*
X150502438Y-82464285D01*
X150502438Y-82464285D02*
X150550057Y-82511904D01*
X150550057Y-82511904D02*
X150645295Y-82559523D01*
X150645295Y-82559523D02*
X150740533Y-82559523D01*
X150740533Y-82559523D02*
X150883390Y-82511904D01*
X150883390Y-82511904D02*
X151454819Y-81940476D01*
X151454819Y-81940476D02*
X151454819Y-82559523D01*
X150454819Y-82892857D02*
X150454819Y-83511904D01*
X150454819Y-83511904D02*
X150835771Y-83178571D01*
X150835771Y-83178571D02*
X150835771Y-83321428D01*
X150835771Y-83321428D02*
X150883390Y-83416666D01*
X150883390Y-83416666D02*
X150931009Y-83464285D01*
X150931009Y-83464285D02*
X151026247Y-83511904D01*
X151026247Y-83511904D02*
X151264342Y-83511904D01*
X151264342Y-83511904D02*
X151359580Y-83464285D01*
X151359580Y-83464285D02*
X151407200Y-83416666D01*
X151407200Y-83416666D02*
X151454819Y-83321428D01*
X151454819Y-83321428D02*
X151454819Y-83035714D01*
X151454819Y-83035714D02*
X151407200Y-82940476D01*
X151407200Y-82940476D02*
X151359580Y-82892857D01*
D11*
X94574318Y-62212618D02*
X93304318Y-62212618D01*
X93304318Y-62212618D02*
X93304318Y-62514999D01*
X93304318Y-62514999D02*
X93364794Y-62696428D01*
X93364794Y-62696428D02*
X93485746Y-62817380D01*
X93485746Y-62817380D02*
X93606699Y-62877857D01*
X93606699Y-62877857D02*
X93848603Y-62938333D01*
X93848603Y-62938333D02*
X94030032Y-62938333D01*
X94030032Y-62938333D02*
X94271937Y-62877857D01*
X94271937Y-62877857D02*
X94392889Y-62817380D01*
X94392889Y-62817380D02*
X94513842Y-62696428D01*
X94513842Y-62696428D02*
X94574318Y-62514999D01*
X94574318Y-62514999D02*
X94574318Y-62212618D01*
X93425270Y-63422142D02*
X93364794Y-63482618D01*
X93364794Y-63482618D02*
X93304318Y-63603571D01*
X93304318Y-63603571D02*
X93304318Y-63905952D01*
X93304318Y-63905952D02*
X93364794Y-64026904D01*
X93364794Y-64026904D02*
X93425270Y-64087380D01*
X93425270Y-64087380D02*
X93546222Y-64147857D01*
X93546222Y-64147857D02*
X93667175Y-64147857D01*
X93667175Y-64147857D02*
X93848603Y-64087380D01*
X93848603Y-64087380D02*
X94574318Y-63361666D01*
X94574318Y-63361666D02*
X94574318Y-64147857D01*
D12*
%TO.C,R10*%
X109912742Y-50552500D02*
X110387258Y-50552500D01*
X109912742Y-51597500D02*
X110387258Y-51597500D01*
D13*
%TO.C,D15*%
X126430000Y-44650000D02*
X128100000Y-44650000D01*
X126900000Y-43850000D02*
X128100000Y-43850000D01*
D12*
%TO.C,R30*%
X147727500Y-79412258D02*
X147727500Y-78937742D01*
X148772500Y-79412258D02*
X148772500Y-78937742D01*
%TO.C,C2*%
X135590580Y-47665000D02*
X135309420Y-47665000D01*
X135590580Y-48685000D02*
X135309420Y-48685000D01*
%TO.C,R1*%
X132677500Y-48687742D02*
X132677500Y-49162258D01*
X133722500Y-48687742D02*
X133722500Y-49162258D01*
%TO.C,R26*%
X143477500Y-79237258D02*
X143477500Y-78762742D01*
X144522500Y-79237258D02*
X144522500Y-78762742D01*
%TO.C,R14*%
X109912742Y-55052500D02*
X110387258Y-55052500D01*
X109912742Y-56097500D02*
X110387258Y-56097500D01*
%TO.C,C1*%
X135590580Y-49165000D02*
X135309420Y-49165000D01*
X135590580Y-50185000D02*
X135309420Y-50185000D01*
%TO.C,R2*%
X109912742Y-41302500D02*
X110387258Y-41302500D01*
X109912742Y-42347500D02*
X110387258Y-42347500D01*
%TO.C,R6*%
X109912742Y-47802500D02*
X110387258Y-47802500D01*
X109912742Y-48847500D02*
X110387258Y-48847500D01*
%TO.C,R11*%
X109912742Y-52302500D02*
X110387258Y-52302500D01*
X109912742Y-53347500D02*
X110387258Y-53347500D01*
%TO.C,R29*%
X147727500Y-82587258D02*
X147727500Y-82112742D01*
X148772500Y-82587258D02*
X148772500Y-82112742D01*
%TO.C,R5*%
X109912742Y-46052500D02*
X110387258Y-46052500D01*
X109912742Y-47097500D02*
X110387258Y-47097500D01*
D13*
%TO.C,D11*%
X148850000Y-76875000D02*
X147150000Y-76875000D01*
X149700000Y-75625000D02*
X147150000Y-75625000D01*
%TO.C,D6*%
X91476551Y-86695552D02*
X91476551Y-88545552D01*
X92726551Y-86695552D02*
X92726551Y-89180552D01*
D12*
%TO.C,C3*%
X131190000Y-49065580D02*
X131190000Y-48784420D01*
X132210000Y-49065580D02*
X132210000Y-48784420D01*
%TO.C,R4*%
X119402500Y-50412258D02*
X119402500Y-49937742D01*
X120447500Y-50412258D02*
X120447500Y-49937742D01*
D13*
%TO.C,D8*%
X153100000Y-76875000D02*
X151400000Y-76875000D01*
X153950000Y-75625000D02*
X151400000Y-75625000D01*
%TO.C,D3*%
X91473888Y-74466233D02*
X91473888Y-76316233D01*
X92723888Y-74466233D02*
X92723888Y-76951233D01*
%TO.C,D14*%
X123620000Y-44676476D02*
X125290000Y-44676476D01*
X124090000Y-43876476D02*
X125290000Y-43876476D01*
D12*
%TO.C,R15*%
X109912742Y-56802500D02*
X110387258Y-56802500D01*
X109912742Y-57847500D02*
X110387258Y-57847500D01*
%TO.C,R31*%
X157237258Y-66727500D02*
X156762742Y-66727500D01*
X157237258Y-67772500D02*
X156762742Y-67772500D01*
%TO.C,R24*%
X151977500Y-79237258D02*
X151977500Y-78762742D01*
X153022500Y-79237258D02*
X153022500Y-78762742D01*
D13*
%TO.C,D12*%
X127790000Y-46850000D02*
X127790000Y-45650000D01*
X128590000Y-47320000D02*
X128590000Y-45650000D01*
D12*
%TO.C,R3*%
X109912742Y-43302500D02*
X110387258Y-43302500D01*
X109912742Y-44347500D02*
X110387258Y-44347500D01*
D13*
%TO.C,D10*%
X140350000Y-76886340D02*
X138650000Y-76886340D01*
X141200000Y-75636340D02*
X138650000Y-75636340D01*
D12*
%TO.C,R25*%
X143477500Y-82487258D02*
X143477500Y-82012742D01*
X144522500Y-82487258D02*
X144522500Y-82012742D01*
D13*
%TO.C,D1*%
X91450000Y-50100000D02*
X91450000Y-51950000D01*
X92700000Y-50100000D02*
X92700000Y-52585000D01*
D12*
%TO.C,U1*%
X110500000Y-56250000D02*
X137800000Y-56250000D01*
X110500000Y-83650000D02*
X110500000Y-56250000D01*
X117880000Y-56788000D02*
X117905000Y-60128000D01*
X117905000Y-83228000D02*
X117905000Y-60128000D01*
X134505000Y-57042000D02*
X134505000Y-60128000D01*
X134505000Y-57042000D02*
X134517000Y-56788000D01*
X134505000Y-60128000D02*
X134505000Y-83228000D01*
X134505000Y-83228000D02*
X117905000Y-83228000D01*
X134517000Y-56788000D02*
X117880000Y-56788000D01*
X134898000Y-65170000D02*
X137311000Y-65170000D01*
X134898000Y-74949000D02*
X134898000Y-65170000D01*
X134898000Y-74949000D02*
X137311000Y-74949000D01*
X137311000Y-65170000D02*
X137311000Y-74949000D01*
X137800000Y-56250000D02*
X137800000Y-83650000D01*
X137800000Y-83650000D02*
X110500000Y-83650000D01*
%TO.C,R28*%
X139227500Y-79323598D02*
X139227500Y-78849082D01*
X140272500Y-79323598D02*
X140272500Y-78849082D01*
%TO.C,R7*%
X119402500Y-52937742D02*
X119402500Y-53412258D01*
X120447500Y-52937742D02*
X120447500Y-53412258D01*
%TO.C,R27*%
X139227500Y-82498598D02*
X139227500Y-82024082D01*
X140272500Y-82498598D02*
X140272500Y-82024082D01*
D13*
%TO.C,D9*%
X144600000Y-76875000D02*
X142900000Y-76875000D01*
X145450000Y-75625000D02*
X142900000Y-75625000D01*
%TO.C,D13*%
X120870000Y-44650000D02*
X122540000Y-44650000D01*
X121340000Y-43850000D02*
X122540000Y-43850000D01*
D12*
%TO.C,R23*%
X151977500Y-82487258D02*
X151977500Y-82012742D01*
X153022500Y-82487258D02*
X153022500Y-82012742D01*
D13*
%TO.C,D2*%
X91437612Y-62317980D02*
X91437612Y-64167980D01*
X92687612Y-62317980D02*
X92687612Y-64802980D01*
%TD*%
M02*
