%TF.GenerationSoftware,KiCad,Pcbnew,9.0.3*%
%TF.CreationDate,2025-07-23T10:30:02+02:00*%
%TF.ProjectId,DinoSpand_v2.0,44696e6f-5370-4616-9e64-5f76322e302e,rev?*%
%TF.SameCoordinates,Original*%
%TF.FileFunction,OtherDrawing,Comment*%
%FSLAX46Y46*%
G04 Gerber Fmt 4.6, Leading zero omitted, Abs format (unit mm)*
G04 Created by KiCad (PCBNEW 9.0.3) date 2025-07-23 10:30:02*
%MOMM*%
%LPD*%
G01*
G04 APERTURE LIST*
%ADD10C,0.211000*%
G04 APERTURE END LIST*
D10*
X140907988Y-80948574D02*
G75*
G02*
X139752160Y-80948574I-577914J0D01*
G01*
X139752160Y-80948574D02*
G75*
G02*
X140907988Y-80948574I577914J0D01*
G01*
X148634305Y-80359800D02*
G75*
G02*
X146712415Y-80359800I-960945J0D01*
G01*
X146712415Y-80359800D02*
G75*
G02*
X148634305Y-80359800I960945J0D01*
G01*
X141988955Y-80948574D02*
G75*
G02*
X138671193Y-80948574I-1658881J0D01*
G01*
X138671193Y-80948574D02*
G75*
G02*
X141988955Y-80948574I1658881J0D01*
G01*
X141307988Y-80948574D02*
G75*
G02*
X139352160Y-80948574I-977914J0D01*
G01*
X139352160Y-80948574D02*
G75*
G02*
X141307988Y-80948574I977914J0D01*
G01*
X149034305Y-80359800D02*
G75*
G02*
X146312415Y-80359800I-1360945J0D01*
G01*
X146312415Y-80359800D02*
G75*
G02*
X149034305Y-80359800I1360945J0D01*
G01*
X141047186Y-77614133D02*
X141047180Y-77502035D01*
X140258567Y-78570495D02*
X139563990Y-78084583D01*
X142462294Y-76959834D02*
G75*
G02*
X142248236Y-78655605I-324090J-820486D01*
G01*
X140272395Y-78092003D02*
X141047186Y-77614133D01*
X139372169Y-77562141D02*
G75*
G02*
X142262042Y-76929717I3726235J-10108229D01*
G01*
X144497434Y-75322794D02*
G75*
G02*
X144549730Y-75618157I-930J-152476D01*
G01*
X143887398Y-75773149D02*
G75*
G02*
X144549744Y-75618192I1731206J-5906821D01*
G01*
X141750000Y-78750000D02*
G75*
G02*
X141827710Y-78448064I100004J135230D01*
G01*
X143580003Y-77850114D02*
G75*
G02*
X143818060Y-75846686I9367701J-97256D01*
G01*
X143680004Y-77951153D02*
G75*
G02*
X143580027Y-77850114I0J99983D01*
G01*
X143680004Y-77951153D02*
X144383528Y-77951153D01*
X143588390Y-78355509D02*
G75*
G02*
X143688304Y-78251162I99914J4339D01*
G01*
X142262043Y-76929726D02*
G75*
G02*
X142462298Y-76959823I34961J-448644D01*
G01*
X142127163Y-78690142D02*
G75*
G02*
X142926047Y-80544431I-1964559J-1945628D01*
G01*
X142506535Y-78581927D02*
X142248236Y-78655607D01*
X144383697Y-78251153D02*
X143688304Y-78251153D01*
X144383528Y-77951153D02*
G75*
G02*
X144383697Y-78251154I-29124J-150017D01*
G01*
X139291689Y-78790730D02*
G75*
G02*
X139419609Y-78119390I1115215J135360D01*
G01*
X139291689Y-78790730D02*
G75*
G02*
X138994382Y-78855210I-153685J-9040D01*
G01*
X141750000Y-78750000D02*
G75*
G02*
X142626251Y-80554698I-1587296J-1885770D01*
G01*
X139419627Y-78119400D02*
G75*
G02*
X139563990Y-78084583I87877J-47670D01*
G01*
X139871835Y-77811780D02*
X140272395Y-78092003D01*
X142926090Y-80544430D02*
G75*
G02*
X142626280Y-80554695I-150586J14760D01*
G01*
X138994452Y-78855183D02*
G75*
G02*
X139115828Y-77803398I1766752J329013D01*
G01*
X139115809Y-77803390D02*
G75*
G02*
X139372171Y-77562147I411995J-180980D01*
G01*
X143818069Y-75846688D02*
G75*
G02*
X143887393Y-75773131I97435J-22382D01*
G01*
X139871835Y-77811780D02*
G75*
G02*
X141047180Y-77502036I3227069J-9860490D01*
G01*
X142387006Y-77253989D02*
G75*
G02*
X142395288Y-78302656I-248792J-526331D01*
G01*
X141447240Y-78731513D02*
G75*
G02*
X141147200Y-78672421I-147736J41143D01*
G01*
X141447178Y-77456957D02*
X141447240Y-78731513D01*
X141147200Y-78672421D02*
X141147200Y-78201570D01*
X140994711Y-78116461D02*
G75*
G02*
X141147199Y-78201570I52493J-85109D01*
G01*
X142395290Y-78302661D02*
G75*
G02*
X141827720Y-78448142I-1444886J4457091D01*
G01*
X141447178Y-77456957D02*
G75*
G02*
X141575305Y-77308551I150026J-13D01*
G01*
X142243951Y-77232651D02*
X141575305Y-77308551D01*
X140994711Y-78116461D02*
X140258567Y-78570495D01*
X142243951Y-77232651D02*
G75*
G02*
X142387005Y-77253992I36253J-247119D01*
G01*
X145975066Y-77799986D02*
G75*
G02*
X150050019Y-78562893I1698298J-2193124D01*
G01*
X145975066Y-77799986D02*
G75*
G02*
X145791842Y-77562366I-63462J140516D01*
G01*
X144549745Y-75618198D02*
X144794314Y-74939187D01*
X147495434Y-74593186D02*
G75*
G02*
X147437681Y-74885290I-38830J-144084D01*
G01*
X150326948Y-78441769D02*
G75*
G02*
X150050004Y-78562901I-139944J-57201D01*
G01*
X145899974Y-74451802D02*
G75*
G02*
X147495433Y-74593190I214530J-6651668D01*
G01*
X147172804Y-74835457D02*
X147437681Y-74885290D01*
X147053050Y-74953276D02*
G75*
G02*
X147172804Y-74835458I97954J20206D01*
G01*
X149910336Y-80359800D02*
G75*
G02*
X145436384Y-80359800I-2236976J0D01*
G01*
X145436384Y-80359800D02*
G75*
G02*
X149910336Y-80359800I2236976J0D01*
G01*
X141047180Y-77502035D02*
X141447178Y-77456957D01*
X145791887Y-77562402D02*
G75*
G02*
X150326947Y-78441770I1881477J-2430628D01*
G01*
X143688304Y-78251162D02*
X143688304Y-78251153D01*
X147393416Y-76603319D02*
X147053050Y-74953276D01*
X143789504Y-79471195D02*
G75*
G02*
X143690754Y-79386548I0J99925D01*
G01*
X143430157Y-79647573D02*
G75*
G02*
X143559849Y-75636053I9517607J1700153D01*
G01*
X143559849Y-75636053D02*
G75*
G02*
X143659979Y-75528952I145655J-35817D01*
G01*
X143710084Y-75144931D02*
G75*
G02*
X144679337Y-74870839I2208520J-5959039D01*
G01*
X145102052Y-74919436D02*
G75*
G02*
X145189247Y-74790887I95652J28966D01*
G01*
X144541443Y-79471195D02*
G75*
G02*
X144541174Y-79771196I-28639J-149975D01*
G01*
X144794314Y-74939187D02*
G75*
G02*
X145081325Y-78566305I-7855240J-2446493D01*
G01*
X145543575Y-74624517D02*
G75*
G02*
X145405749Y-74769615I-149971J4447D01*
G01*
X143607054Y-74865859D02*
G75*
G02*
X145380910Y-74468369I2330950J-6245411D01*
G01*
X145378245Y-78609190D02*
G75*
G02*
X145081313Y-78566306I-144541J48620D01*
G01*
X145189247Y-74790887D02*
X145405745Y-74769571D01*
X145540303Y-74587295D02*
G75*
G02*
X145543571Y-74624517I-156299J-32475D01*
G01*
X145916556Y-74752359D02*
G75*
G02*
X145899976Y-74451814I11948J151389D01*
G01*
X143659989Y-75528984D02*
G75*
G02*
X144497434Y-75322793I1958515J-6150786D01*
G01*
X145380909Y-74468359D02*
G75*
G02*
X145540288Y-74587298I12495J-149511D01*
G01*
X143789504Y-79471195D02*
X144541443Y-79471195D01*
X145102052Y-74919436D02*
G75*
G02*
X145378244Y-78609190I-8162998J-2466244D01*
G01*
X143690697Y-79386557D02*
G75*
G02*
X143588388Y-78355509I9257307J1439187D01*
G01*
X143710084Y-75144931D02*
G75*
G02*
X143607040Y-74865838I-18980J151561D01*
G01*
X145916556Y-74752359D02*
G75*
G02*
X146635187Y-74769121I211348J-6352011D01*
G01*
X146635187Y-74769125D02*
G75*
G02*
X146725787Y-74851763I-8083J-99845D01*
G01*
X146725794Y-74851762D02*
X147099609Y-76663960D01*
X143577804Y-79771195D02*
G75*
G02*
X143430203Y-79647565I0J149925D01*
G01*
X147393416Y-76603319D02*
G75*
G02*
X147099608Y-76663961I-152512J-3151D01*
G01*
X144541174Y-79771195D02*
X143577804Y-79771195D01*
X144679338Y-74870843D02*
G75*
G02*
X144794308Y-74939189I19466J-98127D01*
G01*
X150310336Y-80359800D02*
G75*
G02*
X145036384Y-80359800I-2636976J0D01*
G01*
X145036384Y-80359800D02*
G75*
G02*
X150310336Y-80359800I2636976J0D01*
G01*
X142388955Y-80948574D02*
G75*
G02*
X138271193Y-80948574I-2058881J0D01*
G01*
X138271193Y-80948574D02*
G75*
G02*
X142388955Y-80948574I2058881J0D01*
G01*
M02*
